<?xml version="1.0" encoding="utf-8"?>
<!-- Generator: Adobe Illustrator 28.1.0, SVG Export Plug-In . SVG Version: 6.00 Build 0)  -->
<svg version="1.1"
	 id="svg4160" xmlns:inkscape="http://www.inkscape.org/namespaces/inkscape" xmlns:sodipodi="http://sodipodi.sourceforge.net/DTD/sodipodi-0.dtd" xmlns:cc="http://creativecommons.org/ns#" xmlns:dc="http://purl.org/dc/elements/1.1/" xmlns:rdf="http://www.w3.org/1999/02/22-rdf-syntax-ns#" xmlns:svg="http://www.w3.org/2000/svg" inkscape:version="1.1 (c4e8f9ed74, 2021-05-24)"
	 xmlns="http://www.w3.org/2000/svg" xmlns:xlink="http://www.w3.org/1999/xlink" x="0px" y="0px" viewBox="0 0 64 64"
	 style="enable-background:new 0 0 64 64;" xml:space="preserve">
<style type="text/css">
	.st0{opacity:0.998;fill:#F0EBDC;enable-background:new    ;}
</style>
<sodipodi:namedview  bordercolor="#666666" borderopacity="1" gridtolerance="10" guidetolerance="10" id="namedview8" inkscape:current-layer="layer2" inkscape:cx="19.591811" inkscape:cy="33.30608" inkscape:document-rotation="0" inkscape:pagecheckerboard="false" inkscape:pageopacity="1" inkscape:pageshadow="2" inkscape:window-height="826" inkscape:window-maximized="1" inkscape:window-width="1600" inkscape:window-x="0" inkscape:window-y="0" inkscape:zoom="7.4010512" objecttolerance="10" pagecolor="#002b36" showgrid="false">
	<inkscape:grid  id="grid832" type="xygrid"></inkscape:grid>
</sodipodi:namedview>
<g id="layer2" transform="translate(-3.5328446,2.2636422)">
	<path id="rect852-3" sodipodi:nodetypes="ssscccccscccccccccccss" class="st0" d="M40.1,51.8h-9.2c-0.7,0-1.1-0.4-1.1-0.9V26.5
		c0-1.8-2.1-2.7-3.4-1.5l-3.2,3c-0.4,0.4-1.2,0.4-1.6,0l-4.4-4.1C17,23.7,17,23.5,17,23.3c0-0.2,0.1-0.4,0.3-0.6l13.1-12.4l4.4-4.1
		c0.4-0.4,1.2-0.4,1.6,0l4.4,4.1l13.1,12.4c0.4,0.4,0.4,0.8,0,1.2L49.3,28c-0.4,0.4-1.2,0.4-1.6,0l-3.2-3c-1.3-1.2-3.4-0.3-3.4,1.5
		v24.4C41.2,51.4,40.8,51.8,40.1,51.8z"/>
</g>
</svg>
