<?xml version="1.0" encoding="utf-8"?>
<!-- Generator: Adobe Illustrator 28.1.0, SVG Export Plug-In . SVG Version: 6.00 Build 0)  -->
<svg version="1.1"
	 id="svg4160" xmlns:inkscape="http://www.inkscape.org/namespaces/inkscape" xmlns:sodipodi="http://sodipodi.sourceforge.net/DTD/sodipodi-0.dtd" xmlns:cc="http://creativecommons.org/ns#" xmlns:dc="http://purl.org/dc/elements/1.1/" xmlns:rdf="http://www.w3.org/1999/02/22-rdf-syntax-ns#" xmlns:svg="http://www.w3.org/2000/svg" inkscape:version="1.1 (c4e8f9ed74, 2021-05-24)"
	 xmlns="http://www.w3.org/2000/svg" xmlns:xlink="http://www.w3.org/1999/xlink" x="0px" y="0px" viewBox="0 0 64 64"
	 style="enable-background:new 0 0 64 64;" xml:space="preserve">
<style type="text/css">
	
		.st0{opacity:0.998;fill:#F0EBDC;stroke:#F0EBDC;stroke-width:2;stroke-linecap:round;stroke-linejoin:round;enable-background:new    ;}
	.st1{opacity:0.998;fill:#3F5464;enable-background:new    ;}
</style>
<sodipodi:namedview  bordercolor="#666666" borderopacity="1" gridtolerance="10" guidetolerance="10" id="namedview8" inkscape:current-layer="layer2" inkscape:cx="19.591811" inkscape:cy="33.30608" inkscape:document-rotation="0" inkscape:pagecheckerboard="false" inkscape:pageopacity="1" inkscape:pageshadow="2" inkscape:window-height="826" inkscape:window-maximized="1" inkscape:window-width="1600" inkscape:window-x="0" inkscape:window-y="0" inkscape:zoom="7.4010512" objecttolerance="10" pagecolor="#002b36" showgrid="false">
	<inkscape:grid  id="grid832" type="xygrid"></inkscape:grid>
</sodipodi:namedview>
<g id="layer2" transform="translate(-3.5328446,2.2636422)">
	<g id="g4020">
		<path id="rect838" sodipodi:nodetypes="cccccc" class="st0" d="M10.5,29.7l16,19h34v-38h-34L10.5,29.7z"/>
		<path id="rect852" class="st1" d="M26.8,35.4L45.2,17c0.8-0.8,2-0.8,2.8,0l4.2,4.2c0.8,0.8,0.8,2,0,2.8L33.9,42.5
			c-0.8,0.8-2,0.8-2.8,0l-4.2-4.2C26,37.4,26,36.2,26.8,35.4z"/>
		<path id="rect852-6" class="st1" d="M52.3,35.4L33.9,17c-0.8-0.8-2-0.8-2.8,0l-4.2,4.2c-0.8,0.8-0.8,2,0,2.8l18.4,18.4
			c0.8,0.8,2,0.8,2.8,0l4.2-4.2C53,37.4,53,36.2,52.3,35.4z"/>
	</g>
</g>
</svg>
