<?xml version="1.0" encoding="utf-8"?>
<!-- Generator: Adobe Illustrator 28.1.0, SVG Export Plug-In . SVG Version: 6.00 Build 0)  -->
<svg version="1.1"
	 id="svg10" xmlns:inkscape="http://www.inkscape.org/namespaces/inkscape" xmlns:sodipodi="http://sodipodi.sourceforge.net/DTD/sodipodi-0.dtd" xmlns:cc="http://creativecommons.org/ns#" xmlns:dc="http://purl.org/dc/elements/1.1/" xmlns:rdf="http://www.w3.org/1999/02/22-rdf-syntax-ns#" xmlns:svg="http://www.w3.org/2000/svg" inkscape:version="1.2.2 (b0a8486541, 2022-12-01)"
	 xmlns="http://www.w3.org/2000/svg" xmlns:xlink="http://www.w3.org/1999/xlink" x="0px" y="0px" viewBox="0 0 64 64"
	 style="enable-background:new 0 0 64 64;" xml:space="preserve">
<style type="text/css">
	.st0{opacity:0.998;fill:#EB907C;enable-background:new    ;}
</style>
<sodipodi:namedview  bordercolor="#666666" borderopacity="1" gridtolerance="10" guidetolerance="10" id="namedview12" inkscape:current-layer="svg10" inkscape:cx="32" inkscape:cy="32" inkscape:deskcolor="#bfbfbf" inkscape:document-rotation="0" inkscape:pagecheckerboard="false" inkscape:pageopacity="0" inkscape:pageshadow="2" inkscape:showpageshadow="2" inkscape:snap-bbox="true" inkscape:snap-bbox-edge-midpoints="true" inkscape:window-height="828" inkscape:window-maximized="1" inkscape:window-width="1600" inkscape:window-x="0" inkscape:window-y="0" inkscape:zoom="9.5625" objecttolerance="10" pagecolor="#bfbfbf" showgrid="false" showguides="true">
	</sodipodi:namedview>
<path id="path182" sodipodi:nodetypes="scsccccsssscsssssccccc" class="st0" d="M45,12.1c0-0.6-0.2-1-0.6-1.4
	c-0.4-0.4-0.8-0.6-1.4-0.6h-5.8V6H26.8v4.2h-5.9c-0.6,0-1,0.2-1.4,0.6c-0.4,0.4-0.6,0.8-0.6,1.4V56c0,0.6,0.2,1,0.6,1.4
	s0.8,0.6,1.4,0.6H43c0.6,0,1-0.2,1.4-0.6C44.8,57,45,56.6,45,56V12.1z M41.1,14.1v40H22.9v-40L41.1,14.1z"/>
</svg>
