<?xml version="1.0" encoding="utf-8"?>
<!-- Generator: Adobe Illustrator 28.1.0, SVG Export Plug-In . SVG Version: 6.00 Build 0)  -->
<svg version="1.1"
	 id="svg4160" xmlns:inkscape="http://www.inkscape.org/namespaces/inkscape" xmlns:sodipodi="http://sodipodi.sourceforge.net/DTD/sodipodi-0.dtd" xmlns:cc="http://creativecommons.org/ns#" xmlns:dc="http://purl.org/dc/elements/1.1/" xmlns:rdf="http://www.w3.org/1999/02/22-rdf-syntax-ns#" xmlns:svg="http://www.w3.org/2000/svg" inkscape:version="1.0.2-2 (e86c870879, 2021-01-15)"
	 xmlns="http://www.w3.org/2000/svg" xmlns:xlink="http://www.w3.org/1999/xlink" x="0px" y="0px" viewBox="0 0 64 64"
	 style="enable-background:new 0 0 64 64;" xml:space="preserve">
<style type="text/css">
	.st0{opacity:0.998;fill:#F0EBDC;enable-background:new    ;}
</style>
<sodipodi:namedview  bordercolor="#666666" borderopacity="1" gridtolerance="10" guidetolerance="10" id="namedview8" inkscape:current-layer="layer2" inkscape:cx="19.591811" inkscape:cy="33.30608" inkscape:document-rotation="0" inkscape:pagecheckerboard="false" inkscape:pageopacity="1" inkscape:pageshadow="2" inkscape:window-height="1018" inkscape:window-maximized="1" inkscape:window-width="1920" inkscape:window-x="-6" inkscape:window-y="-6" inkscape:zoom="7.4010512" objecttolerance="10" pagecolor="#002b36" showgrid="false">
	<inkscape:grid  id="grid832" type="xygrid"></inkscape:grid>
</sodipodi:namedview>
<g id="layer2" transform="translate(-3.5328446,2.2636422)">
	<path id="path2-8" class="st0" d="M31.5,13.7v8h8v-8L31.5,13.7 M43.5,13.7v8h8v-8H43.5 M43.5,25.7v8h8v-8H43.5 M43.5,37.7v8h8v-8
		H43.5 M39.5,45.7v-8h-8v8H39.5 M27.5,45.7v-8h-8v8H27.5 M27.5,33.7v-8h-8v8H27.5 M27.5,21.7v-8h-8v8H27.5 M31.5,33.7h8v-8h-8V33.7
		 M19.5,9.7h32c2.2,0,4,1.8,4,4v32c0,2.2-1.8,4-4,4h-32c-2.2,0-4-1.8-4-4v-32C15.5,11.5,17.3,9.7,19.5,9.7z"/>
</g>
</svg>
