<?xml version="1.0" encoding="utf-8"?>
<!-- Generator: Adobe Illustrator 28.1.0, SVG Export Plug-In . SVG Version: 6.00 Build 0)  -->
<svg version="1.1"
	 id="svg38" xmlns:inkscape="http://www.inkscape.org/namespaces/inkscape" xmlns:sodipodi="http://sodipodi.sourceforge.net/DTD/sodipodi-0.dtd" xmlns:cc="http://creativecommons.org/ns#" xmlns:dc="http://purl.org/dc/elements/1.1/" xmlns:rdf="http://www.w3.org/1999/02/22-rdf-syntax-ns#" xmlns:svg="http://www.w3.org/2000/svg" inkscape:version="1.0.2-2 (e86c870879, 2021-01-15)"
	 xmlns="http://www.w3.org/2000/svg" xmlns:xlink="http://www.w3.org/1999/xlink" x="0px" y="0px" viewBox="0 0 64 64"
	 style="enable-background:new 0 0 64 64;" xml:space="preserve">
<style type="text/css">
	.st0{opacity:0.995;fill:#A3A7AA;enable-background:new    ;}
	.st1{opacity:0.995;fill:#3F5464;enable-background:new    ;}
</style>
<sodipodi:namedview  bordercolor="#666666" borderopacity="1" gridtolerance="10" guidetolerance="10" id="namedview18" inkscape:current-layer="svg38" inkscape:cx="32" inkscape:cy="23.847134" inkscape:document-rotation="0" inkscape:pageopacity="0" inkscape:pageshadow="2" inkscape:window-height="1018" inkscape:window-maximized="1" inkscape:window-width="1920" inkscape:window-x="-6" inkscape:window-y="-6" inkscape:zoom="9.8125" objecttolerance="10" pagecolor="#ffffff" showgrid="false">
	</sodipodi:namedview>
<g id="g859" transform="rotate(5,223.37587,38.189112)">
	<path id="rect863" class="st0" d="M11,50h2c1.1,0,2,0.9,2,2l0,0c0,1.1-0.9,2-2,2h-2c-1.1,0-2-0.9-2-2l0,0C9,50.9,9.9,50,11,50z"/>
	<path id="rect912-6" class="st0" d="M51,50h2c1.1,0,2,0.9,2,2l0,0c0,1.1-0.9,2-2,2h-2c-1.1,0-2-0.9-2-2l0,0C49,50.9,49.9,50,51,50z
		"/>
	<path id="rect857" class="st0" d="M6.5,44l51,0c1.1,0,2,0.9,2,2v3c0,1.1-0.9,2-2,2l-51,0c-1.1,0-2-0.9-2-2l0-3
		C4.5,44.9,5.4,44,6.5,44z"/>
	
		<rect id="rect854-5" x="31" y="17.5" transform="matrix(2.765395e-06 1 -1 2.765395e-06 76.9999 12.9999)" class="st1" width="2" height="55"/>
</g>
</svg>
