<?xml version="1.0" encoding="utf-8"?>
<!-- Generator: Adobe Illustrator 28.1.0, SVG Export Plug-In . SVG Version: 6.00 Build 0)  -->
<svg version="1.1"
	 id="svg17" xmlns:inkscape="http://www.inkscape.org/namespaces/inkscape" xmlns:sodipodi="http://sodipodi.sourceforge.net/DTD/sodipodi-0.dtd" xmlns:cc="http://creativecommons.org/ns#" xmlns:dc="http://purl.org/dc/elements/1.1/" xmlns:rdf="http://www.w3.org/1999/02/22-rdf-syntax-ns#" xmlns:svg="http://www.w3.org/2000/svg" inkscape:version="1.3.2 (091e20ef0f, 2023-11-25, custom)"
	 xmlns="http://www.w3.org/2000/svg" xmlns:xlink="http://www.w3.org/1999/xlink" x="0px" y="0px" viewBox="0 0 64 64"
	 style="enable-background:new 0 0 64 64;" xml:space="preserve">
<style type="text/css">
	.st0{fill-rule:evenodd;clip-rule:evenodd;fill:#F0EBDC;}
	.st1{fill:none;stroke:#F0EBDC;stroke-width:4;}
</style>
<sodipodi:namedview  bordercolor="#666666" borderopacity="1" gridtolerance="10" guidetolerance="10" id="namedview19" inkscape:current-layer="g3256" inkscape:cx="33.069267" inkscape:cy="34.078423" inkscape:deskcolor="#d1d1d1" inkscape:document-rotation="0" inkscape:pagecheckerboard="false" inkscape:pageopacity="1" inkscape:pageshadow="2" inkscape:showpageshadow="0" inkscape:window-height="855" inkscape:window-maximized="1" inkscape:window-width="1600" inkscape:window-x="0" inkscape:window-y="0" inkscape:zoom="6.4410258" objecttolerance="10" pagecolor="#002b36" showgrid="false">
	</sodipodi:namedview>
<g id="g3256" transform="matrix(-1,0,0,1,64,0)">
	<path id="path872" class="st0" d="M32,20c6.6,0,12,5.4,12,12c0,6.6-5.4,12-12,12c-6.6,0-12-5.4-12-12C20,25.4,25.4,20,32,20z
		 M36.9,24.2L32,29.2l-4.9-4.9l-2.8,2.8l4.9,4.9l-4.9,4.9l2.8,2.8l4.9-4.9l4.9,4.9l2.8-2.8L34.8,32l4.9-4.9L36.9,24.2z"/>
	<path id="path877" sodipodi:nodetypes="cc" class="st1" d="M60,59L59.8,5"/>
</g>
</svg>
