<?xml version="1.0" encoding="utf-8"?>
<!-- Generator: Adobe Illustrator 28.1.0, SVG Export Plug-In . SVG Version: 6.00 Build 0)  -->
<svg version="1.1"
	 id="svg38" xmlns:inkscape="http://www.inkscape.org/namespaces/inkscape" xmlns:sodipodi="http://sodipodi.sourceforge.net/DTD/sodipodi-0.dtd" xmlns:cc="http://creativecommons.org/ns#" xmlns:dc="http://purl.org/dc/elements/1.1/" xmlns:rdf="http://www.w3.org/1999/02/22-rdf-syntax-ns#" xmlns:svg="http://www.w3.org/2000/svg" inkscape:version="1.0.2-2 (e86c870879, 2021-01-15)"
	 xmlns="http://www.w3.org/2000/svg" xmlns:xlink="http://www.w3.org/1999/xlink" x="0px" y="0px" viewBox="0 0 64 64"
	 style="enable-background:new 0 0 64 64;" xml:space="preserve">
<style type="text/css">
	
		.st0{fill:none;stroke:url(#path25_00000055665161534278886340000011151721638932145049_);stroke-width:3;stroke-linecap:round;stroke-linejoin:round;}
	
		.st1{fill:none;stroke:url(#path27_00000072238709547955914980000000299078178670639267_);stroke-width:3;stroke-linecap:round;stroke-linejoin:round;}
	
		.st2{fill:none;stroke:url(#path29_00000149378530040897000800000017911052476185309866_);stroke-width:3;stroke-linecap:round;stroke-linejoin:round;}
	
		.st3{fill:none;stroke:url(#path31_00000066491669030989675220000006258682573299834005_);stroke-width:3;stroke-linecap:round;stroke-linejoin:round;}
	
		.st4{fill:none;stroke:url(#path33_00000126282238755445434850000018004312283882252438_);stroke-width:3;stroke-linecap:round;stroke-linejoin:round;}
	.st5{opacity:0.995;fill:#A3A7AA;enable-background:new    ;}
	.st6{opacity:0.995;fill:#3F5464;enable-background:new    ;}
</style>
<sodipodi:namedview  bordercolor="#666666" borderopacity="1" gridtolerance="10" guidetolerance="10" id="namedview26" inkscape:current-layer="svg38" inkscape:cx="25.201387" inkscape:cy="33.115348" inkscape:document-rotation="0" inkscape:pageopacity="0" inkscape:pageshadow="2" inkscape:window-height="1018" inkscape:window-maximized="1" inkscape:window-width="1920" inkscape:window-x="-6" inkscape:window-y="-6" inkscape:zoom="11.484375" objecttolerance="10" pagecolor="#ffffff" showgrid="false">
	</sodipodi:namedview>
<linearGradient id="path25_00000042715201444293163620000018372989968113577100_" gradientUnits="userSpaceOnUse" x1="30.0733" y1="23.8053" x2="29.9353" y2="57.9627" gradientTransform="matrix(1 0 0 -1 2 65.5472)">
	<stop  offset="0" style="stop-color:#DC322F"/>
	<stop  offset="0.5" style="stop-color:#CB4B16;stop-opacity:0.498"/>
	<stop  offset="0.75" style="stop-color:#B58900;stop-opacity:0.2471"/>
	<stop  offset="1" style="stop-color:#FFFFFF;stop-opacity:0"/>
</linearGradient>
<path id="path25" style="fill:none;stroke:url(#path25_00000042715201444293163620000018372989968113577100_);stroke-width:3;stroke-linecap:round;stroke-linejoin:round;" d="
	M32,39.7c0,0,2.8-7.8,2.8-10.7c0-3.1-5.7-7.5-5.7-10.7c0-2.9,2.8-10.7,2.8-10.7"/>
<linearGradient id="path27_00000169530437908136245610000008696236972053757843_" gradientUnits="userSpaceOnUse" x1="40.5041" y1="23.8474" x2="40.3661" y2="58.0048" gradientTransform="matrix(1 0 0 -1 2 65.5472)">
	<stop  offset="0" style="stop-color:#DC322F"/>
	<stop  offset="0.5" style="stop-color:#CB4B16;stop-opacity:0.498"/>
	<stop  offset="0.75" style="stop-color:#B58900;stop-opacity:0.2471"/>
	<stop  offset="1" style="stop-color:#FFFFFF;stop-opacity:0"/>
</linearGradient>
<path id="path27" style="fill:none;stroke:url(#path27_00000169530437908136245610000008696236972053757843_);stroke-width:3;stroke-linecap:round;stroke-linejoin:round;" d="
	M42.4,39.7c0,0,2.8-7.8,2.8-10.7c0-3.1-5.7-7.5-5.7-10.7c0-2.9,2.8-10.7,2.8-10.7"/>
<linearGradient id="path29_00000098218370536489309930000000679762074780831907_" gradientUnits="userSpaceOnUse" x1="19.6424" y1="23.7631" x2="19.5044" y2="57.9205" gradientTransform="matrix(1 0 0 -1 2 65.5472)">
	<stop  offset="0" style="stop-color:#DC322F"/>
	<stop  offset="0.5" style="stop-color:#CB4B16;stop-opacity:0.498"/>
	<stop  offset="0.75" style="stop-color:#B58900;stop-opacity:0.2471"/>
	<stop  offset="1" style="stop-color:#FFFFFF;stop-opacity:0"/>
</linearGradient>
<path id="path29" style="fill:none;stroke:url(#path29_00000098218370536489309930000000679762074780831907_);stroke-width:3;stroke-linecap:round;stroke-linejoin:round;" d="
	M21.6,39.7c0,0,2.8-7.8,2.8-10.7c0-3.1-5.7-7.5-5.7-10.7c0-2.9,2.8-10.7,2.8-10.7"/>
<linearGradient id="path31_00000019671037463699791600000003240438852823549319_" gradientUnits="userSpaceOnUse" x1="50.9349" y1="23.8896" x2="50.7969" y2="58.047" gradientTransform="matrix(1 0 0 -1 2 65.5472)">
	<stop  offset="0" style="stop-color:#DC322F"/>
	<stop  offset="0.5" style="stop-color:#CB4B16;stop-opacity:0.498"/>
	<stop  offset="0.75" style="stop-color:#B58900;stop-opacity:0.2471"/>
	<stop  offset="1" style="stop-color:#FFFFFF;stop-opacity:0"/>
</linearGradient>
<path id="path31" style="fill:none;stroke:url(#path31_00000019671037463699791600000003240438852823549319_);stroke-width:3;stroke-linecap:round;stroke-linejoin:round;" d="
	M52.9,39.7c0,0,2.8-7.8,2.8-10.7c0-3.1-5.7-7.5-5.7-10.7c0-2.9,2.8-10.7,2.8-10.7"/>
<linearGradient id="path33_00000023988545537391655100000012098753603058323081_" gradientUnits="userSpaceOnUse" x1="9.2116" y1="23.721" x2="9.0736" y2="57.8784" gradientTransform="matrix(1 0 0 -1 2 65.5472)">
	<stop  offset="0" style="stop-color:#DC322F"/>
	<stop  offset="0.5" style="stop-color:#CB4B16;stop-opacity:0.498"/>
	<stop  offset="0.75" style="stop-color:#B58900;stop-opacity:0.2471"/>
	<stop  offset="1" style="stop-color:#FFFFFF;stop-opacity:0"/>
</linearGradient>
<path id="path33" style="fill:none;stroke:url(#path33_00000023988545537391655100000012098753603058323081_);stroke-width:3;stroke-linecap:round;stroke-linejoin:round;" d="
	M11.1,39.7c0,0,2.8-7.8,2.8-10.7c0-3.1-5.7-7.5-5.7-10.7c0-2.9,2.8-10.7,2.8-10.7"/>
<g id="g859">
	<path id="rect863" class="st5" d="M11,50h2c1.1,0,2,0.9,2,2l0,0c0,1.1-0.9,2-2,2h-2c-1.1,0-2-0.9-2-2l0,0C9,50.9,9.9,50,11,50z"/>
	<path id="rect912" class="st5" d="M51,50h2c1.1,0,2,0.9,2,2l0,0c0,1.1-0.9,2-2,2h-2c-1.1,0-2-0.9-2-2l0,0C49,50.9,49.9,50,51,50z"
		/>
	<path id="rect857" class="st5" d="M6.5,44h51c1.1,0,2,0.9,2,2v3c0,1.1-0.9,2-2,2h-51c-1.1,0-2-0.9-2-2v-3C4.5,44.9,5.4,44,6.5,44z"
		/>
	<rect id="rect854" x="4.5" y="44" class="st6" width="55" height="2"/>
</g>
</svg>
