<?xml version="1.0" encoding="utf-8"?>
<!-- Generator: Adobe Illustrator 28.1.0, SVG Export Plug-In . SVG Version: 6.00 Build 0)  -->
<svg version="1.1"
	 id="svg57" xmlns:inkscape="http://www.inkscape.org/namespaces/inkscape" xmlns:sodipodi="http://sodipodi.sourceforge.net/DTD/sodipodi-0.dtd" xmlns:cc="http://creativecommons.org/ns#" xmlns:dc="http://purl.org/dc/elements/1.1/" xmlns:rdf="http://www.w3.org/1999/02/22-rdf-syntax-ns#" xmlns:svg="http://www.w3.org/2000/svg" inkscape:version="1.0.2 (e86c870879, 2021-01-15, custom)"
	 xmlns="http://www.w3.org/2000/svg" xmlns:xlink="http://www.w3.org/1999/xlink" x="0px" y="0px" viewBox="0 0 64 64"
	 style="enable-background:new 0 0 64 64;" xml:space="preserve">
<style type="text/css">
	.st0{fill:#A3A7AA;stroke:#A3A7AA;stroke-width:4;}
	.st1{opacity:0.995;fill:#3F5464;fill-opacity:0.9961;enable-background:new    ;}
	.st2{opacity:0.995;fill:#A3A7AA;stroke:#DCDCDC;stroke-linecap:round;stroke-linejoin:round;enable-background:new    ;}
	.st3{fill:#F0EBDC;fill-opacity:0.9961;stroke:#DCDCDC;stroke-miterlimit:10;}
	
		.st4{opacity:0.995;fill:#F0EBDC;stroke:#DCDCDC;stroke-width:2;stroke-linecap:round;stroke-linejoin:round;enable-background:new    ;}
</style>
<sodipodi:namedview  bordercolor="#666666" borderopacity="1" gridtolerance="10" guidetolerance="10" id="namedview17" inkscape:bbox-nodes="true" inkscape:bbox-paths="true" inkscape:current-layer="svg57" inkscape:cx="16.650568" inkscape:cy="32.122781" inkscape:document-rotation="0" inkscape:pageopacity="0" inkscape:pageshadow="2" inkscape:snap-bbox="true" inkscape:snap-bbox-edge-midpoints="true" inkscape:snap-bbox-midpoints="true" inkscape:window-height="837" inkscape:window-maximized="1" inkscape:window-width="1600" inkscape:window-x="-8" inkscape:window-y="-8" inkscape:zoom="5.8999222" objecttolerance="10" pagecolor="#ffffff" showgrid="false" showguides="false">
	</sodipodi:namedview>
<path id="path901" sodipodi:nodetypes="cc" class="st0" d="M17.6,36.1L4.5,52"/>
<circle id="path899" class="st1" cx="19.1" cy="34.8" r="4"/>
<path id="rect903" class="st1" d="M4.9,45L4.9,45c1.1,0,2,0.9,2,2v5.9c0,1.1-0.9,2-2,2l0,0c-1.1,0-2-0.9-2-2V47
	C2.9,45.9,3.8,45,4.9,45z"/>
<path id="rect857" class="st2" d="M44.9,31.3l3,2c0.9,0.6,1.2,1.8,0.6,2.8l-4.3,6.6c-0.6,0.9-1.8,1.2-2.8,0.6l-3-2
	c-0.9-0.6-1.2-1.8-0.6-2.8l4.3-6.6C42.7,31,43.9,30.7,44.9,31.3z"/>
<path id="path859" sodipodi:nodetypes="cccc" class="st3" d="M63,34.6l-21.6-14l-9.6,14.8L63,34.6z"/>
<path id="rect855" class="st4" d="M16.7,2.9l32,20.8c0.9,0.6,1.2,1.8,0.6,2.8l-11.7,18c-0.6,0.9-1.8,1.2-2.8,0.6l-32-20.8
	c-0.9-0.6-1.2-1.8-0.6-2.8L14,3.5C14.6,2.6,15.8,2.3,16.7,2.9z"/>
</svg>
