<?xml version="1.0" encoding="utf-8"?>
<!-- Generator: Adobe Illustrator 28.1.0, SVG Export Plug-In . SVG Version: 6.00 Build 0)  -->
<svg version="1.1"
	 id="svg57" xmlns:inkscape="http://www.inkscape.org/namespaces/inkscape" xmlns:sodipodi="http://sodipodi.sourceforge.net/DTD/sodipodi-0.dtd" xmlns:cc="http://creativecommons.org/ns#" xmlns:dc="http://purl.org/dc/elements/1.1/" xmlns:rdf="http://www.w3.org/1999/02/22-rdf-syntax-ns#" xmlns:svg="http://www.w3.org/2000/svg" inkscape:version="1.1 (c4e8f9ed74, 2021-05-24)"
	 xmlns="http://www.w3.org/2000/svg" xmlns:xlink="http://www.w3.org/1999/xlink" x="0px" y="0px" viewBox="0 0 64 64"
	 style="enable-background:new 0 0 64 64;" xml:space="preserve">
<style type="text/css">
	.st0{opacity:0.995;fill:#3F5464;enable-background:new    ;}
	.st1{fill:#A3A7AA;}
	
		.st2{opacity:0.995;fill:none;stroke:#F0EBDC;stroke-width:4;stroke-linecap:round;stroke-linejoin:round;enable-background:new    ;}
	.st3{opacity:0.995;fill:#0F1822;enable-background:new    ;}
</style>
<circle id="path14-8" class="st0" cx="32" cy="32" r="26"/>
<sodipodi:namedview  bordercolor="#666666" borderopacity="1" gridtolerance="10" guidetolerance="10" id="namedview17" inkscape:current-layer="svg57" inkscape:cx="31.946218" inkscape:cy="32" inkscape:document-rotation="0" inkscape:pagecheckerboard="false" inkscape:pageopacity="1" inkscape:pageshadow="2" inkscape:window-height="826" inkscape:window-maximized="1" inkscape:window-width="1600" inkscape:window-x="0" inkscape:window-y="0" inkscape:zoom="9.296875" objecttolerance="10" pagecolor="#002b36" showgrid="false" showguides="false">
	</sodipodi:namedview>
<g id="g919" transform="translate(-1.7880608,0.70281443)">
	<path id="path899" sodipodi:nodetypes="cccc" class="st1" d="M19.3,55l-0.8-31.7L6,30.6C6,30.6,4.6,47.8,19.3,55z"/>
	<path id="path903" sodipodi:nodetypes="cccc" class="st1" d="M6,30.6l27-16.5L20.5,6.9C20.5,6.9,4.9,14.3,6,30.6z"/>
	<path id="path905" sodipodi:nodetypes="cccc" class="st1" d="M20.5,6.9l27.8,15.1L48.3,7.6C48.3,7.6,34.1-2.2,20.5,6.9z"/>
	<path id="path907" sodipodi:nodetypes="cccc" class="st1" d="M48.3,7.6l0.8,31.7L61.6,32C61.6,32,63,14.8,48.3,7.6z"/>
	<path id="path909" sodipodi:nodetypes="cccc" class="st1" d="M61.6,32l-27,16.5l12.6,7.2C47.1,55.7,62.7,48.3,61.6,32z"/>
	<path id="path911" sodipodi:nodetypes="cccc" class="st1" d="M47.1,55.7L19.3,40.5L19.3,55C19.3,55,33.5,64.8,47.1,55.7z"/>
</g>
<circle id="circle861" class="st2" cx="32" cy="32" r="27"/>
<circle id="path921" class="st3" cx="32" cy="32" r="2.5"/>
</svg>
