<?xml version="1.0" encoding="utf-8"?>
<!-- Generator: Adobe Illustrator 28.1.0, SVG Export Plug-In . SVG Version: 6.00 Build 0)  -->
<svg version="1.1"
	 id="svg10" xmlns:inkscape="http://www.inkscape.org/namespaces/inkscape" xmlns:sodipodi="http://sodipodi.sourceforge.net/DTD/sodipodi-0.dtd" xmlns:cc="http://creativecommons.org/ns#" xmlns:dc="http://purl.org/dc/elements/1.1/" xmlns:rdf="http://www.w3.org/1999/02/22-rdf-syntax-ns#" xmlns:svg="http://www.w3.org/2000/svg" inkscape:version="1.1 (c4e8f9ed74, 2021-05-24)"
	 xmlns="http://www.w3.org/2000/svg" xmlns:xlink="http://www.w3.org/1999/xlink" x="0px" y="0px" viewBox="0 0 64 64"
	 style="enable-background:new 0 0 64 64;" xml:space="preserve">
<style type="text/css">
	.st0{fill:#CD817B;}
</style>
<sodipodi:namedview  bordercolor="#666666" borderopacity="1" gridtolerance="10" guidetolerance="10" id="namedview12" inkscape:current-layer="svg10" inkscape:cx="31.946218" inkscape:cy="32" inkscape:document-rotation="0" inkscape:pagecheckerboard="false" inkscape:pageopacity="0.98039216" inkscape:pageshadow="2" inkscape:snap-bbox="true" inkscape:snap-bbox-edge-midpoints="true" inkscape:window-height="826" inkscape:window-maximized="1" inkscape:window-width="1600" inkscape:window-x="0" inkscape:window-y="0" inkscape:zoom="9.296875" objecttolerance="10" pagecolor="#002b36" showgrid="false">
	</sodipodi:namedview>
<path id="rect891" class="st0" d="M56.2,18.6L18.6,56.2c-0.8,0.8-2,0.8-2.8,0l-8-8c-0.8-0.8-0.8-2,0-2.8L45.4,7.8
	c0.8-0.8,2-0.8,2.8,0l8,8C57,16.5,57,17.8,56.2,18.6z"/>
<path id="rect846" class="st0" d="M44.9,55.4L8.6,19.1c-0.8-0.8-0.8-2,0-2.8l7.6-7.6c0.8-0.8,2-0.8,2.8,0L55.3,45
	c0.8,0.8,0.8,2,0,2.8l-7.6,7.6C47,56.2,45.7,56.2,44.9,55.4z"/>
</svg>
