<?xml version="1.0" encoding="utf-8"?>
<!-- Generator: Adobe Illustrator 28.1.0, SVG Export Plug-In . SVG Version: 6.00 Build 0)  -->
<svg version="1.1"
	 id="svg10" xmlns:inkscape="http://www.inkscape.org/namespaces/inkscape" xmlns:sodipodi="http://sodipodi.sourceforge.net/DTD/sodipodi-0.dtd" xmlns:cc="http://creativecommons.org/ns#" xmlns:dc="http://purl.org/dc/elements/1.1/" xmlns:rdf="http://www.w3.org/1999/02/22-rdf-syntax-ns#" xmlns:svg="http://www.w3.org/2000/svg" inkscape:version="1.3.2 (091e20ef0f, 2023-11-25, custom)"
	 xmlns="http://www.w3.org/2000/svg" xmlns:xlink="http://www.w3.org/1999/xlink" x="0px" y="0px" viewBox="0 0 64 64"
	 style="enable-background:new 0 0 64 64;" xml:space="preserve">
<style type="text/css">
	.st0{fill:none;stroke:#F0EBDC;stroke-width:8;stroke-linecap:round;stroke-linejoin:round;stroke-opacity:0.9788;}
	.st1{opacity:0.998;fill:#F0EBDC;enable-background:new    ;}
</style>
<sodipodi:namedview  bordercolor="#666666" borderopacity="1" gridtolerance="10" guidetolerance="10" id="namedview11" inkscape:current-layer="svg10" inkscape:cx="24.611465" inkscape:cy="26.751592" inkscape:deskcolor="#d1d1d1" inkscape:document-rotation="0" inkscape:pagecheckerboard="false" inkscape:pageopacity="1" inkscape:pageshadow="2" inkscape:showpageshadow="0" inkscape:window-height="827" inkscape:window-maximized="1" inkscape:window-width="1600" inkscape:window-x="0" inkscape:window-y="0" inkscape:zoom="9.8125" objecttolerance="10" pagecolor="#002b36" showgrid="false">
	</sodipodi:namedview>
<g id="g1" transform="matrix(-1,0,0,1,65.338774,0)">
	
		<path id="path1602" sodipodi:arc-type="arc" sodipodi:cx="31.999998" sodipodi:cy="30.999998" sodipodi:end="5.5850536" sodipodi:open="true" sodipodi:rx="23" sodipodi:ry="23" sodipodi:start="0.34906585" sodipodi:type="arc" class="st0" d="
		M53.6,38.9c-3.6,9.8-13.2,16-23.6,15S11.2,45.2,9.3,35s3.5-20.4,12.9-24.8s20.6-1.9,27.3,6.1"/>
	<path id="rect852-3" sodipodi:nodetypes="ssscccccscccccccccccss" class="st1" d="M44.4,15.5l4.6-4.6c0.3-0.3,0.8-0.3,1-0.1
		l2.2,2.2c0.9,0.9,2.4,0.3,2.4-1L54.7,9c0-0.4,0.4-0.8,0.8-0.8l4.2-0.1c0.2,0,0.3,0.1,0.4,0.2c0.1,0.1,0.2,0.2,0.2,0.4L60,21.4
		l-0.1,4.2c0,0.4-0.4,0.8-0.8,0.8l-4.2,0.1l-12.7,0.3c-0.4,0-0.6-0.2-0.6-0.6l0.1-4.2c0-0.4,0.4-0.8,0.8-0.8l3.1-0.1
		c1.2,0,1.8-1.5,1-2.4l-2.2-2.2C44.1,16.3,44.1,15.9,44.4,15.5z"/>
</g>
</svg>
