<?xml version="1.0" encoding="utf-8"?>
<!-- Generator: Adobe Illustrator 28.1.0, SVG Export Plug-In . SVG Version: 6.00 Build 0)  -->
<svg version="1.1"
	 id="Layer_1" xmlns:inkscape="http://www.inkscape.org/namespaces/inkscape" xmlns:sodipodi="http://sodipodi.sourceforge.net/DTD/sodipodi-0.dtd" xmlns:cc="http://creativecommons.org/ns#" xmlns:dc="http://purl.org/dc/elements/1.1/" xmlns:rdf="http://www.w3.org/1999/02/22-rdf-syntax-ns#" xmlns:svg="http://www.w3.org/2000/svg" inkscape:version="1.1 (c4e8f9ed74, 2021-05-24)"
	 xmlns="http://www.w3.org/2000/svg" xmlns:xlink="http://www.w3.org/1999/xlink" x="0px" y="0px" viewBox="0 0 64 64"
	 style="enable-background:new 0 0 64 64;" xml:space="preserve">
<style type="text/css">
	.st0{fill:#F0EBDC;stroke:#3F5464;stroke-width:6;}
	.st1{opacity:0.998;fill:#3F5464;enable-background:new    ;}
</style>
<sodipodi:namedview  bordercolor="#666666" borderopacity="1" gridtolerance="10" guidetolerance="10" id="namedview7" inkscape:bbox-nodes="true" inkscape:current-layer="Layer_1" inkscape:cx="25.385681" inkscape:cy="32.535797" inkscape:document-rotation="0" inkscape:pagecheckerboard="false" inkscape:pageopacity="1" inkscape:pageshadow="2" inkscape:snap-bbox="true" inkscape:snap-bbox-edge-midpoints="true" inkscape:snap-bbox-midpoints="true" inkscape:window-height="826" inkscape:window-maximized="1" inkscape:window-width="1600" inkscape:window-x="0" inkscape:window-y="0" inkscape:zoom="9.0208334" objecttolerance="10" pagecolor="#002b36" showgrid="false">
	</sodipodi:namedview>
<path id="path838" sodipodi:nodetypes="sssss" class="st0" d="M32,5C8,5-4,34.1,12.9,51.1c7.7,7.7,19.3,10,29.4,5.9
	C52.4,52.8,59,42.9,59,32C59,17.1,46.9,5,32,5z"/>
<circle id="path836" class="st1" cx="32" cy="31.4" r="5"/>
<path id="rect838" class="st1" d="M30,29.4v-16c0-1.1,0.9-2,2-2l0,0c1.1,0,2,0.9,2,2v16c0,1.1-0.9,2-2,2l0,0
	C30.9,31.4,30,30.6,30,29.4z"/>
<path id="rect842" class="st1" d="M40.4,42.6l-7.8-7.8c-0.8-0.8-0.8-2,0-2.8l0,0c0.8-0.8,2-0.8,2.8,0l7.8,7.8c0.8,0.8,0.8,2,0,2.8
	l0,0C42.4,43.4,41.1,43.4,40.4,42.6z"/>
</svg>
