<?xml version="1.0" encoding="utf-8"?>
<!-- Generator: Adobe Illustrator 28.1.0, SVG Export Plug-In . SVG Version: 6.00 Build 0)  -->
<svg version="1.1"
	 id="svg4160" xmlns:inkscape="http://www.inkscape.org/namespaces/inkscape" xmlns:sodipodi="http://sodipodi.sourceforge.net/DTD/sodipodi-0.dtd" xmlns:cc="http://creativecommons.org/ns#" xmlns:dc="http://purl.org/dc/elements/1.1/" xmlns:rdf="http://www.w3.org/1999/02/22-rdf-syntax-ns#" xmlns:svg="http://www.w3.org/2000/svg" inkscape:version="1.0.2 (e86c870879, 2021-01-15, custom)"
	 xmlns="http://www.w3.org/2000/svg" xmlns:xlink="http://www.w3.org/1999/xlink" x="0px" y="0px" viewBox="0 0 64 64"
	 style="enable-background:new 0 0 64 64;" xml:space="preserve">
<style type="text/css">
	
		.st0{opacity:0.998;fill:#6CCA98;stroke:#6CCA98;stroke-width:2;stroke-linecap:round;stroke-linejoin:round;stroke-miterlimit:6.139;enable-background:new    ;}
</style>
<sodipodi:namedview  bordercolor="#666666" borderopacity="1" gridtolerance="10" guidetolerance="10" id="namedview8" inkscape:current-layer="layer2" inkscape:cx="18.113804" inkscape:cy="31.11819" inkscape:document-rotation="0" inkscape:pageopacity="0" inkscape:pageshadow="2" inkscape:window-height="837" inkscape:window-maximized="1" inkscape:window-width="1600" inkscape:window-x="-8" inkscape:window-y="-8" inkscape:zoom="7.4010512" objecttolerance="10" pagecolor="#bfbfbf" showgrid="false">
	<inkscape:grid  id="grid832" type="xygrid"></inkscape:grid>
</sodipodi:namedview>
<g id="layer2" transform="translate(-3.5328446,2.2636422)">
	<g id="g847" transform="matrix(1.5307014,0,0,1.538797,-16.639595,-16.021863)">
		<path id="rect852" class="st0" d="M24.4,35.9l19.4-19.4c0.5-0.5,1.3-0.5,1.8,0l5.2,5.2c0.5,0.5,0.5,1.3,0,1.8L31.5,43
			c-0.5,0.5-1.3,0.5-1.8,0l-5.2-5.2C23.9,37.2,23.9,36.4,24.4,35.9z"/>
		<path id="rect854" class="st0" d="M29.6,43L17.3,30.7c-0.5-0.5-0.5-1.3,0-1.8l3.8-3.8c0.5-0.5,1.3-0.5,1.8,0l12.3,12.3
			c0.5,0.5,0.5,1.3,0,1.8L31.5,43C31,43.5,30.1,43.5,29.6,43z"/>
	</g>
</g>
</svg>
