<?xml version="1.0" encoding="utf-8"?>
<!-- Generator: Adobe Illustrator 28.1.0, SVG Export Plug-In . SVG Version: 6.00 Build 0)  -->
<svg version="1.1"
	 id="svg10" xmlns:inkscape="http://www.inkscape.org/namespaces/inkscape" xmlns:sodipodi="http://sodipodi.sourceforge.net/DTD/sodipodi-0.dtd" xmlns:cc="http://creativecommons.org/ns#" xmlns:dc="http://purl.org/dc/elements/1.1/" xmlns:rdf="http://www.w3.org/1999/02/22-rdf-syntax-ns#" xmlns:svg="http://www.w3.org/2000/svg" inkscape:version="1.1 (c4e8f9ed74, 2021-05-24)"
	 xmlns="http://www.w3.org/2000/svg" xmlns:xlink="http://www.w3.org/1999/xlink" x="0px" y="0px" viewBox="0 0 64 64"
	 style="enable-background:new 0 0 64 64;" xml:space="preserve">
<style type="text/css">
	.st0{fill:none;stroke:#8ABBD3;stroke-width:4;stroke-linecap:round;}
</style>
<sodipodi:namedview  bordercolor="#666666" borderopacity="1" gridtolerance="10" guidetolerance="10" id="namedview12" inkscape:current-layer="svg10" inkscape:cx="26.012022" inkscape:cy="33.998169" inkscape:document-rotation="0" inkscape:guide-bbox="true" inkscape:pagecheckerboard="false" inkscape:pageopacity="0.98039216" inkscape:pageshadow="2" inkscape:snap-bbox="true" inkscape:snap-bbox-edge-midpoints="true" inkscape:window-height="826" inkscape:window-maximized="1" inkscape:window-width="1600" inkscape:window-x="0" inkscape:window-y="0" inkscape:zoom="6.5738834" objecttolerance="10" pagecolor="#002b36" showgrid="false" showguides="true">
	<sodipodi:guide  id="guide4892" orientation="0,-1" position="7.5,32"></sodipodi:guide>
</sodipodi:namedview>
<g id="g7014">
	<g id="g6915">
		<path id="path4083" class="st0" d="M6,32h52"/>
		<path id="path4676" class="st0" d="M8.4,38.1l4.1-4.1"/>
		<path id="path4890" class="st0" d="M8.4,25.9l4.1,4.1"/>
	</g>
	<path id="path6919" class="st0" d="M55.6,38.1L51.5,34"/>
	<path id="path6921" class="st0" d="M55.6,25.9L51.5,30"/>
</g>
<g id="g7028" transform="rotate(90,32,32)">
	<g id="g7022">
		<path id="path7016" class="st0" d="M6,32h52"/>
		<path id="path7018" class="st0" d="M8.4,38.1l4.1-4.1"/>
		<path id="path7020" class="st0" d="M8.4,25.9l4.1,4.1"/>
	</g>
	<path id="path7024" class="st0" d="M55.6,38.1L51.5,34"/>
	<path id="path7026" class="st0" d="M55.6,25.9L51.5,30"/>
</g>
<g id="g7042" transform="rotate(45,32,32)">
	<g id="g7036">
		<path id="path7030" class="st0" d="M6,32h52"/>
		<path id="path7032" class="st0" d="M8.4,38.1l4.1-4.1"/>
		<path id="path7034" class="st0" d="M8.4,25.9l4.1,4.1"/>
	</g>
	<path id="path7038" class="st0" d="M55.6,38.1L51.5,34"/>
	<path id="path7040" class="st0" d="M55.6,25.9L51.5,30"/>
</g>
<g id="g7056" transform="rotate(135,32,32)">
	<g id="g7050">
		<path id="path7044" class="st0" d="M6,32h52"/>
		<path id="path7046" class="st0" d="M8.4,38.1l4.1-4.1"/>
		<path id="path7048" class="st0" d="M8.4,25.9l4.1,4.1"/>
	</g>
	<path id="path7052" class="st0" d="M55.6,38.1L51.5,34"/>
	<path id="path7054" class="st0" d="M55.6,25.9L51.5,30"/>
</g>
</svg>
