<?xml version="1.0" encoding="utf-8"?>
<!-- Generator: Adobe Illustrator 28.1.0, SVG Export Plug-In . SVG Version: 6.00 Build 0)  -->
<svg version="1.1"
	 id="svg2" xmlns:inkscape="http://www.inkscape.org/namespaces/inkscape" xmlns:sodipodi="http://sodipodi.sourceforge.net/DTD/sodipodi-0.dtd" xmlns:cc="http://creativecommons.org/ns#" xmlns:dc="http://purl.org/dc/elements/1.1/" xmlns:rdf="http://www.w3.org/1999/02/22-rdf-syntax-ns#" xmlns:svg="http://www.w3.org/2000/svg" inkscape:version="1.1 (c4e8f9ed74, 2021-05-24)"
	 xmlns="http://www.w3.org/2000/svg" xmlns:xlink="http://www.w3.org/1999/xlink" x="0px" y="0px" viewBox="0 0 64 64"
	 style="enable-background:new 0 0 64 64;" xml:space="preserve">
<style type="text/css">
	.st0{fill:#F0EBDC;}
	.st1{opacity:0.99;fill:#686AAC;enable-background:new    ;}
	.st2{fill:none;stroke:#3F5464;stroke-width:2;stroke-miterlimit:2.1429;}
	.st3{fill:#F0EBDC;stroke:#3F5464;stroke-width:2;stroke-linejoin:round;}
</style>
<sodipodi:namedview  bordercolor="#666666" borderopacity="1" gridtolerance="10" guidetolerance="10" id="namedview24" inkscape:current-layer="svg2" inkscape:cx="33.238014" inkscape:cy="30.745163" inkscape:document-rotation="0" inkscape:pagecheckerboard="false" inkscape:pageopacity="1" inkscape:pageshadow="2" inkscape:window-height="826" inkscape:window-maximized="1" inkscape:window-width="1600" inkscape:window-x="0" inkscape:window-y="0" inkscape:zoom="7.8223688" objecttolerance="10" pagecolor="#002b36" showgrid="false">
	</sodipodi:namedview>
<g id="g36" transform="matrix(0.53571428,0,0,-0.53571428,38.734464,2.0000003)">
	<path id="path38" inkscape:connector-curvature="0" class="st0" d="M0,0h-50.3c-3.5,0-6.3-2.8-6.3-6.2v-99.6c0-3.4,2.8-6.2,6.3-6.2
		h75.4c3.5,0,6.3,2.8,6.3,6.2v74.7L0,0z"/>
</g>
<circle id="path815" class="st1" cx="40" cy="46" r="14.5"/>
<path id="Run" inkscape:connector-curvature="0" class="st0" d="M45.9,45.1c-0.6-0.4-9.3-5.4-9.4-5.4c-0.1-0.1-0.3-0.1-0.4-0.1
	c-0.5,0-0.9,0.4-0.9,0.9c0,0,0,0,0,0c0,0.8,0,10.3,0,11.1c0,0.5,0.4,0.9,0.9,0.9c0.2,0,0.3,0,0.4-0.1c0.1-0.1,8.8-5,9.4-5.4
	c0.3-0.2,0.5-0.6,0.5-0.9C46.4,45.7,46.2,45.3,45.9,45.1L45.9,45.1z"/>
<g id="g841" transform="matrix(0.53571428,0,0,-0.53571428,38.734464,2.0000003)">
	<path id="path839" inkscape:connector-curvature="0" class="st2" d="M0,0h-50.3c-3.5,0-6.3-2.8-6.3-6.2v-99.6
		c0-3.4,2.8-6.2,6.3-6.2h75.4c3.5,0,6.3,2.8,6.3,6.2v74.7L0,0z"/>
</g>
<path id="path838" inkscape:connector-curvature="0" sodipodi:nodetypes="ccccc" class="st3" d="M42.1,18.6c-1.9,0-3.4-1.1-3.4-2.9
	V2l16.7,16.6H42.1z"/>
</svg>
