<?xml version="1.0" encoding="utf-8"?>
<!-- Generator: Adobe Illustrator 28.1.0, SVG Export Plug-In . SVG Version: 6.00 Build 0)  -->
<svg version="1.1"
	 id="svg4160" xmlns:inkscape="http://www.inkscape.org/namespaces/inkscape" xmlns:sodipodi="http://sodipodi.sourceforge.net/DTD/sodipodi-0.dtd" xmlns:cc="http://creativecommons.org/ns#" xmlns:dc="http://purl.org/dc/elements/1.1/" xmlns:rdf="http://www.w3.org/1999/02/22-rdf-syntax-ns#" xmlns:svg="http://www.w3.org/2000/svg" inkscape:version="1.0.2-2 (e86c870879, 2021-01-15)"
	 xmlns="http://www.w3.org/2000/svg" xmlns:xlink="http://www.w3.org/1999/xlink" x="0px" y="0px" viewBox="0 0 64 64"
	 style="enable-background:new 0 0 64 64;" xml:space="preserve">
<style type="text/css">
	.st0{fill:#DCDCDC;stroke:#DCDCDC;stroke-width:4;}
	.st1{fill:#3F5464;stroke:#3F5464;stroke-width:4;}
	.st2{fill:#A3A7AA;stroke:#A3A7AA;stroke-width:4;}
	.st3{fill:#CD817B;stroke:#CD817B;}
</style>
<sodipodi:namedview  bordercolor="#666666" borderopacity="1" gridtolerance="10" guidetolerance="10" id="namedview8" inkscape:current-layer="layer2" inkscape:cx="55.270688" inkscape:cy="33.561601" inkscape:document-rotation="0" inkscape:pageopacity="0" inkscape:pageshadow="2" inkscape:window-height="1018" inkscape:window-maximized="1" inkscape:window-width="1920" inkscape:window-x="-6" inkscape:window-y="-6" inkscape:zoom="7.4010512" objecttolerance="10" pagecolor="#ffffff" showgrid="false">
	<inkscape:grid  id="grid832" type="xygrid"></inkscape:grid>
</sodipodi:namedview>
<g id="layer2" transform="translate(-3.5328446,2.2636422)">
	<path id="rect832" sodipodi:nodetypes="sssssssss" class="st0" d="M16.5,11.7h38c1.7,0,3.2,1.3,3,3l-4,38c-0.2,1.7-1.3,3-3,3h-30
		c-1.7,0-2.8-1.3-3-3l-4-38C13.4,13.1,14.9,11.7,16.5,11.7z"/>
	<path id="rect862" class="st1" d="M30.5,3.7h10c1.7,0,3,1.3,3,3l0,0c0,1.7-1.3,3-3,3h-10c-1.7,0-3-1.3-3-3l0,0
		C27.5,5.1,28.9,3.7,30.5,3.7z"/>
	<path id="rect860" class="st2" d="M13,9.7h45c1.7,0,3,1.3,3,3l0,0c0,1.7-1.3,3-3,3H13c-1.7,0-3-1.3-3-3l0,0
		C10,11.1,11.4,9.7,13,9.7z"/>
	<g id="g901" transform="matrix(0,-0.61075572,0.61075572,0,14.799256,98.653237)">
		<path id="rect891" class="st3" d="M125,21.4L89.1,57.3c-1.3,1.3-3.4,1.3-4.6,0l-6.2-6.2c-1.3-1.3-1.3-3.4,0-4.6l35.9-35.9
			c1.3-1.3,3.4-1.3,4.6,0l6.2,6.2C126.3,18.1,126.3,20.1,125,21.4z"/>
		<path id="rect897" class="st3" d="M114.2,57.3L78.3,21.4c-1.3-1.3-1.3-3.4,0-4.6l6.2-6.2c1.3-1.3,3.4-1.3,4.6,0L125,46.5
			c1.3,1.3,1.3,3.4,0,4.6l-6.2,6.2C117.5,58.6,115.4,58.6,114.2,57.3z"/>
	</g>
</g>
</svg>
