<?xml version="1.0" encoding="utf-8"?>
<!-- Generator: Adobe Illustrator 28.1.0, SVG Export Plug-In . SVG Version: 6.00 Build 0)  -->
<svg version="1.1"
	 id="svg2" xmlns:inkscape="http://www.inkscape.org/namespaces/inkscape" xmlns:sodipodi="http://sodipodi.sourceforge.net/DTD/sodipodi-0.dtd" xmlns:cc="http://creativecommons.org/ns#" xmlns:dc="http://purl.org/dc/elements/1.1/" xmlns:rdf="http://www.w3.org/1999/02/22-rdf-syntax-ns#" xmlns:svg="http://www.w3.org/2000/svg" inkscape:version="1.4.4 (dcaf3e7d9e, 2026-05-05)"
	 xmlns="http://www.w3.org/2000/svg" xmlns:xlink="http://www.w3.org/1999/xlink" x="0px" y="0px" viewBox="0 0 64 64"
	 style="enable-background:new 0 0 64 64;" xml:space="preserve">
<style type="text/css">
	.st0{fill:#F0EBDC;}
	.st1{fill:none;stroke:#3F5464;stroke-width:2;stroke-miterlimit:2.1429;}
	.st2{fill:#F0EBDC;stroke:#3F5464;stroke-width:2;stroke-linejoin:round;}
	.st3{fill:#3F5464;stroke:#3F5464;stroke-width:0.3915;stroke-linecap:round;stroke-linejoin:bevel;}
	.st4{fill:#686AAC;}
	.st5{fill:#3F5464;stroke:#3F5464;stroke-width:0.7831;stroke-linejoin:round;}
	.st6{fill:#F0EBDC;stroke:#F0EBDC;stroke-width:0.7831;stroke-linecap:round;stroke-linejoin:round;}
	.st7{fill:#A3A7AA;}
	.st8{fill:none;stroke:#3F5464;stroke-width:2;stroke-linecap:round;}
</style>
<sodipodi:namedview  bordercolor="#666666" borderopacity="1" gridtolerance="10" guidetolerance="10" id="namedview24" inkscape:current-layer="svg2" inkscape:cx="26.079057" inkscape:cy="37.00925" inkscape:deskcolor="#d1d1d1" inkscape:document-rotation="0" inkscape:pagecheckerboard="false" inkscape:pageopacity="1" inkscape:pageshadow="2" inkscape:showpageshadow="2" inkscape:window-height="792" inkscape:window-maximized="1" inkscape:window-width="1536" inkscape:window-x="0" inkscape:window-y="0" inkscape:zoom="7.8223688" objecttolerance="10" pagecolor="#002b36" showgrid="false">
	</sodipodi:namedview>
<g id="g36" transform="matrix(0.53571428,0,0,-0.53571428,38.734464,2.0000003)">
	<path id="path38" inkscape:connector-curvature="0" class="st0" d="M0,0h-50.3c-3.5,0-6.3-2.8-6.3-6.2v-99.6c0-3.4,2.8-6.2,6.3-6.2
		h75.4c3.5,0,6.3,2.8,6.3,6.2v74.7L0,0z"/>
</g>
<g id="g841" transform="matrix(0.53571428,0,0,-0.53571428,38.734464,2.0000003)">
	<path id="path839" inkscape:connector-curvature="0" class="st1" d="M0,0h-50.3c-3.5,0-6.3-2.8-6.3-6.2v-99.6
		c0-3.4,2.8-6.2,6.3-6.2h75.4c3.5,0,6.3,2.8,6.3,6.2v74.7L0,0z"/>
</g>
<path id="path838" inkscape:connector-curvature="0" sodipodi:nodetypes="ccccc" class="st2" d="M42.1,18.6c-1.9,0-3.4-1.1-3.4-2.9
	V2l16.7,16.6H42.1z"/>
<g id="g1" transform="matrix(0.46644166,-0.70831408,0.46803853,0.70589742,4.034721,44.33058)">
	<g id="path12">
	</g>
	<path id="rect11" sodipodi:nodetypes="scccscccscccssssc" class="st3" d="M29.9,32.3c-0.4-0.1-2.6-0.4-2.8-0.1l-7.6,2.2l9.2,5.6
		c0.3,0.3,2.6,1,3,1.1L50.8,45l-1.9-8.8l0,0L29.9,32.3z M51,36.7l1.9,8.8c0,0,0,0,0,0l3.3,0.7c0.7,0.2,1.2-0.3,1.1-1.1L56,39
		c-0.1-0.7-0.9-1.5-1.6-1.6L51,36.7z"/>
	
		<rect id="rect20" x="30.8" y="34.6" transform="matrix(-0.9795 -0.2017 0.2017 -0.9795 70.7112 84.0178)" class="st4" width="17.7" height="7.7"/>
	<g id="path14" transform="matrix(0.04303704,-0.08165666,0.08143808,0.1069941,-20.946208,-38.424796)">
		<path id="path18" sodipodi:nodetypes="cccc" class="st0" d="M-124.9,589.4l68.8,36.5l-32.5,32.4L-124.9,589.4z"/>
	</g>
	<path id="path15" sodipodi:nodetypes="cccc" class="st5" d="M19.5,34.4l5.1,2.9l-0.8-3.9L19.5,34.4z"/>
	<path id="path19" class="st6" d="M31.9,34.5l14.4,3"/>
	
		<rect id="rect19" x="49.6" y="37" transform="matrix(-1 -3.695517e-03 3.695517e-03 -1 101.6418 81.9024)" class="st7" width="2.5" height="7.7"/>
</g>
<path id="path837" class="st8" d="M16.7,26.9h17.6"/>
<path id="path837-0" class="st8" d="M16.7,32.8h17.6"/>
<path id="path837-0-2" class="st8" d="M16.7,38.6h13.7"/>
</svg>
