<?xml version="1.0" encoding="utf-8"?>
<!-- Generator: Adobe Illustrator 28.1.0, SVG Export Plug-In . SVG Version: 6.00 Build 0)  -->
<svg version="1.1"
	 id="svg4" xmlns:inkscape="http://www.inkscape.org/namespaces/inkscape" xmlns:sodipodi="http://sodipodi.sourceforge.net/DTD/sodipodi-0.dtd" xmlns:cc="http://creativecommons.org/ns#" xmlns:dc="http://purl.org/dc/elements/1.1/" xmlns:rdf="http://www.w3.org/1999/02/22-rdf-syntax-ns#" xmlns:svg="http://www.w3.org/2000/svg" inkscape:version="1.0.2 (e86c870879, 2021-01-15, custom)"
	 xmlns="http://www.w3.org/2000/svg" xmlns:xlink="http://www.w3.org/1999/xlink" x="0px" y="0px" viewBox="0 0 64 64"
	 style="enable-background:new 0 0 64 64;" xml:space="preserve">
<style type="text/css">
	.st0{fill:#CD817B;}
	.st1{fill:#F0EBDC;stroke:#F0EBDC;stroke-width:2;stroke-linecap:round;stroke-linejoin:round;}
</style>
<sodipodi:namedview  bordercolor="#666666" borderopacity="1" gridtolerance="10" guidetolerance="10" id="namedview6" inkscape:current-layer="svg4" inkscape:cx="32.60233" inkscape:cy="41.792032" inkscape:document-rotation="0" inkscape:pageopacity="0" inkscape:pageshadow="2" inkscape:window-height="837" inkscape:window-maximized="1" inkscape:window-width="1600" inkscape:window-x="-8" inkscape:window-y="-8" inkscape:zoom="5.4305801" objecttolerance="10" pagecolor="#ffffff" showgrid="false">
	</sodipodi:namedview>
<g id="g838" transform="translate(2,2)">
	<path id="path2" sodipodi:nodetypes="csssccsccscccsccscc" class="st0" d="M30,7.5C17.6,7.5,7.5,17.6,7.5,30S17.6,52.5,30,52.5
		S52.5,42.4,52.5,30S42.4,7.5,30,7.5 M51.2,51.2c5.4-5.5,8.8-13,8.8-21.2s-3.3-15.8-8.8-21.2l-2.7,2.7c4.8,4.8,7.7,11.3,7.7,18.5
		c0,7.2-3,13.8-7.7,18.5L51.2,51.2 M11.5,48.5C6.7,43.8,3.8,37.2,3.8,30c0-7.2,2.9-13.8,7.7-18.5L8.8,8.8C3.3,14.2,0,21.7,0,30
		s3.3,15.8,8.8,21.2L11.5,48.5z"/>
	<g id="g837" transform="translate(0,2)">
		<path id="path833" sodipodi:nodetypes="ccccc" class="st1" d="M27,13h6v18h-6V13"/>
		<path id="path831" sodipodi:nodetypes="ccccc" class="st1" d="M27,37h6v6h-6V37"/>
	</g>
</g>
</svg>
