<?xml version="1.0" encoding="utf-8"?>
<!-- Generator: Adobe Illustrator 28.1.0, SVG Export Plug-In . SVG Version: 6.00 Build 0)  -->
<svg version="1.1"
	 id="svg57" xmlns:inkscape="http://www.inkscape.org/namespaces/inkscape" xmlns:sodipodi="http://sodipodi.sourceforge.net/DTD/sodipodi-0.dtd" xmlns:cc="http://creativecommons.org/ns#" xmlns:dc="http://purl.org/dc/elements/1.1/" xmlns:rdf="http://www.w3.org/1999/02/22-rdf-syntax-ns#" xmlns:svg="http://www.w3.org/2000/svg" inkscape:version="1.3 (0e150ed6c4, 2023-07-21)"
	 xmlns="http://www.w3.org/2000/svg" xmlns:xlink="http://www.w3.org/1999/xlink" x="0px" y="0px" viewBox="0 0 64 64"
	 style="enable-background:new 0 0 64 64;" xml:space="preserve">
<style type="text/css">
	.st0{opacity:0.998;fill:#A3A7AA;enable-background:new    ;}
	.st1{opacity:0.998;fill:#DCDCDC;enable-background:new    ;}
	.st2{fill:#3F5464;}
	.st3{opacity:0.998;fill:#3F5464;enable-background:new    ;}
	.st4{fill-rule:evenodd;clip-rule:evenodd;fill:#F0EBDC;}
</style>
<rect id="rect1033" x="7" y="32.4" class="st0" width="50" height="18"/>
<rect id="rect1035" x="19.6" y="32.4" class="st1" width="25" height="18"/>
<path id="path1037" sodipodi:nodetypes="ccccc" class="st2" d="M19.5,50.4h25l-8.3,10h-8.3L19.5,50.4z"/>
<rect id="rect1039" x="16.1" y="22.4" class="st3" width="32" height="10"/>
<path id="rect1055" class="st3" d="M11.6,12.4h41c1.1,0,2,0.9,2,2v6c0,1.1-0.9,2-2,2h-41c-1.1,0-2-0.9-2-2v-6
	C9.6,13.3,10.5,12.4,11.6,12.4z"/>
<rect id="rect1065" x="9.6" y="4.4" class="st3" width="45" height="10"/>
<circle id="circle46" class="st4" cx="32" cy="15.8" r="15.8"/>
<sodipodi:namedview  bordercolor="#666666" borderopacity="1" gridtolerance="10" guidetolerance="10" id="namedview59" inkscape:current-layer="svg57" inkscape:cx="26.700647" inkscape:cy="12.567718" inkscape:deskcolor="#d1d1d1" inkscape:document-rotation="0" inkscape:pagecheckerboard="false" inkscape:pageopacity="1" inkscape:pageshadow="2" inkscape:showpageshadow="0" inkscape:snap-bbox="true" inkscape:snap-bbox-edge-midpoints="true" inkscape:window-height="827" inkscape:window-maximized="1" inkscape:window-width="1600" inkscape:window-x="0" inkscape:window-y="0" inkscape:zoom="10.86116" objecttolerance="10" pagecolor="#073642" showgrid="false">
	</sodipodi:namedview>
<g id="_x31_" transform="translate(0,-16.25)">
</g>
<path id="text1" class="st3" d="M39.1,19.2c0,2.1-0.6,3.8-1.8,5.1c-1.2,1.2-2.9,1.8-5,1.8c-2.4,0-4.2-0.8-5.5-2.5
	c-1.3-1.7-1.9-4.1-1.9-7.4c0-3.6,0.6-6.3,1.9-8.1c1.3-1.8,3.2-2.7,5.6-2.7c1.7,0,3.1,0.4,4,1.1c1,0.8,1.7,1.9,2.1,3.5l-3.8,0.5
	c-0.4-1.3-1.2-2-2.4-2c-1.1,0-1.9,0.5-2.5,1.6c-0.6,1.1-0.9,2.7-0.9,4.9c0.4-0.7,1-1.3,1.8-1.6c0.8-0.4,1.6-0.6,2.6-0.6
	c1.8,0,3.2,0.6,4.3,1.7S39.1,17.3,39.1,19.2z M35.1,19.4c0-1.1-0.3-2-0.8-2.6c-0.5-0.6-1.3-0.9-2.2-0.9c-0.9,0-1.6,0.3-2.1,0.9
	c-0.5,0.6-0.8,1.3-0.8,2.2c0,1.2,0.3,2.1,0.8,2.9c0.6,0.8,1.3,1.1,2.2,1.1c0.9,0,1.6-0.3,2.1-1C34.8,21.4,35.1,20.5,35.1,19.4z"/>
</svg>
