<?xml version="1.0" encoding="utf-8"?>
<!-- Generator: Adobe Illustrator 28.1.0, SVG Export Plug-In . SVG Version: 6.00 Build 0)  -->
<svg version="1.1"
	 id="svg57" xmlns:inkscape="http://www.inkscape.org/namespaces/inkscape" xmlns:sodipodi="http://sodipodi.sourceforge.net/DTD/sodipodi-0.dtd" xmlns:cc="http://creativecommons.org/ns#" xmlns:dc="http://purl.org/dc/elements/1.1/" xmlns:rdf="http://www.w3.org/1999/02/22-rdf-syntax-ns#" xmlns:svg="http://www.w3.org/2000/svg" inkscape:version="1.3 (0e150ed6c4, 2023-07-21)"
	 xmlns="http://www.w3.org/2000/svg" xmlns:xlink="http://www.w3.org/1999/xlink" x="0px" y="0px" viewBox="0 0 64 64"
	 style="enable-background:new 0 0 64 64;" xml:space="preserve">
<style type="text/css">
	.st0{opacity:0.998;fill:#A3A7AA;enable-background:new    ;}
	.st1{opacity:0.998;fill:#DCDCDC;enable-background:new    ;}
	.st2{fill:#3F5464;}
	.st3{opacity:0.998;fill:#3F5464;enable-background:new    ;}
	.st4{fill-rule:evenodd;clip-rule:evenodd;fill:#F0EBDC;}
</style>
<rect id="rect1033" x="7" y="32.4" class="st0" width="50" height="18"/>
<rect id="rect1035" x="19.6" y="32.4" class="st1" width="25" height="18"/>
<path id="path1037" sodipodi:nodetypes="ccccc" class="st2" d="M19.5,50.4h25l-8.3,10h-8.3L19.5,50.4z"/>
<rect id="rect1039" x="16.1" y="22.4" class="st3" width="32" height="10"/>
<path id="rect1055" class="st3" d="M11.6,12.4h41c1.1,0,2,0.9,2,2v6c0,1.1-0.9,2-2,2h-41c-1.1,0-2-0.9-2-2v-6
	C9.6,13.3,10.5,12.4,11.6,12.4z"/>
<rect id="rect1065" x="9.6" y="4.4" class="st3" width="45" height="10"/>
<circle id="circle46" class="st4" cx="32" cy="15.8" r="15.8"/>
<sodipodi:namedview  bordercolor="#666666" borderopacity="1" gridtolerance="10" guidetolerance="10" id="namedview59" inkscape:current-layer="svg57" inkscape:cx="26.700647" inkscape:cy="12.567718" inkscape:deskcolor="#d1d1d1" inkscape:document-rotation="0" inkscape:pagecheckerboard="false" inkscape:pageopacity="1" inkscape:pageshadow="2" inkscape:showpageshadow="0" inkscape:snap-bbox="true" inkscape:snap-bbox-edge-midpoints="true" inkscape:window-height="827" inkscape:window-maximized="1" inkscape:window-width="1600" inkscape:window-x="0" inkscape:window-y="0" inkscape:zoom="10.86116" objecttolerance="10" pagecolor="#073642" showgrid="false">
	</sodipodi:namedview>
<g id="_x31_" transform="translate(0,-16.25)">
</g>
<path id="text1" class="st3" d="M39,15.8c0,3.4-0.6,6-1.8,7.7c-1.2,1.8-2.9,2.6-5.3,2.6c-4.6,0-6.9-3.5-6.9-10.4
	c0-2.4,0.3-4.4,0.8-5.9c0.5-1.5,1.3-2.7,2.3-3.4s2.3-1.1,4-1.1c2.4,0,4.1,0.9,5.2,2.6C38.4,9.7,39,12.3,39,15.8z M34.9,15.8
	c0-1.9-0.1-3.3-0.3-4.3c-0.2-1-0.5-1.8-0.9-2.2c-0.4-0.4-1-0.7-1.7-0.7c-0.8,0-1.4,0.2-1.8,0.7c-0.4,0.4-0.7,1.2-0.9,2.2
	c-0.2,1-0.3,2.5-0.3,4.3c0,1.8,0.1,3.3,0.3,4.3c0.2,1,0.5,1.8,0.9,2.2c0.4,0.4,1,0.7,1.8,0.7c0.8,0,1.4-0.2,1.8-0.7
	c0.4-0.5,0.7-1.2,0.9-2.3C34.8,18.9,34.9,17.5,34.9,15.8z"/>
</svg>
