<?xml version="1.0" encoding="utf-8"?>
<!-- Generator: Adobe Illustrator 28.1.0, SVG Export Plug-In . SVG Version: 6.00 Build 0)  -->
<svg version="1.1"
	 id="svg4160" xmlns:inkscape="http://www.inkscape.org/namespaces/inkscape" xmlns:sodipodi="http://sodipodi.sourceforge.net/DTD/sodipodi-0.dtd" xmlns:cc="http://creativecommons.org/ns#" xmlns:dc="http://purl.org/dc/elements/1.1/" xmlns:rdf="http://www.w3.org/1999/02/22-rdf-syntax-ns#" xmlns:svg="http://www.w3.org/2000/svg" inkscape:version="1.0.2 (e86c870879, 2021-01-15, custom)"
	 xmlns="http://www.w3.org/2000/svg" xmlns:xlink="http://www.w3.org/1999/xlink" x="0px" y="0px" viewBox="0 0 64 60"
	 style="enable-background:new 0 0 64 60;" xml:space="preserve">
<style type="text/css">
	.st0{fill:none;stroke:#F0EBDC;stroke-width:4;stroke-linecap:round;}
	.st1{opacity:0.998;fill:#A3A7AA;enable-background:new    ;}
	.st2{opacity:0.998;fill:#DCDCDC;enable-background:new    ;}
	.st3{opacity:0.998;fill:#3F5464;enable-background:new    ;}
</style>
<sodipodi:namedview  bordercolor="#666666" borderopacity="1" gridtolerance="10" guidetolerance="10" id="namedview12" inkscape:bbox-nodes="true" inkscape:bbox-paths="true" inkscape:current-layer="svg4160" inkscape:cx="31.515222" inkscape:cy="36.64547" inkscape:document-rotation="0" inkscape:object-paths="true" inkscape:pagecheckerboard="false" inkscape:pageopacity="0" inkscape:pageshadow="2" inkscape:snap-bbox="true" inkscape:snap-bbox-edge-midpoints="true" inkscape:snap-bbox-midpoints="true" inkscape:snap-intersection-paths="true" inkscape:window-height="837" inkscape:window-maximized="1" inkscape:window-width="1600" inkscape:window-x="-8" inkscape:window-y="-8" inkscape:zoom="7.4010512" objecttolerance="10" pagecolor="#bfbfbf" showgrid="false">
	</sodipodi:namedview>
<path id="path969" sodipodi:nodetypes="ccsssc" class="st0" d="M40.7,58H18.3c-3.1-2.5,12.1-3.3,19.9-3.1c6.2,0.2-8.9-4.6-15.8-7.5
	c-3.5-1.5,11.5-1.1,10-6.3c-0.6-2.2-0.6-9.5-0.6-9.5"/>
<rect id="rect1033" x="17" y="15.4" class="st1" width="30" height="10.8"/>
<rect id="rect1035" x="24.6" y="15.4" class="st2" width="15" height="10.8"/>
<path id="path1037" class="st3" d="M24.5,26.2h15l-5,6h-5L24.5,26.2z"/>
<rect id="rect1039" x="22.5" y="9.3" class="st3" width="19.2" height="6"/>
<path id="rect1055" class="st3" d="M20.6,3.3h23c1.1,0,2,0.9,2,2v2c0,1.1-0.9,2-2,2h-23c-1.1,0-2-0.9-2-2v-2
	C18.6,4.2,19.5,3.3,20.6,3.3z"/>
<rect id="rect1065" x="18.6" y="0.4" class="st3" width="27" height="6"/>
</svg>
