<?xml version="1.0" encoding="utf-8"?>
<!-- Generator: Adobe Illustrator 28.1.0, SVG Export Plug-In . SVG Version: 6.00 Build 0)  -->
<svg version="1.1"
	 id="svg4160" xmlns:inkscape="http://www.inkscape.org/namespaces/inkscape" xmlns:sodipodi="http://sodipodi.sourceforge.net/DTD/sodipodi-0.dtd" xmlns:cc="http://creativecommons.org/ns#" xmlns:dc="http://purl.org/dc/elements/1.1/" xmlns:rdf="http://www.w3.org/1999/02/22-rdf-syntax-ns#" xmlns:svg="http://www.w3.org/2000/svg" inkscape:version="1.1 (c4e8f9ed74, 2021-05-24)"
	 xmlns="http://www.w3.org/2000/svg" xmlns:xlink="http://www.w3.org/1999/xlink" x="0px" y="0px" viewBox="0 0 64 64"
	 style="enable-background:new 0 0 64 64;" xml:space="preserve">
<style type="text/css">
	.st0{filter:url(#filter886);}
	.st1{opacity:0.999;}
	.st2{fill-rule:evenodd;clip-rule:evenodd;fill:#F0EBDC;}
</style>
<filter  height="1.0894078" id="filter886" inkscape:collect="always" style="color-interpolation-filters:sRGB" width="1.0892272" x="-0.044613594" y="-0.044703876">
	<feGaussianBlur  id="feGaussianBlur888" inkscape:collect="always" stdDeviation="0.84158155"></feGaussianBlur>
</filter>
<sodipodi:namedview  bordercolor="#666666" borderopacity="1" gridtolerance="10" guidetolerance="10" id="namedview8" inkscape:current-layer="path4929-5" inkscape:cx="31.946218" inkscape:cy="32" inkscape:document-rotation="0" inkscape:pagecheckerboard="false" inkscape:pageopacity="1" inkscape:pageshadow="2" inkscape:window-height="826" inkscape:window-maximized="1" inkscape:window-width="1600" inkscape:window-x="0" inkscape:window-y="0" inkscape:zoom="9.296875" objecttolerance="10" pagecolor="#002b36" showgrid="false">
	</sodipodi:namedview>
<g id="g838" transform="matrix(0.79634971,0.92373952,-0.92381057,0.79628846,31.174178,-24.50183)" class="st0">
</g>
<g id="layer10" transform="matrix(1.2196716,0,0,1.2195778,-11.338425,-4.2658026)" class="st1">
	<g id="path4929-5" transform="translate(3.5328446,-2.2636422)">
		<path id="path855" class="st2" d="M31.3,9.3c-1.1,0-3.1,0.2-3.1,0.2l-1,0.1l0.6,0.7c0,0,1.2,1.3,1.6,2c0.4,0.7,0.8,1.4,1,2.2
			c0.3,0.9,0.5,2,0.7,3c0,0.2,0,0.5,0,0.9c0,0.4,0,0.8,0.3,1.2c0.2,0.2,0.5,0.4,0.7,0.6c-0.1,0-0.3-0.1-0.4-0.1
			c-1.6,0-3.2,0.4-4.6,1.1c0.3-0.4,1-1.1,1-1.1l0.2-0.3l-0.2-0.3c0,0-1.8-2.4-3-3.5c-1.1-1-2.4-2.4-4.1-2.7c-1-0.1-1.8,0.4-2.5,0.7
			c-1.5,0.8-2.7,1.9-3.8,3.1c-1.1,1.3-2,2.8-2.8,4.2c-0.5,1-1.3,2.8-1.3,2.8l-0.4,0.9l0.9-0.2c0,0,1.7-0.4,2.5-0.4
			c0.8,0,1.6,0,2.4,0.1c1,0.2,2,0.5,3,0.8c0.2,0.1,0.5,0.2,0.8,0.4c0.3,0.2,0.7,0.4,1.2,0.3c0.3-0.1,0.6-0.3,0.9-0.4
			c-1,1.5-1.6,3.2-1.8,5c-0.1-0.3-0.4-1.3-0.4-1.3l-0.1-0.3l-0.4,0c0,0-3,0.2-4.6,0.7c-1.4,0.4-3.3,0.7-4.5,2.1
			c-0.6,0.8-0.7,1.7-0.7,2.5c-0.1,1.6,0.2,3.3,0.6,4.8c0.5,1.7,1.3,3.1,2.1,4.6c0.5,0.9,1.7,2.6,1.7,2.6l0.6,0.8l0.3-0.9
			c0,0,0.6-1.7,1-2.3c0.4-0.7,0.9-1.4,1.4-2c0.7-0.8,1.5-1.4,2.3-2.1c0.2-0.1,0.5-0.3,0.8-0.4s0.7-0.4,0.9-0.9
			c0.2-0.4,0.2-0.9,0.2-1.3c0.9,1.8,2.3,3.3,3.9,4.4c-0.6-0.1-1.8-0.3-1.8-0.3l-0.4,0l-0.1,0.3c0,0-1.2,2.7-1.6,4.4
			c-0.3,1.5-1,3.2-0.3,4.9c0.4,0.9,1.2,1.4,1.8,1.8c1.4,0.9,3,1.4,4.5,1.8c1.7,0.4,3.4,0.3,5,0.3c1.1,0,3.1-0.3,3.1-0.3l1-0.1
			l-0.6-0.7c0,0-1.2-1.3-1.6-2c-0.4-0.7-0.8-1.4-1.1-2.2c-0.3-0.9-0.6-2-0.8-3c0-0.2,0-0.5,0-0.9c0-0.4,0-0.8-0.4-1.2
			c-0.3-0.4-0.9-0.6-1.3-0.9c0.3,0,0.5,0.1,0.8,0.1c1.7,0,3.4-0.5,4.9-1.2c-0.3,0.4-1.1,1.3-1.1,1.3l-0.2,0.3l0.2,0.3
			c0,0,1.8,2.4,3,3.5c1.1,1,2.3,2.4,4.1,2.7c1,0.1,1.8-0.4,2.5-0.7c1.5-0.8,2.7-1.9,3.8-3.1c1.2-1.3,2-2.8,2.8-4.2
			c0.5-0.9,1.3-2.8,1.3-2.8l0.4-0.9l-0.9,0.2c0,0-1.7,0.4-2.5,0.4c-0.8,0-1.6,0-2.4-0.2c-1-0.2-2-0.5-3-0.8
			c-0.2-0.1-0.5-0.3-0.8-0.4s-0.7-0.4-1.2-0.3c-0.4,0.1-0.8,0.3-1.2,0.5c1-1.6,1.7-3.3,1.8-5.1c0.2,0.6,0.6,1.6,0.6,1.6l0.1,0.3
			l0.4,0c0,0,3-0.3,4.6-0.7c1.4-0.4,3.3-0.8,4.4-2.1c0.6-0.8,0.6-1.7,0.7-2.5c0.1-1.6-0.2-3.3-0.7-4.8c-0.5-1.6-1.4-3.1-2.2-4.5
			c-0.5-0.9-1.7-2.6-1.7-2.6l-0.6-0.8l-0.3,0.9c0,0-0.6,1.7-0.9,2.3c-0.4,0.7-0.8,1.4-1.4,2c-0.7,0.8-1.4,1.4-2.3,2.1
			c-0.2,0.1-0.5,0.3-0.8,0.5s-0.7,0.4-0.9,0.9c-0.2,0.4-0.1,0.9-0.1,1.4c-0.8-1.7-1.9-3.1-3.4-4.3c0.3,0,1.3,0.3,1.3,0.3l0.4,0
			l0.1-0.3c0,0,1.3-2.7,1.6-4.3c0.3-1.5,1-3.2,0.3-4.9c-0.3-0.9-1.2-1.4-1.8-1.8c-1.4-0.9-3-1.4-4.5-1.8C34.7,9.3,33,9.3,31.3,9.3z
			 M32,26.1c3.4,0,6.1,2.6,6.1,5.9c0,3.3-2.7,5.9-6.1,5.9c-3.4,0-6.1-2.6-6.1-5.9C25.9,28.7,28.6,26.1,32,26.1z"/>
	</g>
</g>
</svg>
