<?xml version="1.0" encoding="utf-8"?>
<!-- Generator: Adobe Illustrator 28.1.0, SVG Export Plug-In . SVG Version: 6.00 Build 0)  -->
<svg version="1.1"
	 id="svg4160" xmlns:inkscape="http://www.inkscape.org/namespaces/inkscape" xmlns:sodipodi="http://sodipodi.sourceforge.net/DTD/sodipodi-0.dtd" xmlns:cc="http://creativecommons.org/ns#" xmlns:dc="http://purl.org/dc/elements/1.1/" xmlns:rdf="http://www.w3.org/1999/02/22-rdf-syntax-ns#" xmlns:svg="http://www.w3.org/2000/svg" inkscape:version="1.1 (c4e8f9ed74, 2021-05-24)"
	 xmlns="http://www.w3.org/2000/svg" xmlns:xlink="http://www.w3.org/1999/xlink" x="0px" y="0px" viewBox="0 0 64 64"
	 style="enable-background:new 0 0 64 64;" xml:space="preserve">
<style type="text/css">
	.st0{fill:none;stroke:#F0EBDC;stroke-width:3.9989;stroke-miterlimit:5.1451;}
	.st1{fill:none;stroke:#F0EBDC;stroke-width:4;}
</style>
<sodipodi:namedview  bordercolor="#666666" borderopacity="1" gridtolerance="10" guidetolerance="10" id="namedview9" inkscape:current-layer="svg4160" inkscape:cx="27.158304" inkscape:cy="35.467935" inkscape:document-rotation="0" inkscape:pagecheckerboard="false" inkscape:pageopacity="1" inkscape:pageshadow="2" inkscape:window-height="826" inkscape:window-maximized="1" inkscape:window-width="1600" inkscape:window-x="0" inkscape:window-y="0" inkscape:zoom="7.4010512" objecttolerance="10" pagecolor="#002b36" showgrid="false">
	</sodipodi:namedview>
<path id="path831" sodipodi:argument="-18.709057" sodipodi:cx="38.312099" sodipodi:cy="27.515923" sodipodi:expansion="1" sodipodi:radius="22.251232" sodipodi:revolution="3.9778199" sodipodi:t0="0.10055753" sodipodi:type="spiral" class="st0" d="
	M27.1,35.8c-1.7-1.5-1.2-4.1,0.4-5.5c2.4-2.1,6.1-1.3,7.9,1.1c2.5,3.3,1.4,8-1.8,10.3c-4.1,3-10,1.5-12.8-2.6
	c-3.4-5-1.6-11.9,3.3-15.2C29.9,20,38,22.2,41.7,28c4.3,6.8,1.8,15.9-4.8,20.1c-7.6,4.8-17.8,2-22.5-5.6c-5.3-8.5-2.1-19.8,6.3-24.9
	c9.4-5.7,21.8-2.2,27.4,7.1c6.2,10.2,2.3,23.8-7.8,29.8C29.1,61.1,14.5,56.9,8,45.9c-7.1-12-2.6-27.7,9.3-34.7
	C30.1,3.7,47,8.5,54.4,21.3c2.3,4,3.7,8.6,3.8,13.2"/>
<path id="path833" class="st1" d="M58.2,34v23"/>
</svg>
