<?xml version="1.0" encoding="utf-8"?>
<!-- Generator: Adobe Illustrator 28.1.0, SVG Export Plug-In . SVG Version: 6.00 Build 0)  -->
<svg version="1.1"
	 id="svg2" xmlns:inkscape="http://www.inkscape.org/namespaces/inkscape" xmlns:sodipodi="http://sodipodi.sourceforge.net/DTD/sodipodi-0.dtd" xmlns:cc="http://creativecommons.org/ns#" xmlns:dc="http://purl.org/dc/elements/1.1/" xmlns:rdf="http://www.w3.org/1999/02/22-rdf-syntax-ns#" xmlns:svg="http://www.w3.org/2000/svg" inkscape:version="1.1 (c4e8f9ed74, 2021-05-24)"
	 xmlns="http://www.w3.org/2000/svg" xmlns:xlink="http://www.w3.org/1999/xlink" x="0px" y="0px" viewBox="0 0 64 64"
	 style="enable-background:new 0 0 64 64;" xml:space="preserve">
<style type="text/css">
	.st0{fill:#F0EBDC;stroke:#3F5464;stroke-width:2.667;}
	.st1{fill:#F0EBDC;stroke:#3F5464;stroke-width:2;}
	.st2{fill:#F0EBDC;stroke:#3F5464;stroke-width:2;stroke-linejoin:round;}
</style>
<sodipodi:namedview  bordercolor="#666666" borderopacity="1" gridtolerance="10" guidetolerance="10" id="namedview24" inkscape:current-layer="svg2" inkscape:cx="26.462572" inkscape:cy="34.068964" inkscape:document-rotation="0" inkscape:pagecheckerboard="false" inkscape:pageopacity="1" inkscape:pageshadow="2" inkscape:window-height="826" inkscape:window-maximized="1" inkscape:window-width="1600" inkscape:window-x="0" inkscape:window-y="0" inkscape:zoom="7.8223688" objecttolerance="10" pagecolor="#002b36" showgrid="false">
	</sodipodi:namedview>
<path id="path38" inkscape:connector-curvature="0" class="st0" d="M31.4,14.7H11.5c-1.4,0-2.5,1.1-2.5,2.5v39.7
	c0,1.4,1.1,2.5,2.5,2.5h29.9c1.4,0,2.5-1.1,2.5-2.5V27.1L31.4,14.7z"/>
<path id="path839" inkscape:connector-curvature="0" class="st1" d="M31.4,14.7H11.5c-1.4,0-2.5,1.1-2.5,2.5v39.7
	c0,1.4,1.1,2.5,2.5,2.5h29.9c1.4,0,2.5-1.1,2.5-2.5V27.1L31.4,14.7z"/>
<path id="path851" inkscape:connector-curvature="0" class="st0" d="M39.4,4.7H19.5c-1.4,0-2.5,1.1-2.5,2.5v39.7
	c0,1.4,1.1,2.5,2.5,2.5h29.9c1.4,0,2.5-1.1,2.5-2.5V17.1L39.4,4.7z"/>
<path id="path855" inkscape:connector-curvature="0" class="st1" d="M39.4,4.7H19.5c-1.4,0-2.5,1.1-2.5,2.5v39.7
	c0,1.4,1.1,2.5,2.5,2.5h29.9c1.4,0,2.5-1.1,2.5-2.5V17.1L39.4,4.7z"/>
<path id="path859" inkscape:connector-curvature="0" sodipodi:nodetypes="ccccc" class="st2" d="M42,17.1c-1.4,0-2.5-0.8-2.5-2.2
	V4.7l12.5,12.4H42z"/>
<path id="path838" inkscape:connector-curvature="0" sodipodi:nodetypes="ccccc" class="st2" d="M42,17.1c-1.4,0-2.5-0.8-2.5-2.2
	V4.7l12.5,12.4H42z"/>
</svg>
