<?xml version="1.0" encoding="utf-8"?>
<!-- Generator: Adobe Illustrator 28.1.0, SVG Export Plug-In . SVG Version: 6.00 Build 0)  -->
<svg version="1.1"
	 id="svg2" xmlns:inkscape="http://www.inkscape.org/namespaces/inkscape" xmlns:sodipodi="http://sodipodi.sourceforge.net/DTD/sodipodi-0.dtd" xmlns:cc="http://creativecommons.org/ns#" xmlns:dc="http://purl.org/dc/elements/1.1/" xmlns:rdf="http://www.w3.org/1999/02/22-rdf-syntax-ns#" xmlns:svg="http://www.w3.org/2000/svg" inkscape:version="1.1 (c4e8f9ed74, 2021-05-24)"
	 xmlns="http://www.w3.org/2000/svg" xmlns:xlink="http://www.w3.org/1999/xlink" x="0px" y="0px" viewBox="0 0 64 64"
	 style="enable-background:new 0 0 64 64;" xml:space="preserve">
<style type="text/css">
	.st0{fill:#F0EBDC;}
	.st1{fill:none;stroke:#3F5464;stroke-width:2;stroke-miterlimit:2.1429;}
	.st2{fill:#A3A7AA;}
	.st3{fill:#DCDCDC;}
	.st4{fill:#F0EBDC;stroke:#3F5464;stroke-width:2;stroke-linejoin:round;}
</style>
<sodipodi:namedview  bordercolor="#666666" borderopacity="1" gridtolerance="10" guidetolerance="10" id="namedview24" inkscape:current-layer="svg2" inkscape:cx="14.644068" inkscape:cy="29.920904" inkscape:document-rotation="0" inkscape:pagecheckerboard="false" inkscape:pageopacity="1" inkscape:pageshadow="2" inkscape:window-height="826" inkscape:window-maximized="1" inkscape:window-width="1600" inkscape:window-x="0" inkscape:window-y="0" inkscape:zoom="5.53125" objecttolerance="10" pagecolor="#002b36" showgrid="false">
	</sodipodi:namedview>
<g id="g36" transform="matrix(0.53571428,0,0,-0.53571428,38.734464,2.0000003)">
	<path id="path38" inkscape:connector-curvature="0" class="st0" d="M0,0h-50.3c-3.5,0-6.3-2.8-6.3-6.2v-99.6c0-3.4,2.8-6.2,6.3-6.2
		h75.4c3.5,0,6.3,2.8,6.3,6.2v74.7L0,0z"/>
</g>
<g id="g841" transform="matrix(0.53571428,0,0,-0.53571428,38.734464,2.0000003)">
	<path id="path839" inkscape:connector-curvature="0" class="st1" d="M0,0h-50.3c-3.5,0-6.3-2.8-6.3-6.2v-99.6
		c0-3.4,2.8-6.2,6.3-6.2h75.4c3.5,0,6.3,2.8,6.3,6.2v74.7L0,0z"/>
</g>
<g id="g876" transform="matrix(0.8,0,0,0.8,68.975066,26.727166)">
	<path id="path859" class="st2" d="M-46.2,39.1v-25l21.7-12.5v25L-46.2,39.1z"/>
	<path id="path861" class="st3" d="M-46.2,39.1v-25L-67.9,1.6v25L-46.2,39.1z"/>
	<path id="path871" class="st3" d="M-67.9,1.6l21.7,12.5l21.7-12.5l-21.7-12.5L-67.9,1.6z"/>
</g>
<path id="path838" inkscape:connector-curvature="0" sodipodi:nodetypes="ccccc" class="st4" d="M42.1,18.5c-1.9,0-3.4-1-3.4-2.9V2
	l16.6,16.5H42.1z"/>
</svg>
