<?xml version="1.0" encoding="utf-8"?>
<!-- Generator: Adobe Illustrator 28.1.0, SVG Export Plug-In . SVG Version: 6.00 Build 0)  -->
<svg version="1.1"
	 id="svg2" xmlns:inkscape="http://www.inkscape.org/namespaces/inkscape" xmlns:sodipodi="http://sodipodi.sourceforge.net/DTD/sodipodi-0.dtd" xmlns:cc="http://creativecommons.org/ns#" xmlns:dc="http://purl.org/dc/elements/1.1/" xmlns:rdf="http://www.w3.org/1999/02/22-rdf-syntax-ns#" xmlns:svg="http://www.w3.org/2000/svg" inkscape:export-filename="/media/alfrix/DATOS/xmb/menu_drivers.png" inkscape:export-xdpi="90" inkscape:export-ydpi="90" inkscape:version="1.1 (c4e8f9ed74, 2021-05-24)"
	 xmlns="http://www.w3.org/2000/svg" xmlns:xlink="http://www.w3.org/1999/xlink" x="0px" y="0px" viewBox="0 0 64 64"
	 style="enable-background:new 0 0 64 64;" xml:space="preserve">
<style type="text/css">
	.st0{fill-rule:evenodd;clip-rule:evenodd;fill:#3F5464;}
	.st1{fill:none;stroke:#A3A7AA;stroke-width:8;stroke-linecap:round;}
	.st2{fill-rule:evenodd;clip-rule:evenodd;fill:#F0EBDC;}
</style>
<sodipodi:namedview  bordercolor="#666666" borderopacity="1" gridtolerance="10" guidetolerance="10" id="namedview4" inkscape:current-layer="svg2" inkscape:cx="25.887299" inkscape:cy="33.845247" inkscape:document-rotation="0" inkscape:pagecheckerboard="false" inkscape:pageopacity="1" inkscape:pageshadow="2" inkscape:window-height="826" inkscape:window-maximized="1" inkscape:window-width="1600" inkscape:window-x="0" inkscape:window-y="0" inkscape:zoom="5.2149125" objecttolerance="10" pagecolor="#002b36" showgrid="false">
	</sodipodi:namedview>
<path id="rect872" class="st0" d="M15.5,26h10c2.2,0,4,1.8,4,4v6c0,2.2-1.8,4-4,4h-10c-2.2,0-4-1.8-4-4v-6
	C11.5,27.8,13.3,26,15.5,26z"/>
<path id="rect874" class="st0" d="M50.1,6h-10c-2.2,0-4,1.8-4,4v6c0,2.2,1.8,4,4,4h10c2.2,0,4-1.8,4-4v-6C54.1,7.8,52.3,6,50.1,6z"
	/>
<path id="rect876" class="st0" d="M50.1,46h-10c-2.2,0-4,1.8-4,4v6c0,2.2,1.8,4,4,4h10c2.2,0,4-1.8,4-4v-6
	C54.1,47.8,52.3,46,50.1,46z"/>
<path id="path3535" class="st1" d="M8.6,32h46.8"/>
<path id="rect2759" class="st2" d="M14.6,25h9.7c2.1,0,3.9,1.8,3.9,4v6c0,2.2-1.7,4-3.9,4h-9.7c-2.1,0-3.9-1.8-3.9-4v-6
	C10.7,26.8,12.4,25,14.6,25z"/>
<path id="path4492" class="st1" d="M55.4,12H8.6"/>
<path id="rect4494" class="st2" d="M49.3,5h-10c-2.2,0-4,1.8-4,4v6c0,2.2,1.8,4,4,4h10c2.2,0,4-1.8,4-4V9C53.3,6.8,51.5,5,49.3,5z"
	/>
<path id="path4498" class="st1" d="M55.4,52H8.6"/>
<path id="rect4500" class="st2" d="M49.3,45h-10c-2.2,0-4,1.8-4,4v6c0,2.2,1.8,4,4,4h10c2.2,0,4-1.8,4-4v-6
	C53.3,46.8,51.5,45,49.3,45z"/>
</svg>
