<?xml version="1.0" encoding="utf-8"?>
<!-- Generator: Adobe Illustrator 28.1.0, SVG Export Plug-In . SVG Version: 6.00 Build 0)  -->
<svg version="1.1"
	 id="svg4160" xmlns:inkscape="http://www.inkscape.org/namespaces/inkscape" xmlns:sodipodi="http://sodipodi.sourceforge.net/DTD/sodipodi-0.dtd" xmlns:cc="http://creativecommons.org/ns#" xmlns:dc="http://purl.org/dc/elements/1.1/" xmlns:rdf="http://www.w3.org/1999/02/22-rdf-syntax-ns#" xmlns:svg="http://www.w3.org/2000/svg" inkscape:version="1.0.2 (e86c870879, 2021-01-15, custom)"
	 xmlns="http://www.w3.org/2000/svg" xmlns:xlink="http://www.w3.org/1999/xlink" x="0px" y="0px" viewBox="0 0 64 60"
	 style="enable-background:new 0 0 64 60;" xml:space="preserve">
<style type="text/css">
	.st0{opacity:0.998;fill:#A3A7AA;enable-background:new    ;}
	.st1{opacity:0.998;fill:#DCDCDC;enable-background:new    ;}
	.st2{fill:#3F5464;}
	.st3{opacity:0.998;fill:#3F5464;enable-background:new    ;}
	.st4{opacity:0.998;fill:#EED383;enable-background:new    ;}
</style>
<sodipodi:namedview  bordercolor="#666666" borderopacity="1" gridtolerance="10" guidetolerance="10" id="namedview12" inkscape:bbox-nodes="true" inkscape:bbox-paths="true" inkscape:current-layer="svg4160" inkscape:cx="17.379749" inkscape:cy="34.546794" inkscape:document-rotation="0" inkscape:object-paths="true" inkscape:pagecheckerboard="false" inkscape:pageopacity="0" inkscape:pageshadow="2" inkscape:snap-bbox="true" inkscape:snap-bbox-edge-midpoints="true" inkscape:snap-bbox-midpoints="true" inkscape:snap-intersection-paths="true" inkscape:window-height="837" inkscape:window-maximized="1" inkscape:window-width="1600" inkscape:window-x="-8" inkscape:window-y="-8" inkscape:zoom="7.4010512" objecttolerance="10" pagecolor="#bfbfbf" showgrid="false">
	</sodipodi:namedview>
<g id="g845" transform="matrix(1.2,0,0,1.2,-6.4,-7.1999993)">
	<g id="g963" transform="matrix(2,0,0,2,-32,-61.460622)">
		<rect id="rect1033" x="25.8" y="43.3" class="st0" width="12.5" height="4.5"/>
		<rect id="rect1035" x="28.9" y="43.3" class="st1" width="6.3" height="4.5"/>
		<path id="path1037" class="st2" d="M28.9,47.8h6.2L33,50.3H31L28.9,47.8z"/>
		<rect id="rect1039" x="28" y="40.8" class="st3" width="8" height="2.5"/>
		<path id="rect1055" class="st3" d="M27.2,38.3h9.6c0.5,0,0.8,0.4,0.8,0.8V40c0,0.5-0.4,0.8-0.8,0.8h-9.6c-0.5,0-0.8-0.4-0.8-0.8
			v-0.8C26.4,38.7,26.8,38.3,27.2,38.3z"/>
		<rect id="rect1065" x="26.4" y="37.1" class="st3" width="11.2" height="2.5"/>
	</g>
	<path id="rect841" class="st4" d="M25.7,39.2h12.7c0.9,0,1.7,0.7,1.7,1.7v6.7c0,0.9-0.7,1.7-1.7,1.7H25.7c-0.9,0-1.7-0.7-1.7-1.7
		v-6.7C24,40,24.7,39.2,25.7,39.2z"/>
</g>
</svg>
