<?xml version="1.0" encoding="utf-8"?>
<!-- Generator: Adobe Illustrator 28.1.0, SVG Export Plug-In . SVG Version: 6.00 Build 0)  -->
<svg version="1.1"
	 id="svg4160" xmlns:inkscape="http://www.inkscape.org/namespaces/inkscape" xmlns:sodipodi="http://sodipodi.sourceforge.net/DTD/sodipodi-0.dtd" xmlns:cc="http://creativecommons.org/ns#" xmlns:dc="http://purl.org/dc/elements/1.1/" xmlns:rdf="http://www.w3.org/1999/02/22-rdf-syntax-ns#" xmlns:svg="http://www.w3.org/2000/svg" inkscape:version="1.0.2 (e86c870879, 2021-01-15, custom)"
	 xmlns="http://www.w3.org/2000/svg" xmlns:xlink="http://www.w3.org/1999/xlink" x="0px" y="0px" viewBox="0 0 64 60"
	 style="enable-background:new 0 0 64 60;" xml:space="preserve">
<style type="text/css">
	.st0{opacity:0.998;fill:#A3A7AA;enable-background:new    ;}
	.st1{opacity:0.998;fill:#DCDCDC;enable-background:new    ;}
	.st2{fill:#3F5464;}
	.st3{opacity:0.998;fill:#3F5464;enable-background:new    ;}
	.st4{opacity:0.998;fill:#8ABBD3;enable-background:new    ;}
</style>
<sodipodi:namedview  bordercolor="#666666" borderopacity="1" gridtolerance="10" guidetolerance="10" id="namedview12" inkscape:bbox-nodes="true" inkscape:bbox-paths="true" inkscape:current-layer="svg4160" inkscape:cx="17.052" inkscape:cy="25.270421" inkscape:document-rotation="0" inkscape:object-paths="true" inkscape:pagecheckerboard="false" inkscape:pageopacity="0" inkscape:pageshadow="2" inkscape:snap-bbox="true" inkscape:snap-bbox-edge-midpoints="true" inkscape:snap-bbox-midpoints="true" inkscape:snap-intersection-paths="true" inkscape:window-height="837" inkscape:window-maximized="1" inkscape:window-width="1600" inkscape:window-x="-8" inkscape:window-y="-8" inkscape:zoom="7.4010512" objecttolerance="10" pagecolor="#bfbfbf" showgrid="false">
	</sodipodi:namedview>
<g id="g845" transform="matrix(1.2,0,0,1.2,-6.3999999,-7.2537122)">
	<g id="g963" transform="matrix(2,0,0,2,-32,-61.460622)">
		<rect id="rect1033" x="25.8" y="43.3" class="st0" width="12.5" height="4.5"/>
		<rect id="rect1035" x="28.9" y="43.3" class="st1" width="6.3" height="4.5"/>
		<path id="path1037" class="st2" d="M28.9,47.8h6.2L33,50.3h-2L28.9,47.8z"/>
		<rect id="rect1039" x="28" y="40.8" class="st3" width="8" height="2.5"/>
		<path id="rect1055" class="st3" d="M27.2,38.3h9.6c0.5,0,0.8,0.4,0.8,0.8V40c0,0.5-0.4,0.8-0.8,0.8h-9.6c-0.5,0-0.8-0.4-0.8-0.8
			v-0.8C26.4,38.7,26.8,38.3,27.2,38.3z"/>
		<rect id="rect1065" x="26.4" y="37.1" class="st3" width="11.2" height="2.5"/>
	</g>
	<path id="rect841" class="st4" d="M11.5,32.4c-1.8,0.2-3.3,4.2-2.8,8.3c-0.1,0.2-0.1,0.4-0.1,0.6v6c0,1.1,0.9,2,2,2h6.9
		c0.9,0.1,1.8,0.1,2.8,0h23.2c1,0.1,2,0.1,2.8,0h6.9c1.1,0,2-0.9,2-2v-6c0-0.2,0-0.4-0.1-0.6c0.4-4-1.1-8-2.8-8.3
		c-0.4,0-0.8,0.1-1.2,0.5c-6,5.7-14.1,6.3-14.1,6.3H27c0,0-8.1-0.6-14.3-6.4C12.3,32.5,11.9,32.4,11.5,32.4z"/>
</g>
</svg>
