<?xml version="1.0" encoding="utf-8"?>
<!-- Generator: Adobe Illustrator 28.1.0, SVG Export Plug-In . SVG Version: 6.00 Build 0)  -->
<svg version="1.1"
	 id="svg2" xmlns:inkscape="http://www.inkscape.org/namespaces/inkscape" xmlns:sodipodi="http://sodipodi.sourceforge.net/DTD/sodipodi-0.dtd" xmlns:cc="http://creativecommons.org/ns#" xmlns:dc="http://purl.org/dc/elements/1.1/" xmlns:rdf="http://www.w3.org/1999/02/22-rdf-syntax-ns#" xmlns:svg="http://www.w3.org/2000/svg" inkscape:version="1.0.2 (e86c870879, 2021-01-15, custom)"
	 xmlns="http://www.w3.org/2000/svg" xmlns:xlink="http://www.w3.org/1999/xlink" x="0px" y="0px" viewBox="0 0 64 64"
	 style="enable-background:new 0 0 64 64;" xml:space="preserve">
<style type="text/css">
	.st0{fill:#CD817B;stroke:#CD817B;stroke-width:3;stroke-linecap:round;}
	.st1{opacity:0.998;fill:#EED383;enable-background:new    ;}
</style>
<g id="g840" transform="translate(1,-0.1826145)">
	<path id="path38" class="st0" d="M14.1,10.9c-3.1,0-5.6,2.5-5.6,5.6v8.3v4.9v2.2v18c0,0,1.5,2.8,3,2.8h39.2c1.5,0,2.8-2.8,2.8-2.8
		v-18v-2.2v-4.9V22c0-3.1-2.5-5.6-5.6-5.6H31c0-3.1-2.5-5.6-5.6-5.6H14.1z"/>
	<path id="rect836" class="st1" d="M11,15h40c2.2,0,4,1.8,4,4v32c0,2.2-1.8,4-4,4H11c-2.2,0-4-1.8-4-4V19C7,16.8,8.8,15,11,15z"/>
</g>
<sodipodi:namedview  bordercolor="#666666" borderopacity="1" gridtolerance="10" guidetolerance="10" id="namedview22" inkscape:current-layer="svg2" inkscape:cx="18.216023" inkscape:cy="25.676176" inkscape:document-rotation="0" inkscape:pagecheckerboard="true" inkscape:pageopacity="0" inkscape:pageshadow="2" inkscape:window-height="837" inkscape:window-maximized="1" inkscape:window-width="1600" inkscape:window-x="-8" inkscape:window-y="-8" inkscape:zoom="5.5312497" objecttolerance="10" pagecolor="#ffffff" showgrid="false">
	</sodipodi:namedview>
<g id="g22" transform="matrix(1.3333333,0,0,-1.3333333,0,341.33333)">
</g>
</svg>
