<?xml version="1.0" encoding="utf-8"?>
<!-- Generator: Adobe Illustrator 28.1.0, SVG Export Plug-In . SVG Version: 6.00 Build 0)  -->
<svg version="1.1"
	 id="svg4160" xmlns:inkscape="http://www.inkscape.org/namespaces/inkscape" xmlns:sodipodi="http://sodipodi.sourceforge.net/DTD/sodipodi-0.dtd" xmlns:cc="http://creativecommons.org/ns#" xmlns:dc="http://purl.org/dc/elements/1.1/" xmlns:rdf="http://www.w3.org/1999/02/22-rdf-syntax-ns#" xmlns:svg="http://www.w3.org/2000/svg" inkscape:version="1.1 (c4e8f9ed74, 2021-05-24)"
	 xmlns="http://www.w3.org/2000/svg" xmlns:xlink="http://www.w3.org/1999/xlink" x="0px" y="0px" viewBox="0 0 64 64"
	 style="enable-background:new 0 0 64 64;" xml:space="preserve">
<style type="text/css">
	.st0{opacity:0.998;fill:#F0EBDC;enable-background:new    ;}
</style>
<sodipodi:namedview  bordercolor="#666666" borderopacity="1" gridtolerance="10" guidetolerance="10" id="namedview13" inkscape:current-layer="svg4160" inkscape:cx="25.266681" inkscape:cy="35.197703" inkscape:document-rotation="0" inkscape:pagecheckerboard="false" inkscape:pageopacity="1" inkscape:pageshadow="2" inkscape:window-height="826" inkscape:window-maximized="1" inkscape:window-width="1600" inkscape:window-x="0" inkscape:window-y="0" inkscape:zoom="7.4010511" objecttolerance="10" pagecolor="#002b36" showgrid="true">
	</sodipodi:namedview>
<path id="path861" sodipodi:nodetypes="sccssssccssssccccccccccccssssccssssccccccccccsccccc" class="st0" d="M27.9,3.9
	C27.1,4,26.1,5.3,25.4,7l-4,11h-8.9c-2,0-3.5,0.7-3.5,1.6v4.8c0,0.9,1.6,1.6,3.5,1.6h6l-4.4,12H6.5c-2,0-3.5,0.7-3.5,1.6v4.8
	C3,45.3,4.6,46,6.5,46h4.7l-3,8.2c-0.7,2-0.7,3.9,0.2,4.2l4.5,1.6c0.8,0.3,2.1-1.1,2.8-3.1l4-11H34l-3,8.2c-0.7,2-0.7,3.9,0.2,4.2
	l4.5,1.6c0.8,0.3,2.1-1.1,2.8-3.1l4-11h8.9c2,0,3.5-0.7,3.5-1.6v-4.8c0-0.9-1.6-1.6-3.5-1.6h-6l4.4-12h7.6c2,0,3.5-0.7,3.5-1.6v-4.8
	c0-0.9-1.6-1.6-3.5-1.6h-4.7l3-8.2c0.7-2,0.7-3.9-0.2-4.2l-4.5-1.6C50.2,3.6,49,5,48.2,7l-4,11H30l3-8.2c0.7-2,0.7-3.9-0.2-4.2
	l-4.5-1.6C28.2,3.9,28.1,3.9,27.9,3.9z M27,26h14.3L37,38H22.7L27,26z"/>
</svg>
