<?xml version="1.0" encoding="utf-8"?>
<!-- Generator: Adobe Illustrator 28.1.0, SVG Export Plug-In . SVG Version: 6.00 Build 0)  -->
<svg version="1.1"
	 id="svg4160" xmlns:inkscape="http://www.inkscape.org/namespaces/inkscape" xmlns:sodipodi="http://sodipodi.sourceforge.net/DTD/sodipodi-0.dtd" xmlns:cc="http://creativecommons.org/ns#" xmlns:dc="http://purl.org/dc/elements/1.1/" xmlns:rdf="http://www.w3.org/1999/02/22-rdf-syntax-ns#" xmlns:svg="http://www.w3.org/2000/svg" inkscape:version="1.1 (c4e8f9ed74, 2021-05-24)"
	 xmlns="http://www.w3.org/2000/svg" xmlns:xlink="http://www.w3.org/1999/xlink" x="0px" y="0px" viewBox="0 0 64 64"
	 style="enable-background:new 0 0 64 64;" xml:space="preserve">
<style type="text/css">
	.st0{fill:#EB907C;}
	.st1{fill:#EEE8D5;stroke:#EEE8D5;stroke-width:8.9059;stroke-linecap:round;stroke-linejoin:round;}
	.st2{fill:#F0EBDC;stroke:#F0EBDC;stroke-width:8.9059;stroke-linecap:round;stroke-linejoin:round;}
</style>
<g id="g1190">
	<g id="path4837" transform="matrix(1.000511,0,0,1.0065363,-1.4844282,3.5972524)">
		<path id="path843" class="st0" d="M38.6,44.4c0,2.7-2.3,4.8-5.2,4.8s-5.2-2.2-5.2-4.8c0-2.7,2.3-4.8,5.2-4.8S38.6,41.7,38.6,44.4z
			"/>
		<path id="path845" class="st0" d="M33.5,38.6c-3.4,0-6.2,2.6-6.2,5.8s2.8,5.8,6.2,5.8s6.2-2.6,6.2-5.8S36.8,38.6,33.5,38.6z
			 M33.5,40.6c2.3,0,4.2,1.7,4.2,3.8s-1.8,3.8-4.2,3.8s-4.2-1.7-4.2-3.8C29.3,42.3,31.1,40.6,33.5,40.6z"/>
	</g>
	<g id="rect4842" transform="matrix(0.80167015,0,0,1.0065363,5.1393526,3.5972524)">
		<path id="path849" class="st0" d="M31.2,16.8h4.7v23.5h-4.7L31.2,16.8z"/>
		<path id="path851" class="st0" d="M31.2,15.4c-0.8,0-1.4,0.6-1.4,1.4v23.5c0,0.8,0.6,1.4,1.4,1.4h4.7c0.8,0,1.4-0.6,1.4-1.4V16.8
			c0-0.8-0.6-1.4-1.4-1.4H31.2z M32.6,18.2h1.9v20.7h-1.9V18.2z"/>
	</g>
</g>
<sodipodi:namedview  bordercolor="#666666" borderopacity="1" gridtolerance="10" guidetolerance="10" id="namedview16" inkscape:current-layer="g986" inkscape:cx="19.186464" inkscape:cy="28.982371" inkscape:pagecheckerboard="false" inkscape:pageopacity="1" inkscape:pageshadow="2" inkscape:window-height="826" inkscape:window-maximized="1" inkscape:window-width="1600" inkscape:window-x="0" inkscape:window-y="0" inkscape:zoom="7.4010509" objecttolerance="10" pagecolor="#002b36" showgrid="false">
	</sodipodi:namedview>
<g id="g986" transform="matrix(0.80167015,0,0,1.0065363,5.1393526,3.5972524)">
	<path id="path978" sodipodi:nodetypes="sssss" class="st1" d="M33.5,38.6c-4.5,0-8.2,2.8-8.2,6.4s3.7,6.4,8.2,6.4s8.2-2.8,8.2-6.4
		S38,38.6,33.5,38.6z"/>
	<path id="path984" sodipodi:nodetypes="ccccccccc" class="st2" d="M31.2,5.4c-0.8,0-1.4,0.6-1.4,1.4v33.5c0,0.8,0.6,1.4,1.4,1.4
		h4.7c0.8,0,1.4-0.6,1.4-1.4V6.8c0-0.8-0.6-1.4-1.4-1.4L31.2,5.4z"/>
	<path id="path2002" sodipodi:nodetypes="sssss" class="st0" d="M33.5,38.6c-4.5,0-8.2,2.8-8.2,6.4s3.7,6.4,8.2,6.4s8.2-2.8,8.2-6.4
		S38,38.6,33.5,38.6z"/>
	<path id="path2004" sodipodi:nodetypes="ccccccccc" class="st0" d="M31.2,15.4c-0.8,0-1.4,0.6-1.4,1.4v27.5c0,0.8,0.6,1.4,1.4,1.4
		h4.7c0.8,0,1.4-0.6,1.4-1.4V16.8c0-0.8-0.6-1.4-1.4-1.4L31.2,15.4z"/>
</g>
</svg>
