<?xml version="1.0" encoding="utf-8"?>
<!-- Generator: Adobe Illustrator 28.1.0, SVG Export Plug-In . SVG Version: 6.00 Build 0)  -->
<svg version="1.1"
	 id="svg4160" xmlns:inkscape="http://www.inkscape.org/namespaces/inkscape" xmlns:sodipodi="http://sodipodi.sourceforge.net/DTD/sodipodi-0.dtd" xmlns:cc="http://creativecommons.org/ns#" xmlns:dc="http://purl.org/dc/elements/1.1/" xmlns:rdf="http://www.w3.org/1999/02/22-rdf-syntax-ns#" xmlns:svg="http://www.w3.org/2000/svg" inkscape:version="1.1 (c4e8f9ed74, 2021-05-24)"
	 xmlns="http://www.w3.org/2000/svg" xmlns:xlink="http://www.w3.org/1999/xlink" x="0px" y="0px" viewBox="0 0 64 64"
	 style="enable-background:new 0 0 64 64;" xml:space="preserve">
<style type="text/css">
	.st0{opacity:0.998;fill:#A3A7AA;enable-background:new    ;}
	
		.st1{opacity:0.998;fill:none;stroke:#3F5464;stroke-width:4;stroke-linecap:round;stroke-linejoin:round;enable-background:new    ;}
	.st2{opacity:0.998;fill:#F0EBDC;enable-background:new    ;}
</style>
<sodipodi:namedview  bordercolor="#666666" borderopacity="1" gridtolerance="10" guidetolerance="10" id="namedview8" inkscape:current-layer="layer2" inkscape:cx="31.887362" inkscape:cy="33.035848" inkscape:document-rotation="0" inkscape:pagecheckerboard="false" inkscape:pageopacity="1" inkscape:pageshadow="2" inkscape:window-height="826" inkscape:window-maximized="1" inkscape:window-width="1600" inkscape:window-x="0" inkscape:window-y="0" inkscape:zoom="7.4010512" objecttolerance="10" pagecolor="#002b36" showgrid="false">
	<inkscape:grid  id="grid832" type="xygrid"></inkscape:grid>
</sodipodi:namedview>
<g id="layer2" transform="translate(-3.5328446,2.2636422)">
	<path id="rect867" class="st0" d="M18.5,42.6h34c1.1,0,2,0.9,2,2v4c0,1.1-0.9,2-2,2h-34c-1.1,0-2-0.9-2-2v-4
		C16.5,43.4,17.4,42.6,18.5,42.6z"/>
	<circle id="path838" class="st1" cx="35.5" cy="43" r="7"/>
	<path id="rect852-3" sodipodi:nodetypes="ssscccccscccccccccccss" class="st2" d="M38.7,8.6h-6.4c-0.5,0-0.7,0.3-0.7,0.6v17
		c0,1.2-1.5,1.9-2.4,1L27,25.1c-0.3-0.3-0.8-0.3-1.1,0l-3,2.9c-0.1,0.1-0.2,0.3-0.2,0.4c0,0.1,0,0.3,0.2,0.4l9.1,8.6l3,2.9
		c0.3,0.3,0.8,0.3,1.1,0l3-2.9l9.1-8.6c0.3-0.3,0.3-0.6,0-0.9l-3-2.9c-0.3-0.3-0.8-0.3-1.1,0l-2.2,2.1c-0.9,0.8-2.4,0.2-2.4-1v-17
		C39.5,8.9,39.2,8.6,38.7,8.6z"/>
</g>
</svg>
