<?xml version="1.0" encoding="utf-8"?>
<!-- Generator: Adobe Illustrator 28.1.0, SVG Export Plug-In . SVG Version: 6.00 Build 0)  -->
<svg version="1.1"
	 id="svg4160" xmlns:inkscape="http://www.inkscape.org/namespaces/inkscape" xmlns:sodipodi="http://sodipodi.sourceforge.net/DTD/sodipodi-0.dtd" xmlns:cc="http://creativecommons.org/ns#" xmlns:dc="http://purl.org/dc/elements/1.1/" xmlns:rdf="http://www.w3.org/1999/02/22-rdf-syntax-ns#" xmlns:svg="http://www.w3.org/2000/svg" inkscape:version="1.1 (c4e8f9ed74, 2021-05-24)"
	 xmlns="http://www.w3.org/2000/svg" xmlns:xlink="http://www.w3.org/1999/xlink" x="0px" y="0px" viewBox="0 0 64 64"
	 style="enable-background:new 0 0 64 64;" xml:space="preserve">
<style type="text/css">
	.st0{opacity:0.998;fill:#A3A7AA;enable-background:new    ;}
	
		.st1{opacity:0.998;fill:none;stroke:#3F5464;stroke-width:4;stroke-linecap:round;stroke-linejoin:round;enable-background:new    ;}
	.st2{opacity:0.998;fill:#F0EBDC;enable-background:new    ;}
</style>
<sodipodi:namedview  bordercolor="#666666" borderopacity="1" gridtolerance="10" guidetolerance="10" id="namedview8" inkscape:current-layer="svg4160" inkscape:cx="47.155464" inkscape:cy="31.414456" inkscape:document-rotation="0" inkscape:pagecheckerboard="false" inkscape:pageopacity="1" inkscape:pageshadow="2" inkscape:window-height="826" inkscape:window-maximized="1" inkscape:window-width="1600" inkscape:window-x="0" inkscape:window-y="0" inkscape:zoom="7.4010512" objecttolerance="10" pagecolor="#002b36" showgrid="false">
	<inkscape:grid  id="grid832" type="xygrid"></inkscape:grid>
</sodipodi:namedview>
<path id="rect836" class="st0" d="M7,52.5v-46c0-1.1,0.9-2,2-2h46c1.1,0,2,0.9,2,2v46c0,1.1-0.9,2-2,2H9C7.9,54.5,7,53.6,7,52.5z"/>
<circle id="path838" class="st1" cx="32" cy="52.5" r="7"/>
<path id="rect852-3" sodipodi:nodetypes="ssscccccscccccccccccss" class="st2" d="M35.4,18.5h-6.8c-0.5,0-0.8,0.3-0.8,0.7v18
	c0,1.3-1.6,2-2.5,1.1l-2.4-2.2c-0.3-0.3-0.9-0.3-1.2,0l-3.2,3.1c-0.2,0.2-0.2,0.3-0.2,0.5c0,0.2,0.1,0.3,0.2,0.5l9.7,9.2l3.2,3.1
	c0.3,0.3,0.9,0.3,1.2,0l3.2-3.1l9.7-9.2c0.3-0.3,0.3-0.6,0-0.9l-3.2-3.1c-0.3-0.3-0.9-0.3-1.2,0l-2.4,2.2c-0.9,0.9-2.5,0.2-2.5-1.1
	v-18C36.2,18.8,35.9,18.5,35.4,18.5z"/>
</svg>
