<?xml version="1.0" encoding="utf-8"?>
<!-- Generator: Adobe Illustrator 28.1.0, SVG Export Plug-In . SVG Version: 6.00 Build 0)  -->
<svg version="1.1"
	 id="svg4160" xmlns:inkscape="http://www.inkscape.org/namespaces/inkscape" xmlns:sodipodi="http://sodipodi.sourceforge.net/DTD/sodipodi-0.dtd" xmlns:cc="http://creativecommons.org/ns#" xmlns:dc="http://purl.org/dc/elements/1.1/" xmlns:rdf="http://www.w3.org/1999/02/22-rdf-syntax-ns#" xmlns:svg="http://www.w3.org/2000/svg" inkscape:version="1.1 (c4e8f9ed74, 2021-05-24)"
	 xmlns="http://www.w3.org/2000/svg" xmlns:xlink="http://www.w3.org/1999/xlink" x="0px" y="0px" viewBox="0 0 64 64"
	 style="enable-background:new 0 0 64 64;" xml:space="preserve">
<style type="text/css">
	.st0{opacity:0.998;fill:#A3A7AA;enable-background:new    ;}
	
		.st1{opacity:0.998;fill:none;stroke:#3F5464;stroke-width:4;stroke-linecap:round;stroke-linejoin:round;enable-background:new    ;}
	.st2{opacity:0.998;fill:#F0EBDC;enable-background:new    ;}
</style>
<sodipodi:namedview  bordercolor="#666666" borderopacity="1" gridtolerance="10" guidetolerance="10" id="namedview8" inkscape:current-layer="layer2" inkscape:cx="29.725507" inkscape:cy="33.576311" inkscape:document-rotation="0" inkscape:pagecheckerboard="false" inkscape:pageopacity="1" inkscape:pageshadow="2" inkscape:window-height="826" inkscape:window-maximized="1" inkscape:window-width="1600" inkscape:window-x="0" inkscape:window-y="0" inkscape:zoom="7.4010512" objecttolerance="10" pagecolor="#002b36" showgrid="false">
	<inkscape:grid  id="grid832" type="xygrid"></inkscape:grid>
</sodipodi:namedview>
<g id="layer2" transform="translate(-3.5328446,2.2636422)">
	<path id="rect836" class="st0" d="M14.5,4.7h46c1.1,0,2,0.9,2,2v46c0,1.1-0.9,2-2,2h-46c-1.1,0-2-0.9-2-2v-46
		C12.5,5.6,13.4,4.7,14.5,4.7z"/>
	<circle id="path838" class="st1" cx="14.5" cy="29.7" r="7"/>
	<path id="rect852-3" sodipodi:nodetypes="ssscccccscccccccccccss" class="st2" d="M48.5,26.3v6.8c0,0.5-0.3,0.8-0.7,0.8h-18
		c-1.3,0-2,1.6-1.1,2.5l2.2,2.4c0.3,0.3,0.3,0.9,0,1.2l-3.1,3.2c-0.2,0.2-0.3,0.2-0.5,0.2c-0.2,0-0.3-0.1-0.5-0.2l-9.2-9.7l-3.1-3.2
		c-0.3-0.3-0.3-0.9,0-1.2l3.1-3.2l9.2-9.7c0.3-0.3,0.6-0.3,0.9,0l3.1,3.2c0.3,0.3,0.3,0.9,0,1.2L28.7,23c-0.9,0.9-0.2,2.5,1.1,2.5
		h18C48.2,25.5,48.5,25.8,48.5,26.3z"/>
</g>
</svg>
