<?xml version="1.0" encoding="utf-8"?>
<!-- Generator: Adobe Illustrator 28.1.0, SVG Export Plug-In . SVG Version: 6.00 Build 0)  -->
<svg version="1.1"
	 id="Layer_1" xmlns:inkscape="http://www.inkscape.org/namespaces/inkscape" xmlns:sodipodi="http://sodipodi.sourceforge.net/DTD/sodipodi-0.dtd" xmlns:cc="http://creativecommons.org/ns#" xmlns:dc="http://purl.org/dc/elements/1.1/" xmlns:rdf="http://www.w3.org/1999/02/22-rdf-syntax-ns#" xmlns:svg="http://www.w3.org/2000/svg" inkscape:version="1.0.2 (e86c870879, 2021-01-15, custom)"
	 xmlns="http://www.w3.org/2000/svg" xmlns:xlink="http://www.w3.org/1999/xlink" x="0px" y="0px" viewBox="0 0 64 64"
	 style="enable-background:new 0 0 64 64;" xml:space="preserve">
<style type="text/css">
	.st0{fill:#8ABBD3;stroke:#5B89B4;stroke-width:4;}
	.st1{fill:#F0EBDC;}
	.st2{fill:none;stroke:#3F5464;stroke-width:6;stroke-linecap:round;}
</style>
<sodipodi:namedview  bordercolor="#666666" borderopacity="1" gridtolerance="10" guidetolerance="10" id="namedview7" inkscape:bbox-nodes="true" inkscape:bbox-paths="true" inkscape:current-layer="Layer_1" inkscape:cx="17.292459" inkscape:cy="34.251053" inkscape:pageopacity="0" inkscape:pageshadow="2" inkscape:snap-bbox="true" inkscape:snap-bbox-edge-midpoints="true" inkscape:snap-bbox-midpoints="true" inkscape:snap-intersection-paths="true" inkscape:snap-midpoints="true" inkscape:window-height="837" inkscape:window-maximized="1" inkscape:window-width="1600" inkscape:window-x="-8" inkscape:window-y="-8" inkscape:zoom="6.9384853" objecttolerance="10" pagecolor="#ffffff" showgrid="false">
	</sodipodi:namedview>
<path id="path836" class="st0" d="M14.2,5.5v12.6c0,2.8,1.1,5.5,3.2,7.5l6.6,6.4l-6.6,6.4c-2,2-3.2,4.7-3.2,7.5v12.6h35.5V45.9
	c0-2.8-1.1-5.5-3.2-7.5L39.9,32l6.6-6.4c2-2,3.2-4.7,3.2-7.5V5.5H14.2z"/>
<path id="path846" class="st1" d="M17.7,18.1c0,2.8,1.1,5.5,3.2,7.5l8.6,6.4l2.7,6.4c-1.7,10.3-5.9,13.2-12.5,18.1h24.6
	c-7.6-3.3-9.9-10.7-12.5-18.1l2.7-6.4l8.6-6.4c2-2,3.2-4.7,3.2-7.5C36.6,21.9,18.1,13.8,17.7,18.1z"/>
<path id="path832" class="st2" d="M11,3.5h42"/>
<path id="path834" class="st2" d="M11,60.5h42"/>
</svg>
