<?xml version="1.0" encoding="utf-8"?>
<!-- Generator: Adobe Illustrator 28.1.0, SVG Export Plug-In . SVG Version: 6.00 Build 0)  -->
<svg version="1.1"
	 id="svg4160" xmlns:inkscape="http://www.inkscape.org/namespaces/inkscape" xmlns:sodipodi="http://sodipodi.sourceforge.net/DTD/sodipodi-0.dtd" xmlns:cc="http://creativecommons.org/ns#" xmlns:dc="http://purl.org/dc/elements/1.1/" xmlns:rdf="http://www.w3.org/1999/02/22-rdf-syntax-ns#" xmlns:svg="http://www.w3.org/2000/svg" inkscape:version="1.1 (c4e8f9ed74, 2021-05-24)"
	 xmlns="http://www.w3.org/2000/svg" xmlns:xlink="http://www.w3.org/1999/xlink" x="0px" y="0px" viewBox="0 0 64 64"
	 style="enable-background:new 0 0 64 64;" xml:space="preserve">
<style type="text/css">
	.st0{opacity:0.998;fill:#F0EBDC;enable-background:new    ;}
</style>
<path id="rect831" class="st0" d="M26.5,4.5c-2,0-3.7,1.6-3.7,3.7v14.7H8.2c-2,0-3.7,1.6-3.7,3.7v11c0,2,1.6,3.7,3.7,3.7h14.7v14.7
	c0,2,1.6,3.7,3.7,3.7h11c2,0,3.7-1.6,3.7-3.7V41.2h14.7c2,0,3.7-1.6,3.7-3.7v-11c0-2-1.6-3.7-3.7-3.7H41.2V8.2c0-2-1.6-3.7-3.7-3.7
	L26.5,4.5z"/>
<sodipodi:namedview  bordercolor="#666666" borderopacity="1" gridtolerance="10" guidetolerance="10" id="namedview13" inkscape:current-layer="svg4160" inkscape:cx="20.063694" inkscape:cy="29.140127" inkscape:document-rotation="0" inkscape:pagecheckerboard="false" inkscape:pageopacity="1" inkscape:pageshadow="2" inkscape:window-height="826" inkscape:window-maximized="1" inkscape:window-width="1600" inkscape:window-x="0" inkscape:window-y="0" inkscape:zoom="5.2333334" objecttolerance="10" pagecolor="#002b36" showgrid="true">
	</sodipodi:namedview>
</svg>
