<?xml version="1.0" encoding="utf-8"?>
<!-- Generator: Adobe Illustrator 28.1.0, SVG Export Plug-In . SVG Version: 6.00 Build 0)  -->
<svg version="1.1"
	 id="svg12" xmlns:inkscape="http://www.inkscape.org/namespaces/inkscape" xmlns:sodipodi="http://sodipodi.sourceforge.net/DTD/sodipodi-0.dtd" xmlns:cc="http://creativecommons.org/ns#" xmlns:dc="http://purl.org/dc/elements/1.1/" xmlns:rdf="http://www.w3.org/1999/02/22-rdf-syntax-ns#" xmlns:svg="http://www.w3.org/2000/svg" inkscape:version="1.1 (c4e8f9ed74, 2021-05-24)"
	 xmlns="http://www.w3.org/2000/svg" xmlns:xlink="http://www.w3.org/1999/xlink" x="0px" y="0px" viewBox="0 0 64 64"
	 style="enable-background:new 0 0 64 64;" xml:space="preserve">
<style type="text/css">
	
		.st0{fill-rule:evenodd;clip-rule:evenodd;fill:#5B89B4;stroke:#F0EBDC;stroke-width:5;stroke-linecap:round;stroke-linejoin:round;}
	.st1{fill:#F0EBDC;}
</style>
<sodipodi:namedview  bordercolor="#666666" borderopacity="1" gridtolerance="10" guidetolerance="10" id="namedview9" inkscape:current-layer="svg12" inkscape:cx="35.130146" inkscape:cy="31.684689" inkscape:pagecheckerboard="false" inkscape:pageopacity="1" inkscape:pageshadow="2" inkscape:window-height="826" inkscape:window-maximized="1" inkscape:window-width="1600" inkscape:window-x="0" inkscape:window-y="0" inkscape:zoom="7.401051" objecttolerance="10" pagecolor="#002b36" showgrid="false">
	</sodipodi:namedview>
<circle id="Oval" class="st0" cx="32" cy="32" r="26.5"/>
<path id="info-6-icon" class="st1" d="M30.6,46.7c-3.6,1.3-6.5-0.2-5.9-3.6c0.6-3.4,4-10.8,4.5-12.2c0.5-1.4-0.4-1.8-1.4-1.2
	c-0.6,0.3-1.4,1-2.2,1.6c-0.2-0.4-0.5-0.9-0.7-1.3c1.2-1.2,3.2-2.8,5.5-3.4c2.8-0.7,7.5,0.4,5.5,5.8c-1.4,3.8-2.5,6.5-3.1,8.5
	c-0.6,2,0.1,2.4,1.2,1.6c0.9-0.6,1.8-1.4,2.5-2.1c0.3,0.5,0.4,0.7,0.7,1.3C36.1,43,33,45.9,30.6,46.7z M38,23
	c-1.6,1.4-4,1.3-5.4-0.1c-1.3-1.4-1.1-3.7,0.5-5.1c1.6-1.4,4-1.3,5.4,0.1C39.9,19.3,39.6,21.6,38,23z"/>
</svg>
