<?xml version="1.0" encoding="utf-8"?>
<!-- Generator: Adobe Illustrator 28.1.0, SVG Export Plug-In . SVG Version: 6.00 Build 0)  -->
<svg version="1.1"
	 id="svg4160" xmlns:inkscape="http://www.inkscape.org/namespaces/inkscape" xmlns:sodipodi="http://sodipodi.sourceforge.net/DTD/sodipodi-0.dtd" xmlns:cc="http://creativecommons.org/ns#" xmlns:dc="http://purl.org/dc/elements/1.1/" xmlns:rdf="http://www.w3.org/1999/02/22-rdf-syntax-ns#" xmlns:svg="http://www.w3.org/2000/svg" inkscape:version="1.0.2 (e86c870879, 2021-01-15, custom)"
	 xmlns="http://www.w3.org/2000/svg" xmlns:xlink="http://www.w3.org/1999/xlink" x="0px" y="0px" viewBox="0 0 64 64"
	 style="enable-background:new 0 0 64 64;" xml:space="preserve">
<style type="text/css">
	.st0{fill:#F0EBDC;}
</style>
<sodipodi:namedview  bordercolor="#666666" borderopacity="1" gridtolerance="10" guidetolerance="10" id="namedview8" inkscape:bbox-nodes="true" inkscape:bbox-paths="true" inkscape:current-layer="layer2" inkscape:cx="27.157851" inkscape:cy="34.186983" inkscape:document-rotation="0" inkscape:pagecheckerboard="true" inkscape:pageopacity="0" inkscape:pageshadow="2" inkscape:snap-bbox="true" inkscape:snap-bbox-edge-midpoints="true" inkscape:snap-bbox-midpoints="true" inkscape:window-height="837" inkscape:window-maximized="1" inkscape:window-width="1600" inkscape:window-x="-8" inkscape:window-y="-8" inkscape:zoom="9.453125" objecttolerance="10" pagecolor="#ffffff" showgrid="false">
	<inkscape:grid  id="grid832" type="xygrid"></inkscape:grid>
</sodipodi:namedview>
<g id="Layer_1-2">
	<g>
		<path class="st0" d="M46.9,32.9c0,0,2.3-18.6-3.1-20c-3.4-0.9-7.2,2.9-7.2,2.9s3.1-8.2,12.1-6.5c8.3,1.6,7.2,16.2,7.2,16.2
			s-2,2.6-4.3,4.6C49.7,31.9,46.9,32.9,46.9,32.9"/>
		<path class="st0" d="M4.8,10.9c0,0,7.8-1.1,15.2,0.4c6.6,1.4,20,22.1,24.7,22.7c5.9,0.8,11.1-7.1,11.1-7.1s-0.6,14.6-0.2,22.6
			c0.4,7.5,3.7,7.3,3.7,7.3S47,59.1,44,54c-6.1-10.5-9.3-14.3-20.4-29C14,12.1,4.8,10.9,4.8,10.9"/>
		<path class="st0" d="M4.9,11.7c0,0,4.1,0.8,9.1,4.7c4.9,3.8,10.7,10.7,10.7,10.7s-2.7-1.9-5.2-1.7c-2.5,0.3-4.8,2.8-4.8,2.8
			l-4.3-0.6l3.9,3.9c0,0-0.1,3.9,0,8.3c0.1,3.8,0.1,7.9,1.9,10.2c3.6,4.7,16.7,1.8,16.7,1.8s-2.9,4.9-9.2,5.9
			c-5.4,0.9-14.1-1.5-15.8-6c-3.2-8.3-0.1-25.8-1-35.8C6.7,13.7,4.9,11.7,4.9,11.7"/>
	</g>
</g>
</svg>
