<?xml version="1.0" encoding="utf-8"?>
<!-- Generator: Adobe Illustrator 28.1.0, SVG Export Plug-In . SVG Version: 6.00 Build 0)  -->
<svg version="1.1"
	 id="svg4160" xmlns:inkscape="http://www.inkscape.org/namespaces/inkscape" xmlns:sodipodi="http://sodipodi.sourceforge.net/DTD/sodipodi-0.dtd" xmlns:cc="http://creativecommons.org/ns#" xmlns:dc="http://purl.org/dc/elements/1.1/" xmlns:rdf="http://www.w3.org/1999/02/22-rdf-syntax-ns#" xmlns:svg="http://www.w3.org/2000/svg" inkscape:version="1.1 (c4e8f9ed74, 2021-05-24)"
	 xmlns="http://www.w3.org/2000/svg" xmlns:xlink="http://www.w3.org/1999/xlink" x="0px" y="0px" viewBox="0 0 64 64"
	 style="enable-background:new 0 0 64 64;" xml:space="preserve">
<style type="text/css">
	.st0{opacity:0.998;fill:#F0EBDC;enable-background:new    ;}
</style>
<sodipodi:namedview  bordercolor="#666666" borderopacity="1" gridtolerance="10" guidetolerance="10" id="namedview8" inkscape:current-layer="g861" inkscape:cx="31.752246" inkscape:cy="31.144224" inkscape:document-rotation="0" inkscape:pagecheckerboard="1" inkscape:pageopacity="0" inkscape:pageshadow="2" inkscape:window-height="826" inkscape:window-maximized="1" inkscape:window-width="1600" inkscape:window-x="0" inkscape:window-y="0" inkscape:zoom="7.4010512" objecttolerance="10" pagecolor="#bfbfbf" showgrid="false">
	<inkscape:grid  id="grid832" type="xygrid"></inkscape:grid>
</sodipodi:namedview>
<g id="layer2" transform="translate(-3.5328446,2.2636422)">
	<g id="g861" transform="matrix(1.5,0,0,1.5,-11.429726,-11.868178)">
		<g id="g828" transform="matrix(-1,0,0,1,62.616761,0)">
			<path id="rect854" class="st0" d="M22.4,26.8l12.3-12.3c0.5-0.5,1.4-0.5,1.9,0l3.8,3.8c0.5,0.5,0.5,1.4,0,1.9L28,32.5
				c-0.5,0.5-1.4,0.5-1.9,0l-3.8-3.8C21.8,28.2,21.8,27.3,22.4,26.8z"/>
			<path id="rect856" class="st0" d="M22.4,28.7l12.3,12.3c0.5,0.5,1.4,0.5,1.9,0l3.8-3.8c0.5-0.5,0.5-1.4,0-1.9L28,23
				c-0.5-0.5-1.4-0.5-1.9,0l-3.8,3.8C21.8,27.3,21.8,28.2,22.4,28.7z"/>
		</g>
	</g>
</g>
</svg>
