<?xml version="1.0" encoding="utf-8"?>
<!-- Generator: Adobe Illustrator 28.1.0, SVG Export Plug-In . SVG Version: 6.00 Build 0)  -->
<svg version="1.1"
	 id="svg957" xmlns:inkscape="http://www.inkscape.org/namespaces/inkscape" xmlns:sodipodi="http://sodipodi.sourceforge.net/DTD/sodipodi-0.dtd" xmlns:svg="http://www.w3.org/2000/svg" inkscape:version="1.2.2 (b0a8486541, 2022-12-01)"
	 xmlns="http://www.w3.org/2000/svg" xmlns:xlink="http://www.w3.org/1999/xlink" x="0px" y="0px" viewBox="0 0 24 24"
	 style="enable-background:new 0 0 24 24;" xml:space="preserve">
<style type="text/css">
	.st0{opacity:0.998;fill:#A3A7AA;enable-background:new    ;}
	.st1{opacity:0.998;fill:#3F5464;enable-background:new    ;}
	.st2{opacity:0.998;fill:#DCDCDC;enable-background:new    ;}
	.st3{opacity:0.998;fill:#0F1822;enable-background:new    ;}
</style>
<sodipodi:namedview  bordercolor="#ffffff" borderopacity="1" id="namedview959" inkscape:current-layer="svg957" inkscape:cx="9.5384615" inkscape:cy="10.692308" inkscape:deskcolor="#505050" inkscape:pagecheckerboard="1" inkscape:pageopacity="0" inkscape:pageshadow="0" inkscape:showpageshadow="2" inkscape:window-height="828" inkscape:window-maximized="1" inkscape:window-width="1600" inkscape:window-x="0" inkscape:window-y="0" inkscape:zoom="13" pagecolor="#505050" showgrid="false" showguides="true">
	<sodipodi:guide  id="guide1503" inkscape:locked="false" orientation="0,1" position="7.5334069,21.1875"></sodipodi:guide>
	<sodipodi:guide  id="guide1505" inkscape:locked="false" orientation="0,-1" position="11.15053,22.721769"></sodipodi:guide>
</sodipodi:namedview>
<path id="path233" sodipodi:nodetypes="csssssccccsssssc" class="st0" d="M7.6,12.1V8.4c0-1.2,0.4-2.2,1.3-3.1C9.8,4.4,10.8,4,12,4
	c1.2,0,2.2,0.4,3.1,1.3s1.3,1.9,1.3,3.1v3.8H7.6z M9.4,12.1h5.2V8.4c0-0.7-0.3-1.3-0.8-1.9S12.7,5.8,12,5.8c-0.7,0-1.3,0.3-1.9,0.8
	C9.6,7,9.4,7.6,9.4,8.4V12.1z"/>
<rect id="rect676" x="5.9" y="10.9" class="st0" width="12.2" height="10.2"/>
<rect id="rect1039-5" x="5.9" y="10.9" class="st1" width="12.2" height="3.1"/>
<rect id="rect1039-5-6" x="5.9" y="18" class="st1" width="12.2" height="3.1"/>
<circle id="path1722" class="st2" cx="12" cy="16" r="3"/>
<circle id="path1722-0" class="st0" cx="12" cy="16" r="2"/>
<rect id="rect1965" x="11.5" y="14.5" class="st3" width="1" height="3"/>
</svg>
