<?xml version="1.0" encoding="utf-8"?>
<!-- Generator: Adobe Illustrator 28.1.0, SVG Export Plug-In . SVG Version: 6.00 Build 0)  -->
<svg version="1.1"
	 id="svg4160" xmlns:inkscape="http://www.inkscape.org/namespaces/inkscape" xmlns:sodipodi="http://sodipodi.sourceforge.net/DTD/sodipodi-0.dtd" xmlns:cc="http://creativecommons.org/ns#" xmlns:dc="http://purl.org/dc/elements/1.1/" xmlns:rdf="http://www.w3.org/1999/02/22-rdf-syntax-ns#" xmlns:svg="http://www.w3.org/2000/svg" inkscape:version="1.0.2 (e86c870879, 2021-01-15, custom)"
	 xmlns="http://www.w3.org/2000/svg" xmlns:xlink="http://www.w3.org/1999/xlink" x="0px" y="0px" viewBox="0 0 64 64"
	 style="enable-background:new 0 0 64 64;" xml:space="preserve">
<style type="text/css">
	.st0{opacity:0.999;fill:#EED383;enable-background:new    ;}
	.st1{opacity:0.999;fill:#EB907C;enable-background:new    ;}
	.st2{opacity:0.999;fill:#6CCA98;enable-background:new    ;}
	.st3{fill:#F0EBDC;}
</style>
<path id="rect838" class="st0" d="M38,36h12c1.1,0,2,0.9,2,2v12c0,1.1-0.9,2-2,2H38c-1.1,0-2-0.9-2-2V38C36,36.9,36.9,36,38,36z"/>
<path id="rect840" class="st1" d="M14,36h12c1.1,0,2,0.9,2,2v12c0,1.1-0.9,2-2,2H14c-1.1,0-2-0.9-2-2V38C12,36.9,12.9,36,14,36z"/>
<path id="rect842" class="st2" d="M38,12h12c1.1,0,2,0.9,2,2v12c0,1.1-0.9,2-2,2H38c-1.1,0-2-0.9-2-2V14C36,12.9,36.9,12,38,12z"/>
<path id="rect844" class="st3" d="M14,12h12c1.1,0,2,0.9,2,2v12c0,1.1-0.9,2-2,2H14c-1.1,0-2-0.9-2-2V14C12,12.9,12.9,12,14,12z"/>
<sodipodi:namedview  bordercolor="#666666" borderopacity="1" gridtolerance="10" guidetolerance="10" id="namedview11" inkscape:bbox-nodes="true" inkscape:current-layer="svg4160" inkscape:cx="12.555149" inkscape:cy="36.925217" inkscape:document-rotation="0" inkscape:pagecheckerboard="false" inkscape:pageopacity="0" inkscape:pageshadow="2" inkscape:snap-bbox="true" inkscape:snap-bbox-edge-midpoints="true" inkscape:window-height="837" inkscape:window-maximized="1" inkscape:window-width="1600" inkscape:window-x="-8" inkscape:window-y="-8" inkscape:zoom="4.90625" objecttolerance="10" pagecolor="#bfbfbf" showgrid="false" showguides="false">
	</sodipodi:namedview>
</svg>
