<?xml version="1.0" encoding="utf-8"?>
<!-- Generator: Adobe Illustrator 28.1.0, SVG Export Plug-In . SVG Version: 6.00 Build 0)  -->
<svg version="1.1"
	 id="svg10" xmlns:inkscape="http://www.inkscape.org/namespaces/inkscape" xmlns:sodipodi="http://sodipodi.sourceforge.net/DTD/sodipodi-0.dtd" xmlns:cc="http://creativecommons.org/ns#" xmlns:dc="http://purl.org/dc/elements/1.1/" xmlns:rdf="http://www.w3.org/1999/02/22-rdf-syntax-ns#" xmlns:svg="http://www.w3.org/2000/svg" inkscape:version="1.0.2 (e86c870879, 2021-01-15, custom)"
	 xmlns="http://www.w3.org/2000/svg" xmlns:xlink="http://www.w3.org/1999/xlink" x="0px" y="0px" viewBox="0 0 64 64"
	 style="enable-background:new 0 0 64 64;" xml:space="preserve">
<style type="text/css">
	.st0{fill:#3F5464;}
	.st1{fill:#A3A7AA;}
	.st2{fill:#DCDCDC;}
	.st3{fill:#CD817B;}
</style>
<sodipodi:namedview  bordercolor="#666666" borderopacity="1" gridtolerance="10" guidetolerance="10" id="namedview12" inkscape:current-layer="svg10" inkscape:cx="18.862187" inkscape:cy="36.93885" inkscape:document-rotation="0" inkscape:pagecheckerboard="true" inkscape:pageopacity="0" inkscape:pageshadow="2" inkscape:snap-bbox="true" inkscape:snap-bbox-edge-midpoints="true" inkscape:window-height="837" inkscape:window-maximized="1" inkscape:window-width="1600" inkscape:window-x="-8" inkscape:window-y="-8" inkscape:zoom="5.4137931" objecttolerance="10" pagecolor="#ffffff" showgrid="false">
	</sodipodi:namedview>
<g id="g859" transform="translate(0,-2.7519796)">
	<rect id="rect878-6" x="14" y="32.5" class="st0" width="36.1" height="20.7"/>
	<path id="rect882" class="st1" d="M15.2,21.6c-1.4,0-2.4,1.1-2.4,2.4v8.4h38.5V24c0-1.3-1.1-2.4-2.4-2.4H15.2z M12.8,53.2v8.4
		c0,1.3,1.1,2.4,2.4,2.4h33.6c1.4,0,2.4-1.1,2.4-2.4v-8.4H12.8z"/>
	<rect id="rect884" x="29.7" y="5.5" class="st2" width="4.5" height="16.1"/>
	<g id="g850" transform="translate(1.0000015,1.8169038)">
		<path id="rect891" class="st3" d="M43,34.6L24.6,53c-0.8,0.8-2,0.8-2.8,0L19,50.2c-0.8-0.8-0.8-2,0-2.8L37.4,29
			c0.8-0.8,2-0.8,2.8,0l2.8,2.8C43.8,32.6,43.8,33.9,43,34.6z"/>
		<path id="rect846" class="st3" d="M37.4,53L19,34.6c-0.8-0.8-0.8-2,0-2.8l2.8-2.8c0.8-0.8,2-0.8,2.8,0L43,47.4
			c0.8,0.8,0.8,2,0,2.8L40.2,53C39.4,53.8,38.1,53.8,37.4,53z"/>
	</g>
</g>
</svg>
