<?xml version="1.0" encoding="utf-8"?>
<!-- Generator: Adobe Illustrator 28.1.0, SVG Export Plug-In . SVG Version: 6.00 Build 0)  -->
<svg version="1.1"
	 id="svg4160" xmlns:inkscape="http://www.inkscape.org/namespaces/inkscape" xmlns:sodipodi="http://sodipodi.sourceforge.net/DTD/sodipodi-0.dtd" xmlns:cc="http://creativecommons.org/ns#" xmlns:dc="http://purl.org/dc/elements/1.1/" xmlns:rdf="http://www.w3.org/1999/02/22-rdf-syntax-ns#" xmlns:svg="http://www.w3.org/2000/svg" inkscape:version="1.1 (c4e8f9ed74, 2021-05-24)"
	 xmlns="http://www.w3.org/2000/svg" xmlns:xlink="http://www.w3.org/1999/xlink" x="0px" y="0px" viewBox="0 0 64 64"
	 style="enable-background:new 0 0 64 64;" xml:space="preserve">
<style type="text/css">
	.st0{opacity:0.998;fill:#F0EBDC;enable-background:new    ;}
</style>
<sodipodi:namedview  bordercolor="#666666" borderopacity="1" gridtolerance="10" guidetolerance="10" id="namedview8" inkscape:current-layer="layer2" inkscape:cx="28.239232" inkscape:cy="32.495384" inkscape:document-rotation="0" inkscape:pagecheckerboard="false" inkscape:pageopacity="0" inkscape:pageshadow="2" inkscape:window-height="826" inkscape:window-maximized="1" inkscape:window-width="1600" inkscape:window-x="0" inkscape:window-y="0" inkscape:zoom="7.4010512" objecttolerance="10" pagecolor="#cccccc" showgrid="false">
	<inkscape:grid  id="grid832" type="xygrid"></inkscape:grid>
</sodipodi:namedview>
<g id="layer2" transform="translate(-3.5328446,2.2636422)">
	<path id="rect852-3" sodipodi:nodetypes="ssscccccscccccccccccss" class="st0" d="M38,26.2h-5c-0.4,0-0.6-0.2-0.6-0.5V12.5
		c0-1-1.1-1.4-1.8-0.8l-1.7,1.6c-0.2,0.2-0.6,0.2-0.9,0l-2.4-2.2c-0.1-0.1-0.2-0.2-0.2-0.3c0-0.1,0-0.2,0.2-0.3l7.1-6.7l2.4-2.3
		c0.2-0.2,0.6-0.2,0.9,0l2.4,2.3l7.1,6.7c0.2,0.2,0.2,0.4,0,0.7l-2.4,2.2c-0.2,0.2-0.6,0.2-0.9,0l-1.7-1.6c-0.7-0.7-1.8-0.2-1.8,0.8
		v13.3C38.6,26,38.4,26.2,38,26.2z"/>
	<path id="path915" sodipodi:nodetypes="ssscccccscccccccccccss" class="st0" d="M39,32.2v-5c0-0.4,0.2-0.6,0.5-0.6h13.3
		c1,0,1.4-1.1,0.8-1.8L52,23.1c-0.2-0.2-0.2-0.6,0-0.9l2.2-2.4c0.1-0.1,0.2-0.2,0.3-0.2s0.2,0,0.3,0.2l6.7,7.1l2.3,2.4
		c0.2,0.2,0.2,0.6,0,0.9l-2.3,2.4l-6.7,7.1c-0.2,0.2-0.4,0.2-0.7,0L52,37.3c-0.2-0.2-0.2-0.6,0-0.9l1.6-1.7c0.7-0.7,0.2-1.8-0.8-1.8
		H39.5C39.3,32.8,39,32.6,39,32.2z"/>
	<path id="path1007" sodipodi:nodetypes="ssscccccscccccccccccss" class="st0" d="M33,33.2h5c0.4,0,0.6,0.2,0.6,0.5V47
		c0,1,1.1,1.4,1.8,0.8l1.7-1.6c0.2-0.2,0.6-0.2,0.9,0l2.4,2.2c0.1,0.1,0.2,0.2,0.2,0.3s0,0.2-0.2,0.3l-7.1,6.7L36,58.1
		c-0.2,0.2-0.6,0.2-0.9,0l-2.4-2.3l-7.1-6.7c-0.2-0.2-0.2-0.4,0-0.7l2.4-2.2c0.2-0.2,0.6-0.2,0.9,0l1.7,1.6c0.7,0.7,1.8,0.2,1.8-0.8
		V33.7C32.4,33.5,32.7,33.2,33,33.2z"/>
	<path id="path1169" sodipodi:nodetypes="ssscccccscccccccccccss" class="st0" d="M32,27.2v5c0,0.4-0.2,0.6-0.5,0.6H18.3
		c-1,0-1.4,1.1-0.8,1.8l1.6,1.7c0.2,0.2,0.2,0.6,0,0.9l-2.2,2.4c-0.1,0.1-0.2,0.2-0.3,0.2c-0.1,0-0.2,0-0.3-0.2l-6.7-7.1l-2.3-2.4
		c-0.2-0.2-0.2-0.6,0-0.9l2.3-2.4l6.7-7.1c0.2-0.2,0.4-0.2,0.7,0l2.2,2.4c0.2,0.2,0.2,0.6,0,0.9l-1.6,1.7c-0.7,0.7-0.2,1.8,0.8,1.8
		h13.3C31.8,26.6,32,26.9,32,27.2z"/>
</g>
</svg>
