<?xml version="1.0" encoding="utf-8"?>
<!-- Generator: Adobe Illustrator 28.1.0, SVG Export Plug-In . SVG Version: 6.00 Build 0)  -->
<svg version="1.1"
	 id="svg4160" xmlns:inkscape="http://www.inkscape.org/namespaces/inkscape" xmlns:sodipodi="http://sodipodi.sourceforge.net/DTD/sodipodi-0.dtd" xmlns:cc="http://creativecommons.org/ns#" xmlns:dc="http://purl.org/dc/elements/1.1/" xmlns:rdf="http://www.w3.org/1999/02/22-rdf-syntax-ns#" xmlns:svg="http://www.w3.org/2000/svg" inkscape:version="1.4.4 (dcaf3e7d9e, 2026-05-05)"
	 xmlns="http://www.w3.org/2000/svg" xmlns:xlink="http://www.w3.org/1999/xlink" x="0px" y="0px" viewBox="0 0 64 64"
	 style="enable-background:new 0 0 64 64;" xml:space="preserve">
<style type="text/css">
	.st0{opacity:0.998;fill:#F0EBDC;enable-background:new    ;}
</style>
<sodipodi:namedview  bordercolor="#666666" borderopacity="1" gridtolerance="10" guidetolerance="10" id="namedview8" inkscape:current-layer="layer2" inkscape:cx="22.273864" inkscape:cy="17.766058" inkscape:deskcolor="#002b36" inkscape:document-rotation="0" inkscape:pagecheckerboard="false" inkscape:pageopacity="1" inkscape:pageshadow="2" inkscape:showpageshadow="0" inkscape:window-height="792" inkscape:window-maximized="1" inkscape:window-width="1536" inkscape:window-x="0" inkscape:window-y="0" inkscape:zoom="5.6568543" objecttolerance="10" pagecolor="#002b36" showgrid="false">
	<inkscape:grid  id="grid832" originx="0" originy="0" spacingx="1" spacingy="1" type="xygrid" units="px"></inkscape:grid>
</sodipodi:namedview>
<g id="layer2" transform="translate(-3.5328446,2.2636422)">
	<path id="path2-3" sodipodi:nodetypes="sccs" class="st0" d="M35.5,52.9c2.7,0,4.9-2.2,4.9-4.9h-9.8C30.6,50.7,32.8,52.9,35.5,52.9
		z"/>
	<g id="g1">
		<path id="path2" sodipodi:nodetypes="cscssscscccccc" class="st0" d="M50.3,40.7V28.4c0-7.6-4-13.9-11.1-15.6v-1.7
			c0-2-1.6-3.7-3.7-3.7c-2,0-3.7,1.6-3.7,3.7v1.7c-7.1,1.7-11.1,8-11.1,15.6v12.3l-4.9,4.9v2.5h39.4v-2.5L50.3,40.7z"/>
		<path id="path582" sodipodi:nodetypes="ccccc" class="st0" d="M56.5,24.7h4.6c-0.3-7.4-4-14-9.6-18.2l-3.3,3.3
			C53,13.2,56.2,18.6,56.5,24.7z"/>
	</g>
	<path id="path582-0" sodipodi:nodetypes="ccccc" class="st0" d="M14.5,24.7H9.9c0.3-7.4,4-14,9.6-18.2l3.3,3.3
		C18,13.2,14.9,18.6,14.5,24.7z"/>
</g>
</svg>
