<?xml version="1.0" encoding="utf-8"?>
<!-- Generator: Adobe Illustrator 28.1.0, SVG Export Plug-In . SVG Version: 6.00 Build 0)  -->
<svg version="1.1"
	 id="svg4160" xmlns:inkscape="http://www.inkscape.org/namespaces/inkscape" xmlns:sodipodi="http://sodipodi.sourceforge.net/DTD/sodipodi-0.dtd" xmlns:cc="http://creativecommons.org/ns#" xmlns:dc="http://purl.org/dc/elements/1.1/" xmlns:rdf="http://www.w3.org/1999/02/22-rdf-syntax-ns#" xmlns:svg="http://www.w3.org/2000/svg" inkscape:version="1.0.2 (e86c870879, 2021-01-15, custom)"
	 xmlns="http://www.w3.org/2000/svg" xmlns:xlink="http://www.w3.org/1999/xlink" x="0px" y="0px" viewBox="0 0 64 64"
	 style="enable-background:new 0 0 64 64;" xml:space="preserve">
<style type="text/css">
	.st0{fill-rule:evenodd;clip-rule:evenodd;fill:#A3A7AA;}
</style>
<sodipodi:namedview  bordercolor="#666666" borderopacity="1" gridtolerance="10" guidetolerance="10" id="namedview13" inkscape:current-layer="svg4160" inkscape:cx="25.110607" inkscape:cy="23.911709" inkscape:document-rotation="0" inkscape:pageopacity="0" inkscape:pageshadow="2" inkscape:window-height="837" inkscape:window-maximized="1" inkscape:window-width="1600" inkscape:window-x="-8" inkscape:window-y="-8" inkscape:zoom="7.401051" objecttolerance="10" pagecolor="#ffffff" showgrid="true">
	</sodipodi:namedview>
<g id="g838" transform="matrix(1.5,0,0,1.5,-16,-16)">
	<path id="path850" sodipodi:nodetypes="ccccccccc" class="st0" d="M20.1,17c-0.6,0-1.1,0.5-1.1,1.1l0,27.8c0,0.6,0.5,1.1,1.1,1.1
		h7.7c0.6,0,1.1-0.5,1.1-1.1l0-27.8c0-0.6-0.5-1.1-1.1-1.1L20.1,17z"/>
	<path id="path844" sodipodi:nodetypes="cccccccccc" class="st0" d="M36.1,17c-0.6,0-1.1,0.5-1.1,1.1l0,27.8c0,0.6,0.5,1.1,1.1,1.1
		h7.7c0.6,0,1.1-0.5,1.1-1.1l0-14.2l0-13.6c0-0.6-0.5-1.1-1.1-1.1L36.1,17z"/>
</g>
</svg>
