<?xml version="1.0" encoding="utf-8"?>
<!-- Generator: Adobe Illustrator 28.1.0, SVG Export Plug-In . SVG Version: 6.00 Build 0)  -->
<svg version="1.1"
	 id="svg4160" xmlns:inkscape="http://www.inkscape.org/namespaces/inkscape" xmlns:sodipodi="http://sodipodi.sourceforge.net/DTD/sodipodi-0.dtd" xmlns:cc="http://creativecommons.org/ns#" xmlns:dc="http://purl.org/dc/elements/1.1/" xmlns:rdf="http://www.w3.org/1999/02/22-rdf-syntax-ns#" xmlns:svg="http://www.w3.org/2000/svg" inkscape:version="1.0.2 (e86c870879, 2021-01-15, custom)"
	 xmlns="http://www.w3.org/2000/svg" xmlns:xlink="http://www.w3.org/1999/xlink" x="0px" y="0px" viewBox="0 0 64 64"
	 style="enable-background:new 0 0 64 64;" xml:space="preserve">
<style type="text/css">
	.st0{opacity:0.995;fill:#3F5464;enable-background:new    ;}
	.st1{opacity:0.995;fill:#EED383;enable-background:new    ;}
</style>
<sodipodi:namedview  bordercolor="#666666" borderopacity="1.0" id="base" inkscape:current-layer="layer1" inkscape:cx="27.089677" inkscape:cy="33.479787" inkscape:document-rotation="0" inkscape:document-units="px" inkscape:pageopacity="0.0" inkscape:pageshadow="2" inkscape:snap-bbox="true" inkscape:snap-global="true" inkscape:window-height="837" inkscape:window-maximized="1" inkscape:window-width="1600" inkscape:window-x="-8" inkscape:window-y="-8" inkscape:zoom="5.6" pagecolor="#ffffff" showgrid="false" showguides="false" units="in">
	<inkscape:grid  id="grid4712" originx="-9.9771178" originy="-29.820954" type="xygrid"></inkscape:grid>
</sodipodi:namedview>
<g id="layer2" inkscape:groupmode="layer" inkscape:label="HeatBed 1">
</g>
<g id="layer1" transform="translate(-9.9771186,-13.402532)" inkscape:groupmode="layer" inkscape:label="HeatBed">
	<path id="rect852" sodipodi:nodetypes="scccccsscccccsccsssss" class="st0" d="M28.1,17.5c-0.2,0-0.6,0.2-0.6,0.4v16.7l-5.3,6.1
		v5.5v0.2v0.5c0,0.2,0.2,0.4,0.4,0.4H24c0.3,0.1,0.5,0.2,0.5,0.2v3.4l-2.1,2.7v19.5c0,0.2,0.2,0.4,0.4,0.4h5.4h5.6h27.7
		c0.2,0,0.4-0.2,0.4-0.4V17.9c0-0.2-0.2-0.4-0.4-0.4L28.1,17.5z"/>
	<path id="rect861" class="st1" d="M30.6,22.1L30.6,22.1c0.9,0,1.6,0.9,1.6,2v6c0,1.1-0.7,2-1.6,2h0c-0.9,0-1.6-0.9-1.6-2v-6
		C29,23,29.7,22.1,30.6,22.1z"/>
	<path id="rect865" class="st1" d="M34.6,22.1L34.6,22.1c0.9,0,1.6,0.9,1.6,2v6c0,1.1-0.7,2-1.6,2h0c-0.9,0-1.6-0.9-1.6-2v-6
		C33,23,33.7,22.1,34.6,22.1z"/>
	<path id="rect867" class="st1" d="M38.6,22.1L38.6,22.1c0.9,0,1.6,0.9,1.6,2v6c0,1.1-0.7,2-1.6,2h0c-0.9,0-1.6-0.9-1.6-2v-6
		C37,23,37.7,22.1,38.6,22.1z"/>
	<path id="rect869" class="st1" d="M42.6,19.4L42.6,19.4c0.9,0,1.6,0.9,1.6,2v8.7c0,1.1-0.7,2-1.6,2h0c-0.9,0-1.6-0.9-1.6-2v-8.7
		C41,20.3,41.7,19.4,42.6,19.4z"/>
	<path id="rect871" class="st1" d="M46.6,22.1L46.6,22.1c0.9,0,1.6,0.9,1.6,2v6c0,1.1-0.7,2-1.6,2h0c-0.9,0-1.6-0.9-1.6-2v-6
		C45,23,45.7,22.1,46.6,22.1z"/>
	<path id="rect873" class="st1" d="M50.6,19.4L50.6,19.4c0.9,0,1.6,0.9,1.6,2v8.7c0,1.1-0.7,2-1.6,2h0c-0.9,0-1.6-0.9-1.6-2v-8.7
		C49,20.3,49.7,19.4,50.6,19.4z"/>
	<path id="rect875" class="st1" d="M54.6,22.1L54.6,22.1c0.9,0,1.6,0.9,1.6,2v6c0,1.1-0.7,2-1.6,2h0c-0.9,0-1.6-0.9-1.6-2v-6
		C53,23,53.7,22.1,54.6,22.1z"/>
	<path id="rect877" class="st1" d="M58.6,22.1L58.6,22.1c0.9,0,1.6,0.9,1.6,2v6c0,1.1-0.7,2-1.6,2h0c-0.9,0-1.6-0.9-1.6-2v-6
		C57,23,57.7,22.1,58.6,22.1z"/>
</g>
</svg>
