<?xml version="1.0" encoding="utf-8"?>
<!-- Generator: Adobe Illustrator 28.1.0, SVG Export Plug-In . SVG Version: 6.00 Build 0)  -->
<svg version="1.1"
	 id="svg2" xmlns:inkscape="http://www.inkscape.org/namespaces/inkscape" xmlns:sodipodi="http://sodipodi.sourceforge.net/DTD/sodipodi-0.dtd" xmlns:cc="http://creativecommons.org/ns#" xmlns:dc="http://purl.org/dc/elements/1.1/" xmlns:rdf="http://www.w3.org/1999/02/22-rdf-syntax-ns#" xmlns:svg="http://www.w3.org/2000/svg" inkscape:export-filename="G:\Github\retroarch-assets\xmb\retrosystem\png\subsetting.png" inkscape:export-xdpi="384" inkscape:export-ydpi="384" inkscape:version="1.0.2 (e86c870879, 2021-01-15, custom)"
	 xmlns="http://www.w3.org/2000/svg" xmlns:xlink="http://www.w3.org/1999/xlink" x="0px" y="0px" viewBox="0 0 64 64"
	 style="enable-background:new 0 0 64 64;" xml:space="preserve">
<style type="text/css">
	.st0{opacity:0.998;fill:#F0EBDC;enable-background:new    ;}
</style>
<sodipodi:namedview  bordercolor="#666666" borderopacity="1" gridtolerance="10" guidetolerance="10" id="namedview4" inkscape:current-layer="svg2" inkscape:cx="21.71134" inkscape:cy="38.080205" inkscape:document-rotation="0" inkscape:pagecheckerboard="true" inkscape:pageopacity="0" inkscape:pageshadow="2" inkscape:window-height="837" inkscape:window-maximized="1" inkscape:window-width="1600" inkscape:window-x="-8" inkscape:window-y="-8" inkscape:zoom="5.2149125" objecttolerance="10" pagecolor="#ffffff" showgrid="false">
	<inkscape:grid  id="grid812" type="xygrid"></inkscape:grid>
</sodipodi:namedview>
<g id="g873" transform="translate(1.3843492,0.42532293)">
	<path id="path831" class="st0" d="M17.8,4.5c-0.4,0-0.5,0.3-0.7,0.7l-0.7,2.5c-0.1,0-0.1,0-0.2,0.1c-0.1,0-0.1,0-0.2,0.1
		c-0.1,0-0.2,0.1-0.3,0.1s-0.2,0.1-0.4,0.1c-0.1,0-0.1,0.1-0.2,0.1c-0.1,0-0.1,0-0.2,0.1c-0.1,0-0.2,0.1-0.3,0.1s-0.2,0.1-0.3,0.1
		s-0.1,0.1-0.2,0.1l0,0c-0.1,0-0.1,0-0.2,0.1c-0.1,0.1-0.2,0.1-0.3,0.2c-0.1,0-0.2,0.1-0.3,0.1s-0.2,0.1-0.2,0.1
		c-0.1,0-0.1,0.1-0.2,0.1l-2.2-1.3c-0.4-0.1-0.7-0.3-1,0l-2.9,2.9c-0.3,0.3-0.1,0.6,0,1L8.1,14c0,0.1-0.1,0.1-0.1,0.2
		c0,0.1-0.1,0.1-0.1,0.2c-0.1,0.1-0.1,0.2-0.1,0.3c-0.1,0.1-0.1,0.2-0.2,0.3l0,0c0,0,0,0.1-0.1,0.1c0,0.1-0.1,0.1-0.1,0.2
		c0,0.1-0.1,0.2-0.1,0.3s-0.1,0.2-0.1,0.3s0,0.1-0.1,0.2c0,0,0,0.1-0.1,0.1l0,0c0,0.1-0.1,0.2-0.1,0.4c0,0.1-0.1,0.2-0.1,0.3
		c0,0.1,0,0.1-0.1,0.2c0,0.1,0,0.1-0.1,0.2L4.1,18c-0.3,0.2-0.7,0.3-0.7,0.7v4.1c0,0.4,0.3,0.5,0.7,0.7l2.5,0.7c0,0.1,0,0.1,0.1,0.2
		c0,0.1,0,0.1,0.1,0.2c0,0.1,0.1,0.2,0.1,0.3C7,25,7,25.1,7.1,25.2l0,0c0,0.1,0,0.1,0.1,0.2l0,0c0,0.1,0,0.1,0.1,0.2
		c0,0.1,0.1,0.2,0.1,0.3c0,0.1,0.1,0.2,0.1,0.3c0,0.1,0.1,0.1,0.1,0.2s0,0.1,0.1,0.2s0.1,0.2,0.2,0.3C8,27,8,27.1,8.1,27.2
		c0,0.1,0.1,0.1,0.1,0.2s0.1,0.1,0.1,0.2L7,29.8c-0.1,0.4-0.3,0.7,0,1l2.9,2.9c0.3,0.3,0.6,0.1,1,0l2.2-1.3c0.1,0,0.1,0.1,0.2,0.1
		c0.1,0,0.1,0.1,0.2,0.1c0.1,0.1,0.2,0.1,0.3,0.1c0.1,0.1,0.2,0.1,0.3,0.2c0.1,0,0.1,0,0.2,0.1l0,0c0.1,0,0.1,0.1,0.2,0.1
		c0.1,0,0.2,0.1,0.3,0.1s0.2,0.1,0.4,0.2c0.1,0,0.1,0,0.2,0.1c0.1,0,0.1,0,0.2,0.1c0.1,0,0.2,0.1,0.3,0.1s0.2,0.1,0.4,0.1
		c0.1,0,0.2,0,0.2,0.1c0.1,0,0.1,0,0.2,0.1l0.7,2.5c0.2,0.3,0.3,0.7,0.7,0.7h4.1c0.4,0,0.5-0.3,0.7-0.7l0.7-2.5c0.1,0,0.1,0,0.2-0.1
		c0.1,0,0.2,0,0.2-0.1c0.1,0,0.2-0.1,0.4-0.1c0.1,0,0.2-0.1,0.3-0.1c0.1,0,0.1,0,0.2-0.1c0.1,0,0.1,0,0.2-0.1c0.1,0,0.2-0.1,0.4-0.2
		c0.1,0,0.2-0.1,0.3-0.1c0.1,0,0.1-0.1,0.2-0.1s0.1,0,0.2-0.1s0.2-0.1,0.3-0.2c0.1,0,0.2-0.1,0.3-0.1c0.1,0,0.1-0.1,0.2-0.1
		s0.1-0.1,0.2-0.1l2.2,1.3c0.4,0.1,0.7,0.3,1,0l2.9-2.9c0.3-0.3,0.1-0.6,0-1L32,27.6c0-0.1,0.1-0.1,0.1-0.2s0.1-0.1,0.1-0.2
		c0,0,0,0,0-0.1s0.1-0.2,0.1-0.2c0.1-0.1,0.1-0.2,0.2-0.3l0,0c0-0.1,0-0.1,0.1-0.2c0-0.1,0.1-0.1,0.1-0.2s0.1-0.2,0.1-0.3
		c0-0.1,0.1-0.2,0.1-0.3c0-0.1,0.1-0.1,0.1-0.2c0.1-0.2,0.1-0.3,0.2-0.5c0-0.1,0.1-0.2,0.1-0.3c0-0.1,0-0.2,0.1-0.3
		c0-0.1,0-0.1,0.1-0.2l2.5-0.7c0.3-0.2,0.7-0.3,0.7-0.7v-4.1c0-0.4-0.3-0.5-0.7-0.7l-2.5-0.7c0-0.1,0-0.1-0.1-0.2
		c0-0.1,0-0.1-0.1-0.2c0-0.1-0.1-0.2-0.1-0.3c0-0.1-0.1-0.2-0.1-0.4c0-0.1,0-0.1-0.1-0.2c0-0.1,0-0.1-0.1-0.2c0-0.1-0.1-0.2-0.1-0.3
		s-0.1-0.2-0.1-0.3s-0.1-0.1-0.1-0.2c0-0.1,0-0.1-0.1-0.2c-0.1-0.1-0.1-0.2-0.2-0.3c0-0.1-0.1-0.2-0.1-0.3s-0.1-0.1-0.1-0.2
		c0-0.1-0.1-0.1-0.1-0.2l1.3-2.2c0.1-0.4,0.3-0.7,0-1l-2.9-2.9c-0.3-0.3-0.6-0.1-1,0l-2.2,1.3c-0.1,0-0.1-0.1-0.2-0.1
		s-0.1-0.1-0.2-0.1c-0.1-0.1-0.2-0.1-0.3-0.2c-0.1-0.1-0.2-0.1-0.3-0.2c-0.1,0-0.1-0.1-0.2-0.1s-0.1-0.1-0.2-0.1
		C25.7,8,25.6,8,25.4,7.9c-0.1,0-0.2-0.1-0.3-0.1c-0.1,0-0.2-0.1-0.3-0.1h-0.1l0,0l0,0c-0.1,0-0.2-0.1-0.4-0.1
		c-0.1,0-0.2-0.1-0.3-0.1c-0.1,0-0.2,0-0.3-0.1c-0.1,0-0.1,0-0.2-0.1l-0.7-2.5c-0.2-0.3-0.3-0.7-0.7-0.7L17.8,4.5z M19.8,14L19.8,14
		h0.1c0.2,0,0.4,0,0.6,0l0,0c0.1,0,0.2,0,0.4,0.1c0,0,0,0,0.1,0s0.2,0,0.2,0c0.1,0,0.2,0.1,0.4,0.1l0,0c0.1,0,0.1,0,0.2,0.1l0,0l0,0
		c0.1,0,0.2,0.1,0.4,0.1l0,0c0.1,0,0.1,0,0.2,0.1l0,0l0,0c0.1,0,0.2,0.1,0.3,0.1l0,0c0.1,0,0.2,0.1,0.2,0.1l0,0
		c0.1,0,0.1,0.1,0.2,0.1c0,0,0.1,0,0.1,0.1l0,0c0.1,0.1,0.2,0.1,0.3,0.2c0.1,0.1,0.2,0.2,0.4,0.3l0,0l0.1,0.1l0,0
		c0.1,0.1,0.3,0.2,0.4,0.4c0,0,0.1,0,0.1,0.1l0,0c0.2,0.2,0.3,0.3,0.4,0.5l0.1,0.1c0,0,0,0.1,0.1,0.1c0.1,0.1,0.2,0.2,0.2,0.3l0,0
		c0,0.1,0.1,0.1,0.1,0.2c0,0,0,0,0,0.1c0.1,0.1,0.1,0.2,0.2,0.3l0,0c0,0.1,0.1,0.2,0.1,0.3l0,0c0,0.1,0.1,0.2,0.1,0.3l0,0l0,0
		c0,0.1,0,0.1,0.1,0.2v0.1c0,0.1,0.1,0.2,0.1,0.3c0,0.1,0,0.2,0.1,0.3l0,0c0,0.1,0.1,0.2,0.1,0.3l0,0l0,0c0,0.1,0,0.2,0.1,0.3
		c0,0.1,0,0.2,0,0.3l0,0c0,0.2,0,0.3,0,0.5c0,0.1,0,0.1,0,0.2v0.1c0,0.2,0,0.4,0,0.6c0,0.1,0,0.2,0,0.3l0,0c0,0.1,0,0.2,0,0.3
		c0,0.1,0,0.1-0.1,0.2c0,0.1,0,0.1,0,0.2s0,0.2-0.1,0.3c0,0.1-0.1,0.2-0.1,0.3c0,0.1-0.1,0.2-0.1,0.3l0,0c0,0,0,0.1-0.1,0.1
		c0,0.1-0.1,0.1-0.1,0.2s-0.1,0.2-0.1,0.3l0,0c0,0.1-0.1,0.1-0.1,0.2s-0.1,0.1-0.1,0.1c0,0.1-0.1,0.2-0.1,0.2l0,0
		c-0.1,0.1-0.2,0.2-0.3,0.4l-0.1,0.1l0,0c-0.1,0.1-0.2,0.3-0.4,0.4l-0.1,0.1l0,0c-0.2,0.2-0.3,0.3-0.5,0.4l0,0l0,0l0,0
		c0,0-0.1,0.1-0.2,0.1l0,0c0,0-0.1,0-0.1,0.1c-0.1,0.1-0.2,0.1-0.3,0.2c-0.1,0.1-0.2,0.1-0.3,0.2c-0.1,0.1-0.2,0.1-0.3,0.2l0,0
		c-0.1,0-0.2,0.1-0.3,0.1l0,0l0,0l0,0c-0.1,0-0.2,0.1-0.3,0.1l0,0l0,0c-0.1,0-0.2,0.1-0.3,0.1l0,0c0,0-0.1,0-0.1,0.1
		c-0.1,0-0.1,0-0.2,0.1c-0.1,0-0.1,0-0.2,0.1l0,0c-0.1,0-0.2,0-0.3,0.1h-0.1l0,0l0,0c-0.1,0-0.2,0-0.4,0.1c-0.1,0-0.2,0-0.3,0
		c-0.2,0-0.3,0-0.5,0l0,0h-0.1c-0.2,0-0.4,0-0.7,0c-0.1,0-0.2,0-0.3,0l0,0c-0.1,0-0.2,0-0.3,0l0,0h-0.1c-0.1,0-0.2,0-0.3-0.1
		c-0.1,0-0.2,0-0.3-0.1c-0.1,0-0.3-0.1-0.4-0.1S17,27,17,27l0,0l0,0l0,0c-0.1,0-0.2-0.1-0.3-0.1l0,0c-0.1,0-0.2-0.1-0.3-0.1l0,0l0,0
		c-0.1-0.1-0.2-0.1-0.3-0.2l0,0c-0.1,0-0.2-0.1-0.2-0.1c-0.1-0.1-0.2-0.2-0.4-0.3l0,0c-0.1,0-0.1-0.1-0.2-0.1l0,0L15.2,26
		c-0.1-0.1-0.3-0.2-0.4-0.3c-0.1-0.1-0.1-0.1-0.2-0.2c-0.1-0.1-0.2-0.2-0.3-0.3l0,0l0,0l-0.1-0.1l0,0c-0.1-0.1-0.2-0.2-0.3-0.4
		c-0.1-0.1-0.1-0.2-0.1-0.2c-0.1-0.1-0.1-0.2-0.2-0.3l0,0c-0.1-0.1-0.1-0.2-0.1-0.3l0,0l0,0c0-0.1-0.1-0.2-0.1-0.3l0,0
		c0-0.1-0.1-0.2-0.1-0.3c0-0.1-0.1-0.2-0.1-0.3c0-0.1,0-0.2-0.1-0.2c0-0.1-0.1-0.3-0.1-0.4s0-0.3-0.1-0.4c0-0.1,0-0.1,0-0.2l0,0l0,0
		c0-0.2,0-0.3,0-0.5v-0.1l0,0c0-0.2,0-0.4,0-0.7l0,0v-0.1c0-0.1,0-0.2,0-0.3c0-0.1,0-0.2,0-0.3l0,0c0-0.1,0.1-0.2,0.1-0.3
		c0-0.1,0-0.2,0.1-0.3l0,0c0-0.1,0.1-0.2,0.1-0.3l0,0c0-0.1,0.1-0.2,0.1-0.3l0,0l0,0c0-0.1,0.1-0.2,0.1-0.3l0,0
		c0-0.1,0.1-0.2,0.1-0.2l0,0l0,0c0.1-0.1,0.1-0.2,0.2-0.4c0,0,0-0.1,0.1-0.1c0,0,0-0.1,0.1-0.1c0.1-0.1,0.2-0.2,0.2-0.3
		c0.1-0.1,0.1-0.1,0.2-0.2l0,0l0,0c0.1-0.1,0.2-0.2,0.3-0.3C14.9,16.1,15,16,15,16l0,0c0.2-0.2,0.3-0.3,0.5-0.4
		c0.1-0.1,0.2-0.1,0.2-0.2c0.1-0.1,0.2-0.2,0.3-0.2l0,0c0.1-0.1,0.2-0.1,0.3-0.2c0.1-0.1,0.2-0.1,0.3-0.2l0,0c0.1,0,0.2-0.1,0.3-0.1
		c0.1-0.1,0.2-0.1,0.3-0.2c0.1,0,0.2-0.1,0.3-0.1c0.1,0,0.2-0.1,0.3-0.1c0.1,0,0.2-0.1,0.3-0.1l0,0c0.1,0,0.2-0.1,0.3-0.1
		c0.1,0,0.2,0,0.3-0.1c0,0,0,0,0.1,0s0.1,0,0.2,0h0.1c0.1,0,0.2,0,0.4,0c0.1,0,0.1,0,0.2,0C19.7,14,19.7,14,19.8,14L19.8,14z"/>
	<path id="path869" class="st0" d="M25.9,38.8c-0.1,0.3,0.1,0.6,0.4,0.9l2,1.5c0,0.1,0,0.1,0,0.2c0,0.1,0,0.1,0,0.2
		c0,0.1,0,0.2,0,0.3s0,0.2,0,0.4c0,0.1,0,0.1,0,0.2c0,0.1,0,0.1,0,0.2c0,0.1,0,0.2,0,0.4c0,0.1,0,0.2,0,0.3s0,0.2,0,0.2l0,0
		c0,0.1,0,0.1,0,0.2c0,0.1,0,0.3,0,0.4c0,0.1,0,0.2,0,0.3s0,0.2,0,0.3s0,0.1,0,0.2l-2,1.6c-0.2,0.3-0.5,0.5-0.3,0.9l1.6,3.7
		c0.2,0.3,0.5,0.3,0.9,0.3l2.5-0.4c0,0.1,0.1,0.1,0.1,0.1c0.1,0.1,0.1,0.1,0.2,0.2c0.1,0.1,0.1,0.2,0.2,0.2c0.1,0.1,0.2,0.2,0.2,0.3
		l0,0l0.1,0.1c0.1,0.1,0.1,0.1,0.2,0.2c0.1,0.1,0.2,0.2,0.3,0.2c0.1,0.1,0.2,0.2,0.3,0.2s0.1,0.1,0.2,0.1l0.1,0.1l0,0
		c0.1,0.1,0.2,0.2,0.3,0.2c0.1,0.1,0.2,0.1,0.3,0.2c0.1,0,0.1,0.1,0.2,0.1c0.1,0,0.1,0.1,0.2,0.1l-0.2,2.5c0.1,0.4,0,0.7,0.4,0.9
		l3.8,1.5c0.3,0.1,0.6-0.1,0.9-0.4l1.5-2c0.1,0,0.1,0,0.2,0c0.1,0,0.1,0,0.2,0c0.1,0,0.2,0,0.3,0s0.2,0,0.4,0l0,0c0.1,0,0.1,0,0.2,0
		l0,0c0.1,0,0.1,0,0.2,0c0.1,0,0.2,0,0.4,0c0.1,0,0.2,0,0.3,0s0.2,0,0.2,0c0.1,0,0.1,0,0.2,0c0.1,0,0.2,0,0.3,0s0.2,0,0.3,0
		s0.2,0,0.2,0c0.1,0,0.1,0,0.2,0l1.6,2c0.3,0.2,0.5,0.5,0.9,0.3l3.7-1.6c0.3-0.2,0.3-0.5,0.3-0.9L50,53.2c0.1,0,0.1-0.1,0.2-0.1
		c0.1,0,0.1-0.1,0.2-0.1c0.1-0.1,0.2-0.1,0.2-0.2c0.1-0.1,0.2-0.2,0.3-0.3l0.1-0.1l0,0l0.1-0.1c0.1-0.1,0.2-0.2,0.2-0.2
		c0.1-0.1,0.2-0.2,0.3-0.3c0-0.1,0.1-0.1,0.1-0.2l0.1-0.1c0.1-0.1,0.1-0.2,0.2-0.3c0.1-0.1,0.2-0.2,0.2-0.3c0.1-0.1,0.1-0.1,0.2-0.2
		l0.1-0.1l2.5,0.2c0.4-0.1,0.7,0,0.9-0.4l1.5-3.8c0.1-0.3-0.1-0.6-0.4-0.9l-2.1-1.5c0-0.1,0-0.1,0-0.2c0-0.1,0-0.2,0-0.2
		c0-0.1,0-0.3,0-0.4c0-0.1,0-0.2,0-0.3s0-0.1,0-0.2c0-0.1,0-0.1,0-0.2c0-0.1,0-0.3,0-0.4c0-0.1,0-0.2,0-0.3s0-0.1,0-0.2
		c0-0.1,0-0.1,0-0.2c0-0.1,0-0.3,0-0.4c0-0.1,0-0.2,0-0.3s0-0.2,0-0.2c0-0.1,0-0.1,0-0.2l2-1.6c0.2-0.3,0.5-0.6,0.3-0.9l-1.6-3.7
		C55.4,34,55.1,34,54.7,34l-2.5,0.4c0-0.1-0.1-0.1-0.1-0.2c0-0.1-0.1-0.1-0.1-0.2l0,0c-0.1-0.1-0.1-0.1-0.2-0.2
		c-0.1-0.1-0.2-0.2-0.3-0.3l0,0l-0.1-0.1l-0.1-0.1c-0.1-0.1-0.2-0.2-0.3-0.2c-0.1-0.1-0.2-0.2-0.3-0.2c-0.1-0.1-0.1-0.1-0.2-0.2
		c-0.1-0.1-0.3-0.2-0.4-0.3c0-0.3-0.1-0.4-0.1-0.4c-0.1-0.1-0.1-0.1-0.2-0.2c-0.1,0-0.1-0.1-0.1-0.1l0.2-2.5c-0.1-0.4,0-0.7-0.4-0.9
		l-3.8-1.5c-0.3-0.1-0.6,0.1-0.9,0.4l-1.5,2c-0.1,0-0.1,0-0.2,0c-0.1,0-0.1,0-0.2,0c-0.1,0-0.2,0-0.3,0s-0.3,0-0.4,0
		c-0.1,0-0.1,0-0.2,0c-0.1,0-0.1,0-0.2,0c-0.1,0-0.3,0-0.4,0c-0.1,0-0.2,0-0.3,0s-0.2,0-0.2,0c-0.1,0-0.1,0-0.2,0
		c-0.1,0-0.2,0-0.4,0c-0.1,0-0.2,0-0.3,0s-0.2,0-0.3,0s-0.1,0-0.2,0l-1.6-2c-0.3-0.2-0.5-0.5-0.9-0.3l-3.7,1.6
		C33,28.9,33,29.3,33,29.6l0.4,2.5c-0.1,0-0.1,0.1-0.2,0.1c-0.1,0-0.1,0.1-0.2,0.1c-0.1,0.1-0.2,0.2-0.3,0.2
		c-0.1,0.1-0.2,0.2-0.3,0.2l-0.1,0.1l-0.1,0.1c-0.1,0.1-0.2,0.2-0.3,0.3c-0.1,0.1-0.1,0.1-0.2,0.2c-0.1,0.1-0.1,0.1-0.2,0.2
		c0,0,0,0.1-0.1,0.1l0,0l0,0c-0.1,0.1-0.2,0.2-0.2,0.3c-0.1,0.1-0.1,0.2-0.2,0.2c-0.1,0.1-0.1,0.1-0.2,0.2l-0.1,0.1l-2.5-0.2
		c-0.4,0.1-0.7,0-0.9,0.4L25.9,38.8z M35.4,40.3L35.4,40.3L35.4,40.3c0.1-0.3,0.1-0.4,0.2-0.6l0,0c0.1-0.1,0.1-0.2,0.2-0.3
		c0,0,0,0,0-0.1s0.1-0.1,0.1-0.2c0.1-0.1,0.1-0.2,0.2-0.3l0,0c0-0.1,0.1-0.1,0.1-0.2l0,0l0,0c0.1-0.1,0.2-0.2,0.3-0.3l0,0
		c0.1-0.1,0.1-0.1,0.1-0.2l0,0l0,0c0.1-0.1,0.2-0.2,0.3-0.2l0,0c0.1-0.1,0.1-0.1,0.2-0.2l0,0l0.1-0.1l0.1-0.1l0,0
		c0.1-0.1,0.2-0.1,0.3-0.2c0.1-0.1,0.2-0.2,0.4-0.2l0,0l0.1-0.1l0,0c0.2-0.1,0.3-0.2,0.5-0.3h0.1l0,0c0.2-0.1,0.4-0.2,0.6-0.2
		c0.1,0,0.1,0,0.2,0h0.1c0.1,0,0.2-0.1,0.4-0.1l0,0c0.1,0,0.1,0,0.2,0c0,0,0,0,0.1,0s0.2,0,0.4-0.1l0,0c0.1,0,0.2,0,0.3,0l0,0
		c0.1,0,0.2,0,0.3,0l0,0l0,0c0.1,0,0.1,0,0.2,0h0.1c0.1,0,0.2,0,0.3,0s0.2,0,0.3,0l0,0c0.1,0,0.2,0,0.3,0l0,0l0,0
		c0.1,0,0.2,0,0.3,0.1c0.1,0,0.2,0,0.3,0.1l0,0c0.1,0,0.3,0.1,0.4,0.1c0.1,0,0.1,0,0.2,0.1c0,0,0,0,0.1,0c0.2,0.1,0.4,0.2,0.6,0.2
		c0.1,0,0.2,0.1,0.3,0.2l0,0c0.1,0.1,0.2,0.1,0.3,0.2c0.1,0,0.1,0.1,0.2,0.1l0.1,0.1c0.1,0.1,0.1,0.1,0.2,0.2
		c0.1,0.1,0.2,0.1,0.3,0.2C45.9,38,46,38,46,38.1l0,0l0.1,0.1l0.1,0.1c0.1,0.1,0.2,0.2,0.2,0.2l0,0c0,0.1,0.1,0.1,0.1,0.2l0.1,0.1
		c0.1,0.1,0.1,0.1,0.2,0.2l0,0c0.1,0.1,0.2,0.2,0.2,0.4c0,0.1,0.1,0.1,0.1,0.1l0,0c0.1,0.2,0.2,0.3,0.2,0.5c0,0,0,0.1,0.1,0.1l0,0
		c0.1,0.2,0.2,0.4,0.2,0.6l0,0l0,0l0,0c0,0.1,0,0.1,0.1,0.2l0,0V41c0,0.1,0.1,0.2,0.1,0.3s0,0.2,0.1,0.3c0,0.1,0,0.2,0.1,0.3l0,0
		c0,0.1,0,0.2,0,0.3l0,0l0,0l0,0c0,0.1,0,0.2,0,0.3l0,0l0,0c0,0.1,0,0.2,0,0.3l0,0c0,0.1,0,0.1,0,0.2c0,0.1,0,0.1,0,0.2
		c0,0.1,0,0.1,0,0.2l0,0c0,0.1,0,0.2,0,0.3v0.1l0,0l0,0c0,0.1-0.1,0.2-0.1,0.4c0,0.1,0,0.2-0.1,0.3c0,0.2-0.1,0.3-0.2,0.5l0,0v0.1
		c-0.1,0.2-0.2,0.4-0.3,0.6c0,0.1-0.1,0.2-0.2,0.3l0,0c0,0.1-0.1,0.2-0.1,0.3l0,0c0,0,0,0,0,0.1c-0.1,0.1-0.1,0.2-0.2,0.2
		c-0.1,0.1-0.1,0.1-0.2,0.2c-0.1,0.1-0.2,0.2-0.3,0.3s-0.1,0.1-0.2,0.2l0,0l0,0l0,0c-0.1,0.1-0.2,0.2-0.2,0.2l0,0
		c-0.1,0.1-0.2,0.2-0.2,0.2l0,0l0,0c-0.1,0.1-0.2,0.2-0.3,0.2l0,0c-0.1,0.1-0.1,0.1-0.2,0.2c-0.1,0.1-0.2,0.2-0.4,0.2l0,0
		c-0.1,0-0.1,0.1-0.2,0.1l0,0c0,0-0.1,0-0.1,0.1c-0.1,0.1-0.3,0.2-0.4,0.2c-0.1,0-0.1,0.1-0.2,0.1c-0.1,0.1-0.3,0.1-0.4,0.2l0,0l0,0
		c-0.1,0-0.1,0-0.2,0l0,0c-0.1,0-0.3,0.1-0.4,0.1c-0.1,0-0.2,0-0.3,0s-0.2,0-0.4,0.1l0,0c-0.1,0-0.2,0-0.3,0l0,0l0,0
		c-0.1,0-0.2,0-0.3,0l0,0c-0.1,0-0.2,0-0.3,0s-0.2,0-0.3,0s-0.2,0-0.3,0s-0.3,0-0.4-0.1c-0.1,0-0.3-0.1-0.4-0.1
		c-0.1,0-0.1,0-0.2-0.1l0,0l0,0c-0.2,0-0.3-0.1-0.5-0.2h-0.1l0,0c-0.2-0.1-0.4-0.2-0.6-0.3l0,0h-0.1c-0.1,0-0.2-0.1-0.2-0.1
		c-0.1,0-0.2-0.1-0.3-0.1l0,0c-0.1-0.1-0.2-0.1-0.3-0.2c-0.1-0.1-0.2-0.1-0.3-0.2l0,0c-0.1-0.1-0.2-0.1-0.2-0.2l0,0
		c-0.1-0.1-0.2-0.1-0.2-0.2l0,0l0,0c-0.1-0.1-0.2-0.2-0.2-0.3l0,0c-0.1-0.1-0.1-0.1-0.2-0.2l0,0l0,0c-0.1-0.1-0.2-0.2-0.3-0.3
		c0,0,0-0.1-0.1-0.1c0,0,0-0.1-0.1-0.1c-0.1-0.1-0.1-0.2-0.2-0.3c0-0.1-0.1-0.1-0.1-0.2l0,0l0,0c-0.1-0.1-0.1-0.2-0.2-0.4
		c0-0.1-0.1-0.1-0.1-0.2l0,0c-0.1-0.2-0.2-0.4-0.2-0.6c0-0.1-0.1-0.2-0.1-0.3S35,44.2,35,44l0,0c0-0.1,0-0.2-0.1-0.3
		c0-0.1,0-0.2-0.1-0.3l0,0c0-0.1,0-0.2,0-0.3s0-0.2,0-0.4c0-0.1,0-0.2,0-0.3s0-0.2,0-0.4c0-0.1,0-0.2,0-0.3l0,0c0-0.1,0-0.2,0-0.3
		s0-0.2,0.1-0.3l0,0c0-0.1,0-0.1,0-0.2v-0.1c0-0.1,0.1-0.2,0.1-0.4c0-0.1,0-0.1,0.1-0.2C35.4,40.4,35.4,40.3,35.4,40.3L35.4,40.3z"
		/>
</g>
</svg>
