<?xml version="1.0" encoding="utf-8"?>
<!-- Generator: Adobe Illustrator 28.1.0, SVG Export Plug-In . SVG Version: 6.00 Build 0)  -->
<svg version="1.1"
	 id="svg4160" xmlns:inkscape="http://www.inkscape.org/namespaces/inkscape" xmlns:sodipodi="http://sodipodi.sourceforge.net/DTD/sodipodi-0.dtd" xmlns:cc="http://creativecommons.org/ns#" xmlns:dc="http://purl.org/dc/elements/1.1/" xmlns:rdf="http://www.w3.org/1999/02/22-rdf-syntax-ns#" xmlns:svg="http://www.w3.org/2000/svg" inkscape:version="1.1 (c4e8f9ed74, 2021-05-24)"
	 xmlns="http://www.w3.org/2000/svg" xmlns:xlink="http://www.w3.org/1999/xlink" x="0px" y="0px" viewBox="0 0 64 64"
	 style="enable-background:new 0 0 64 64;" xml:space="preserve">
<style type="text/css">
	.st0{opacity:0.998;}
	.st1{opacity:0.998;fill:#F0EBDC;enable-background:new    ;}
	.st2{fill:none;stroke:#F0EBDC;stroke-width:8;stroke-linecap:round;stroke-linejoin:round;}
</style>
<sodipodi:namedview  bordercolor="#666666" borderopacity="1" gridtolerance="10" guidetolerance="10" id="namedview8" inkscape:current-layer="g846" inkscape:cx="33.103406" inkscape:cy="39.251181" inkscape:document-rotation="0" inkscape:pagecheckerboard="false" inkscape:pageopacity="0" inkscape:pageshadow="2" inkscape:window-height="826" inkscape:window-maximized="1" inkscape:window-width="1600" inkscape:window-x="0" inkscape:window-y="0" inkscape:zoom="7.4010512" objecttolerance="10" pagecolor="#002b36" showgrid="false" showguides="false">
	<inkscape:grid  id="grid832" type="xygrid"></inkscape:grid>
</sodipodi:namedview>
<g id="layer2" transform="translate(-3.5328446,2.2636422)">
	<g id="g868" transform="translate(0,3.9999998)" class="st0">
		<g id="rect852" class="st0">
			<g id="g846" transform="translate(0,0.99999985)">
				<g id="g2599" transform="translate(0,-5.0267663)">
					<g id="g2505" transform="translate(0,4)">
						<path id="rect852-3" sodipodi:nodetypes="ssscccccscccccccccccss" class="st1" d="M45.5,12.8V6.4c0-0.5,0.3-0.7,0.6-0.7h1
							c1.2,0,1.9-1.5,1-2.4l-2.1-2.2c-0.3-0.3-0.3-0.8,0-1.1l2.9-3c0.1-0.1,0.3-0.2,0.4-0.2c0.1,0,0.3,0,0.4,0.2L58.4,6l2.9,3
							c0.3,0.3,0.3,0.8,0,1.1l-2.9,3l-8.6,9.1c-0.3,0.3-0.6,0.3-0.9,0l-2.9-3c-0.3-0.3-0.3-0.8,0-1.1l2.1-2.2c0.8-0.9,0.2-2.4-1-2.4
							h-1C45.8,13.6,45.5,13.3,45.5,12.8z"/>
						<path id="path1007" sodipodi:nodetypes="cccc" class="st2" d="M51.7,9.6H36.6L20.7,41.8h-7.4"/>
					</g>
					<g id="g2511" transform="matrix(1,0,0,-1,0,55.526249)">
						<path id="path2507" sodipodi:nodetypes="ssscccccscccccccccccss" class="st1" d="M45.5,12.8V6.4c0-0.5,0.3-0.7,0.6-0.7h1
							c1.2,0,1.9-1.5,1-2.4l-2.1-2.2c-0.3-0.3-0.3-0.8,0-1.1l2.9-3c0.1-0.1,0.3-0.2,0.4-0.2c0.1,0,0.3,0,0.4,0.2L58.4,6l2.9,3
							c0.3,0.3,0.3,0.8,0,1.1l-2.9,3l-8.6,9.1c-0.3,0.3-0.6,0.3-0.9,0l-2.9-3c-0.3-0.3-0.3-0.8,0-1.1l2.1-2.2c0.8-0.9,0.2-2.4-1-2.4
							h-1C45.8,13.6,45.5,13.3,45.5,12.8z"/>
						<path id="path2509" sodipodi:nodetypes="cccc" class="st2" d="M51.7,9.6H36.6L20.7,41.8h-7.4"/>
					</g>
				</g>
			</g>
		</g>
	</g>
</g>
</svg>
