<?xml version="1.0" encoding="utf-8"?>
<!-- Generator: Adobe Illustrator 28.1.0, SVG Export Plug-In . SVG Version: 6.00 Build 0)  -->
<svg version="1.1"
	 id="svg8" xmlns:inkscape="http://www.inkscape.org/namespaces/inkscape" xmlns:sodipodi="http://sodipodi.sourceforge.net/DTD/sodipodi-0.dtd" xmlns:svg="http://www.w3.org/2000/svg" inkscape:version="1.2.2 (b0a8486541, 2022-12-01)"
	 xmlns="http://www.w3.org/2000/svg" xmlns:xlink="http://www.w3.org/1999/xlink" x="0px" y="0px" viewBox="0 0 64 64"
	 style="enable-background:new 0 0 64 64;" xml:space="preserve">
<style type="text/css">
	.st0{fill:#F0EBDC;fill-opacity:0.9804;}
	.st1{fill:#A3A7AA;}
	.st2{fill:#3F5464;}
</style>
<sodipodi:namedview  bordercolor="#666666" borderopacity="1.0" id="namedview8" inkscape:current-layer="g6874" inkscape:cx="7.0860489" inkscape:cy="35.183057" inkscape:deskcolor="#d1d1d1" inkscape:pagecheckerboard="0" inkscape:pageopacity="1" inkscape:showpageshadow="2" inkscape:window-height="826" inkscape:window-maximized="1" inkscape:window-width="1600" inkscape:window-x="0" inkscape:window-y="0" inkscape:zoom="6.0682618" pagecolor="#002b36" showgrid="false">
	</sodipodi:namedview>
<g id="g6874" transform="matrix(1.4222222,0,0,1.4222222,-13.51111,-13.51111)">
	<path id="path2" vector-effect="non-scaling-stroke" class="st0" d="M32,13c10.5,0,19,8.5,19,19s-8.5,19-19,19s-19-8.5-19-19
		S21.5,13,32,13z"/>
	<path id="path7" vector-effect="non-scaling-stroke" class="st1" d="M18.3,24.2c-0.4-0.2-0.6-0.6-0.7-1c-0.1-0.4,0-0.9,0.3-1.2l0,0
		l0,0c3.1-4.1,7.7-6.7,12.8-7.4l0,0l0,0c0.4-0.1,0.8,0.1,1.2,0.4c0.3,0.3,0.5,0.7,0.5,1.1l0.1,9.2l0,0c0,1.5-0.8,2.9-2,3.6
		s-2.9,0.7-4.1,0L18.3,24.2z"/>
	<path id="path8" vector-effect="non-scaling-stroke" class="st2" d="M20.4,25.5l0.3-0.5l0,0c2.4-3.9,6.7-6.4,11.3-6.4l0.3,0
		l0.1,6.8l0,0c0,1.5-0.8,2.9-2.1,3.6c-1.3,0.7-2.9,0.7-4.1,0L20.4,25.5z"/>
	<path id="path5" vector-effect="non-scaling-stroke" class="st1" d="M32.4,48.1c0,0.4-0.2,0.8-0.5,1.1s-0.7,0.4-1.2,0.4l0,0l0,0
		c-5.1-0.6-9.7-3.3-12.8-7.4l0,0l0,0c-0.3-0.3-0.4-0.8-0.3-1.2c0.1-0.4,0.3-0.8,0.7-1l7.9-4.7l0,0c1.3-0.8,2.9-0.8,4.1,0
		c1.3,0.7,2.1,2.1,2,3.6L32.4,48.1z"/>
	<path id="path6" vector-effect="non-scaling-stroke" class="st2" d="M32.4,45.7l-0.6,0l0,0c-4.6-0.1-8.9-2.6-11.2-6.6l-0.2-0.3
		l5.9-3.5l0,0c1.3-0.8,2.9-0.8,4.1,0c1.3,0.7,2.1,2.1,2,3.6L32.4,45.7z"/>
	<path id="path3" vector-effect="non-scaling-stroke" class="st1" d="M45.7,23.9c0.4-0.2,0.8-0.3,1.2-0.1c0.4,0.1,0.7,0.4,0.9,0.8
		l0,0l0,0c2,4.7,2,10,0,14.7l0,0l0,0c-0.2,0.4-0.5,0.7-0.9,0.8c-0.4,0.1-0.8,0.1-1.2-0.1l-8-4.5l0,0c-1.3-0.7-2.1-2.1-2.1-3.6
		c0-1.5,0.8-2.8,2.1-3.6L45.7,23.9z"/>
	<path id="path4" vector-effect="non-scaling-stroke" class="st2" d="M43.6,25.1l0.3,0.5l0,0c2.2,4.1,2.2,9-0.1,13l-0.2,0.3
		l-5.9-3.3l0,0c-1.3-0.7-2.1-2.1-2.1-3.6c0-1.5,0.8-2.8,2.1-3.6L43.6,25.1z"/>
</g>
</svg>
