<?xml version="1.0" encoding="utf-8"?>
<!-- Generator: Adobe Illustrator 28.1.0, SVG Export Plug-In . SVG Version: 6.00 Build 0)  -->
<svg version="1.1"
	 id="svg29" xmlns:inkscape="http://www.inkscape.org/namespaces/inkscape" xmlns:sodipodi="http://sodipodi.sourceforge.net/DTD/sodipodi-0.dtd" xmlns:svg="http://www.w3.org/2000/svg" inkscape:version="1.2.2 (b0a8486541, 2022-12-01)"
	 xmlns="http://www.w3.org/2000/svg" xmlns:xlink="http://www.w3.org/1999/xlink" x="0px" y="0px" viewBox="0 0 23.5 50"
	 style="enable-background:new 0 0 23.5 50;" xml:space="preserve">
<style type="text/css">
	.st0{fill:#3F5464;}
	.st1{fill:#EED383;}
	.st2{fill:#F0EBDC;}
</style>
<sodipodi:namedview  bordercolor="#eeeeee" borderopacity="1" id="namedview31" inkscape:current-layer="svg29" inkscape:cx="-43.183655" inkscape:cy="-3.172259" inkscape:deskcolor="#505050" inkscape:pagecheckerboard="0" inkscape:pageopacity="0" inkscape:showpageshadow="0" inkscape:window-height="826" inkscape:window-maximized="1" inkscape:window-width="1600" inkscape:window-x="0" inkscape:window-y="0" inkscape:zoom="4.8861079" pagecolor="#505050" showgrid="false" showguides="false">
	</sodipodi:namedview>
<path id="path2" vector-effect="non-scaling-stroke" class="st0" d="M19.7,0c2.1,0,3.7,11.2,3.7,25s-1.7,25-3.7,25S16,38.8,16,25
	S17.7,0,19.7,0z"/>
<path id="path6" class="st1" d="M19.7,3.1L19.7,3.1H5.5c1.2,4.2,2,12.4,2,21.9s-0.8,17.7-2,21.9h14.2c1.3,0,2.4-9.8,2.4-21.9
	S21,3.1,19.7,3.1z"/>
<path id="path2-3-7" sodipodi:nodetypes="csccscc" class="st0" d="M3.7,0C1.7,0,0,11.2,0,25s1.7,25,3.7,25h1.4
	c2.1,0,3.7-11.2,3.7-25S7.2,0,5.1,0H3.7z"/>
<path id="path1437" class="st2" d="M3.7,0C1.7,0,0,11.2,0,25s1.7,25,3.7,25s3.7-11.2,3.7-25S5.8,0,3.7,0z M3.7,14.7
	c0.9,0,1.5,4.6,1.5,10.4S4.6,35.4,3.7,35.4S2.2,30.7,2.2,25S2.9,14.7,3.7,14.7z"/>
</svg>
