<?xml version="1.0" encoding="utf-8"?>
<!-- Generator: Adobe Illustrator 28.1.0, SVG Export Plug-In . SVG Version: 6.00 Build 0)  -->
<svg version="1.1"
	 id="svg57" xmlns:inkscape="http://www.inkscape.org/namespaces/inkscape" xmlns:sodipodi="http://sodipodi.sourceforge.net/DTD/sodipodi-0.dtd" xmlns:cc="http://creativecommons.org/ns#" xmlns:dc="http://purl.org/dc/elements/1.1/" xmlns:rdf="http://www.w3.org/1999/02/22-rdf-syntax-ns#" xmlns:svg="http://www.w3.org/2000/svg" inkscape:version="1.1 (c4e8f9ed74, 2021-05-24)"
	 xmlns="http://www.w3.org/2000/svg" xmlns:xlink="http://www.w3.org/1999/xlink" x="0px" y="0px" viewBox="0 0 64 64"
	 style="enable-background:new 0 0 64 64;" xml:space="preserve">
<style type="text/css">
	.st0{opacity:0.998;fill:#A3A7AA;enable-background:new    ;}
	.st1{opacity:0.998;fill:#DCDCDC;stroke:#DCDCDC;stroke-miterlimit:10;enable-background:new    ;}
	.st2{fill:#3F5464;}
	.st3{opacity:0.998;fill:#3F5464;enable-background:new    ;}
	.st4{opacity:0.998;fill:#EEE8D5;stroke:#F0EBDC;stroke-miterlimit:10;enable-background:new    ;}
</style>
<g id="g863_00000090257907031068418260000017329870284313591170_" transform="matrix(0.33,0,0,0.33,35.19,34.062103)">
	<rect id="rect853_00000157266381458738748550000017101983747927222965_" x="-76.3" y="-44.9" class="st0" width="50" height="18"/>
	<rect id="rect855_00000100379997999896243070000013168241599927615639_" x="-63.8" y="-44.9" class="st1" width="25" height="18"/>
	<path id="path857_00000039827374198755212150000010188100035574603452_" class="st2" d="M-63.8-26.9h25l-8.3,10h-8.3L-63.8-26.9z"
		/>
	<rect id="rect859_00000147932358962345731180000003463186306570442143_" x="-67.3" y="-54.9" class="st3" width="32" height="10"/>
	<path id="path861_00000057854171299204822620000001782947166309147799_" class="st3" d="M-73.8-72.9v10v6c0,1.1,0.9,2,2,2h41
		c1.1,0,2-0.9,2-2v-6v-10H-73.8z"/>
</g>
<sodipodi:namedview  bordercolor="#666666" borderopacity="1" gridtolerance="10" guidetolerance="10" id="namedview17" inkscape:current-layer="svg57" inkscape:cx="4.0764331" inkscape:cy="42.700637" inkscape:document-rotation="0" inkscape:pagecheckerboard="false" inkscape:pageopacity="1" inkscape:pageshadow="2" inkscape:window-height="826" inkscape:window-maximized="1" inkscape:window-width="1600" inkscape:window-x="0" inkscape:window-y="0" inkscape:zoom="4.90625" objecttolerance="10" pagecolor="#002b36" showgrid="false">
	</sodipodi:namedview>
<path id="path3691" sodipodi:nodetypes="sccccccsccccccssssccccccs" class="st4" d="M39.4,5c-0.1,0-0.2,0.1-0.3,0.2l-6.7,7l-2.2,2.3
	c-0.2,0.2-0.2,0.6,0,0.9l2.2,2.3l6.7,7c0.1,0.1,0.2,0.2,0.3,0.2c0.1,0,0.2,0,0.3-0.2l2.2-2.3c0.2-0.2,0.2-0.6,0-0.9l-1.6-1.7
	c-0.7-0.7-0.2-1.8,0.8-1.8l1.3,0C48.4,18.4,53,23.3,53,29.4c0,1.7,1.3,3,3,3s3-1.3,3-3C59,20.1,51.7,12,42.6,12h0l-1.4-0.1
	c-0.9,0-1.4-1.1-0.8-1.8L42,8.4c0.2-0.2,0.2-0.6,0-0.9l-2.2-2.3C39.6,5.1,39.5,5,39.4,5z"/>
<g id="g863" transform="matrix(0.33,0,0,0.33,35.19,34.062103)">
	<rect id="rect853" x="7" y="32.4" class="st0" width="50" height="18"/>
	<rect id="rect855" x="19.6" y="32.4" class="st1" width="25" height="18"/>
	<path id="path857" class="st2" d="M19.5,50.4h25l-8.3,10h-8.3L19.5,50.4z"/>
	<rect id="rect859" x="16.1" y="22.4" class="st3" width="32" height="10"/>
	<path id="path861" class="st3" d="M9.6,4.4v10v6c0,1.1,0.9,2,2,2h41c1.1,0,2-0.9,2-2v-6v-10H9.6z"/>
</g>
<path id="path4175" sodipodi:nodetypes="sccccccsccccccssssccccccs" class="st4" d="M24.6,59.4c0.1,0,0.2-0.1,0.3-0.2l6.7-7l2.2-2.3
	c0.2-0.2,0.2-0.6,0-0.9l-2.2-2.3l-6.7-7c-0.1-0.1-0.2-0.2-0.3-0.2c-0.1,0-0.2,0-0.3,0.2l-2.2,2.3c-0.2,0.2-0.2,0.6,0,0.9l1.6,1.7
	c0.7,0.7,0.2,1.8-0.8,1.8l-1.3,0C15.6,45.9,11,41.1,11,35c0-1.7-1.3-3-3-3s-3,1.3-3,3c0,9.3,7.3,17.3,16.5,17.3h0l1.4,0.1
	c0.9,0,1.4,1.1,0.8,1.8L22.1,56c-0.2,0.2-0.2,0.6,0,0.9l2.2,2.3C24.4,59.3,24.5,59.4,24.6,59.4z"/>
</svg>
