<?xml version="1.0" encoding="utf-8"?>
<!-- Generator: Adobe Illustrator 28.1.0, SVG Export Plug-In . SVG Version: 6.00 Build 0)  -->
<svg version="1.1"
	 id="svg15" xmlns:inkscape="http://www.inkscape.org/namespaces/inkscape" xmlns:sodipodi="http://sodipodi.sourceforge.net/DTD/sodipodi-0.dtd" xmlns:cc="http://creativecommons.org/ns#" xmlns:dc="http://purl.org/dc/elements/1.1/" xmlns:rdf="http://www.w3.org/1999/02/22-rdf-syntax-ns#" xmlns:svg="http://www.w3.org/2000/svg" inkscape:version="1.3 (0e150ed6c4, 2023-07-21)"
	 xmlns="http://www.w3.org/2000/svg" xmlns:xlink="http://www.w3.org/1999/xlink" x="0px" y="0px" viewBox="0 0 64 64"
	 style="enable-background:new 0 0 64 64;" xml:space="preserve">
<style type="text/css">
	.st0{fill:#EED383;stroke:#EED383;stroke-width:4;}
	.st1{fill-rule:evenodd;clip-rule:evenodd;fill:#EED383;stroke:#EED383;stroke-width:4;}
	.st2{fill-rule:evenodd;clip-rule:evenodd;fill:#A3A7AA;stroke:#A3A7AA;stroke-width:4;}
</style>
<sodipodi:namedview  bordercolor="#666666" borderopacity="1" gridtolerance="10" guidetolerance="10" id="namedview15" inkscape:current-layer="svg15" inkscape:cx="16.141852" inkscape:cy="31.346899" inkscape:deskcolor="#d1d1d1" inkscape:pagecheckerboard="false" inkscape:pageopacity="1" inkscape:pageshadow="2" inkscape:showpageshadow="0" inkscape:window-height="827" inkscape:window-maximized="1" inkscape:window-width="1600" inkscape:window-x="0" inkscape:window-y="0" inkscape:zoom="6.9384853" objecttolerance="10" pagecolor="#002b36" showgrid="false">
	</sodipodi:namedview>
<path id="Shape" class="st0" d="M32,52.3c-2.4,0-4.4-2-4.4-4.4c0-2.4,2-4.4,4.4-4.4s4.4,2,4.4,4.4C36.4,50.4,34.4,52.3,32,52.3z"/>
<path id="Path" class="st1" d="M42.3,38.3c-0.2,0-0.4-0.1-0.6-0.2C39.2,35.4,35.7,34,32,34c-3.7,0-7.2,1.5-9.8,4.1
	c-0.3,0.3-0.8,0.3-1.1,0s-0.3-0.8,0-1.1C24,34,27.9,32.4,32,32.4c4.1,0,8,1.6,10.9,4.6c0.3,0.3,0.3,0.8,0,1.1
	C42.7,38.2,42.5,38.3,42.3,38.3z"/>
<path id="path8" class="st2" d="M49.7,30.9c-0.2,0-0.4-0.1-0.6-0.2c-9.5-9.5-24.9-9.4-34.3,0c-0.3,0.3-0.8,0.3-1.1,0
	c-0.3-0.3-0.3-0.8,0-1.1c10.1-10.1,26.5-10.1,36.5,0c0.3,0.3,0.3,0.8,0,1.1C50.1,30.8,49.9,30.9,49.7,30.9z"/>
<path id="path10" class="st2" d="M57.1,23.5c-0.2,0-0.4-0.1-0.6-0.2C43,9.8,21,9.8,7.4,23.3c-0.3,0.3-0.8,0.3-1.1,0
	C6,23,6,22.5,6.3,22.2c14.2-14,37.2-14,51.3,0c0.3,0.3,0.3,0.8,0,1.1C57.5,23.4,57.3,23.5,57.1,23.5z"/>
</svg>
