<?xml version="1.0" encoding="utf-8"?>
<!-- Generator: Adobe Illustrator 28.1.0, SVG Export Plug-In . SVG Version: 6.00 Build 0)  -->
<svg version="1.1"
	 id="svg4160" xmlns:inkscape="http://www.inkscape.org/namespaces/inkscape" xmlns:sodipodi="http://sodipodi.sourceforge.net/DTD/sodipodi-0.dtd" xmlns:cc="http://creativecommons.org/ns#" xmlns:dc="http://purl.org/dc/elements/1.1/" xmlns:rdf="http://www.w3.org/1999/02/22-rdf-syntax-ns#" xmlns:svg="http://www.w3.org/2000/svg" inkscape:version="1.3.2 (091e20ef0f, 2023-11-25, custom)"
	 xmlns="http://www.w3.org/2000/svg" xmlns:xlink="http://www.w3.org/1999/xlink" x="0px" y="0px" viewBox="0 0 64 64"
	 style="enable-background:new 0 0 64 64;" xml:space="preserve">
<style type="text/css">
	.st0{opacity:0.998;fill:#F0EBDC;enable-background:new    ;}
</style>
<sodipodi:namedview  bordercolor="#666666" borderopacity="1" gridtolerance="10" guidetolerance="10" id="namedview8" inkscape:current-layer="layer2" inkscape:cx="19.394904" inkscape:cy="34.299362" inkscape:deskcolor="#d1d1d1" inkscape:document-rotation="0" inkscape:pagecheckerboard="false" inkscape:pageopacity="1" inkscape:pageshadow="2" inkscape:showpageshadow="0" inkscape:window-height="855" inkscape:window-maximized="1" inkscape:window-width="1600" inkscape:window-x="0" inkscape:window-y="0" inkscape:zoom="5.2333335" objecttolerance="10" pagecolor="#002b36" showgrid="false" showguides="true">
	<inkscape:grid  id="grid832" originx="0" originy="0" spacingx="1" spacingy="1" type="xygrid" units="px" visible="false">
		</inkscape:grid>
	<sodipodi:guide  id="guide1" inkscape:locked="false" orientation="1,0" position="61.018472,58.66603"></sodipodi:guide>
	<sodipodi:guide  id="guide2" inkscape:locked="false" orientation="0,-1" position="35.866463,60.408938"></sodipodi:guide>
</sodipodi:namedview>
<g id="layer2" transform="translate(-3.5328446,2.2636422)">
	<g id="g4" transform="rotate(-45,50.27088,15.616722)">
		<path id="rect852-3-6-7" sodipodi:nodetypes="ssscccccscccccccccccss" class="st0" d="M66.2,10.6v9.2c0,0.7-0.4,1.1-0.9,1.1H52.9
			c-1.8,0-2.7,2.1-1.5,3.4l3,3.2c0.4,0.4,0.4,1.2,0,1.6l-4.1,4.4c-0.2,0.2-0.4,0.3-0.6,0.3c-0.2,0-0.4-0.1-0.6-0.3L36.3,20.7
			l-4.2-4.2c-0.8-0.8-0.8-0.8,0.4-2l4.2-4.2L49.5-2.6c0.4-0.4,0.8-0.4,1.2,0l3.7,3.9c0.4,0.4,0.4,1.2,0,1.6l-3,3.2
			c-1.2,1.3-0.3,3.4,1.5,3.4l12.4,0C65.8,9.5,66.2,9.9,66.2,10.6z"/>
		<path id="rect852-3-6-7-5" sodipodi:nodetypes="ssscccccscccccccccccss" class="st0" d="M-6.5,10.6l0,9.2c0,0.7,0.4,1.1,0.9,1.1
			H6.9c1.8,0,2.7,2.1,1.5,3.4l-3,3.2c-0.4,0.4-0.4,1.2,0,1.6l4.1,4.4c0.2,0.2,0.4,0.3,0.6,0.3c0.2,0,0.4-0.1,0.6-0.3l12.7-12.7
			l4.2-4.2c0.8-0.8,0.8-0.8-0.4-2L23,10.1L10.2-2.6C9.8-3,9.4-3,9-2.6L5.3,1.3c-0.4,0.4-0.4,1.2,0,1.6l3,3.2
			c1.2,1.3,0.3,3.4-1.5,3.4l-12.4,0C-6,9.5-6.5,9.9-6.5,10.6z"/>
	</g>
</g>
</svg>
