<?xml version="1.0" encoding="utf-8"?>
<!-- Generator: Adobe Illustrator 28.1.0, SVG Export Plug-In . SVG Version: 6.00 Build 0)  -->
<svg version="1.1"
	 id="svg4160" xmlns:inkscape="http://www.inkscape.org/namespaces/inkscape" xmlns:sodipodi="http://sodipodi.sourceforge.net/DTD/sodipodi-0.dtd" xmlns:cc="http://creativecommons.org/ns#" xmlns:dc="http://purl.org/dc/elements/1.1/" xmlns:rdf="http://www.w3.org/1999/02/22-rdf-syntax-ns#" xmlns:svg="http://www.w3.org/2000/svg" inkscape:version="1.3.2 (091e20ef0f, 2023-11-25, custom)"
	 xmlns="http://www.w3.org/2000/svg" xmlns:xlink="http://www.w3.org/1999/xlink" x="0px" y="0px" viewBox="0 0 64 64"
	 style="enable-background:new 0 0 64 64;" xml:space="preserve">
<style type="text/css">
	.st0{opacity:0.998;fill:#F0EBDC;enable-background:new    ;}
</style>
<sodipodi:namedview  bordercolor="#666666" borderopacity="1" gridtolerance="10" guidetolerance="10" id="namedview8" inkscape:current-layer="layer2" inkscape:cx="27.32484" inkscape:cy="23.407643" inkscape:deskcolor="#d1d1d1" inkscape:document-rotation="0" inkscape:pagecheckerboard="false" inkscape:pageopacity="1" inkscape:pageshadow="2" inkscape:showpageshadow="0" inkscape:window-height="855" inkscape:window-maximized="1" inkscape:window-width="1600" inkscape:window-x="0" inkscape:window-y="0" inkscape:zoom="5.2333335" objecttolerance="10" pagecolor="#002b36" showgrid="false" showguides="true">
	<inkscape:grid  id="grid832" originx="0" originy="0" spacingx="1" spacingy="1" type="xygrid" units="px" visible="false">
		</inkscape:grid>
	<sodipodi:guide  id="guide1" inkscape:locked="false" orientation="1,0" position="61.018472,58.66603"></sodipodi:guide>
</sodipodi:namedview>
<g id="layer2" transform="translate(-3.5328446,2.2636422)">
	<path id="rect852-3-6-7" sodipodi:nodetypes="ssscccccscccccccccccss" class="st0" d="M45.4,27l-6.5-6.5c-0.5-0.5-0.5-1.1-0.1-1.4
		l8.8-8.8C48.8,9,48,6.9,46.2,6.9l-4.4-0.1c-0.6,0-1.1-0.5-1.1-1.1l-0.2-6c0-0.3,0.1-0.5,0.2-0.6c0.1-0.1,0.3-0.2,0.6-0.2l18,0l6,0
		c1.1,0,1.1,0,1.1,1.7v6v18c0,0.6-0.3,0.9-0.9,0.9l-5.4-0.2c-0.6,0-1.1-0.5-1.1-1.1L59,19.7c0-1.8-2.2-2.6-3.4-1.4l-8.8,8.8
		C46.5,27.5,45.9,27.5,45.4,27z"/>
	<path id="rect852-3-6-7-5" sodipodi:nodetypes="ssscccccscccccccccccss" class="st0" d="M32.8,39.6l-6.5-6.5
		c-0.5-0.5-1.1-0.5-1.4-0.1l-8.8,8.8c-1.2,1.2-3.4,0.4-3.4-1.4L12.5,36c0-0.6-0.5-1.1-1.1-1.1l-6-0.2c-0.3,0-0.5,0.1-0.6,0.2
		c-0.1,0.1-0.2,0.3-0.2,0.6v18l0,6c0,1.1,0,1.1,1.7,1.1l6,0l18,0c0.6,0,0.9-0.3,0.9-0.9L31,54.5c0-0.6-0.5-1.1-1.1-1.1l-4.4-0.1
		c-1.8,0-2.6-2.2-1.4-3.4l8.8-8.8C33.2,40.7,33.3,40.1,32.8,39.6z"/>
</g>
</svg>
