<?xml version="1.0" encoding="utf-8"?>
<!-- Generator: Adobe Illustrator 28.1.0, SVG Export Plug-In . SVG Version: 6.00 Build 0)  -->
<svg version="1.1"
	 id="svg38" xmlns:inkscape="http://www.inkscape.org/namespaces/inkscape" xmlns:sodipodi="http://sodipodi.sourceforge.net/DTD/sodipodi-0.dtd" xmlns:cc="http://creativecommons.org/ns#" xmlns:dc="http://purl.org/dc/elements/1.1/" xmlns:rdf="http://www.w3.org/1999/02/22-rdf-syntax-ns#" xmlns:svg="http://www.w3.org/2000/svg" inkscape:version="1.1 (c4e8f9ed74, 2021-05-24)"
	 xmlns="http://www.w3.org/2000/svg" xmlns:xlink="http://www.w3.org/1999/xlink" x="0px" y="0px" viewBox="0 0 64 64"
	 style="enable-background:new 0 0 64 64;" xml:space="preserve">
<style type="text/css">
	.st0{opacity:0.995;fill:#A3A7AA;enable-background:new    ;}
	.st1{opacity:0.995;fill:#3F5464;enable-background:new    ;}
	.st2{opacity:0.998;fill:#F0EBDC;enable-background:new    ;}
</style>
<sodipodi:namedview  bordercolor="#666666" borderopacity="1" gridtolerance="10" guidetolerance="10" id="namedview19" inkscape:current-layer="svg38" inkscape:cx="34.200218" inkscape:cy="27.809268" inkscape:document-rotation="0" inkscape:pagecheckerboard="false" inkscape:pageopacity="0" inkscape:pageshadow="2" inkscape:window-height="826" inkscape:window-maximized="1" inkscape:window-width="1600" inkscape:window-x="0" inkscape:window-y="0" inkscape:zoom="8.6841552" objecttolerance="10" pagecolor="#cccccc" showgrid="false">
	</sodipodi:namedview>
<g id="g859" transform="rotate(5,66.355649,48.5)">
	<path id="rect863" class="st0" d="M11,50l2,0c1.1,0,2,0.9,2,2l0,0c0,1.1-0.9,2-2,2h-2c-1.1,0-2-0.9-2-2l0,0C9,50.9,9.9,50,11,50z"
		/>
	<path id="rect912-8" class="st0" d="M51,50h2c1.1,0,2,0.9,2,2l0,0c0,1.1-0.9,2-2,2h-2c-1.1,0-2-0.9-2-2l0,0C49,50.9,49.9,50,51,50z
		"/>
	<path id="rect857" class="st0" d="M6.5,44l51,0c1.1,0,2,0.9,2,2v3c0,1.1-0.9,2-2,2l-51,0c-1.1,0-2-0.9-2-2l0-3
		C4.5,44.9,5.4,44,6.5,44z"/>
	
		<rect id="rect854-7" x="31" y="17.5" transform="matrix(2.765395e-06 1 -1 2.765395e-06 76.9999 12.9999)" class="st1" width="2" height="55"/>
</g>
<path id="rect852-3" sodipodi:nodetypes="ssscccccscccccccccccss" class="st2" d="M48.5,9.4h-5c-0.4,0-0.6,0.2-0.6,0.5v13.3
	c0,1-1.1,1.4-1.8,0.8l-1.7-1.6c-0.2-0.2-0.6-0.2-0.9,0l-2.4,2.2c-0.1,0.1-0.2,0.2-0.2,0.3c0,0.1,0,0.2,0.2,0.3l7.1,6.7l2.4,2.3
	c0.2,0.2,0.6,0.2,0.9,0l2.4-2.3l7.1-6.7c0.2-0.2,0.2-0.4,0-0.7l-2.4-2.2c-0.2-0.2-0.6-0.2-0.9,0L50.9,24c-0.7,0.7-1.8,0.2-1.8-0.8
	V9.9C49.1,9.7,48.9,9.4,48.5,9.4z"/>
<path id="path924" sodipodi:nodetypes="ssscccccscccccccccccss" class="st2" d="M20.5,34.4h-5c-0.4,0-0.6-0.2-0.6-0.5V20.7
	c0-1-1.1-1.4-1.8-0.8l-1.7,1.6c-0.2,0.2-0.6,0.2-0.9,0l-2.4-2.2c-0.1-0.1-0.2-0.2-0.2-0.3c0-0.1,0-0.2,0.2-0.3l7.1-6.7l2.4-2.3
	c0.2-0.2,0.6-0.2,0.9,0l2.4,2.3l7.1,6.7c0.2,0.2,0.2,0.4,0,0.7l-2.4,2.2c-0.2,0.2-0.6,0.2-0.9,0l-1.7-1.6c-0.7-0.7-1.8-0.2-1.8,0.8
	v13.3C21.1,34.2,20.9,34.4,20.5,34.4z"/>
</svg>
